{"glyphs":{"0":{"ha":663,"x_min":61,"x_max":601,"o":"m 332 -11 q 146 30 201 -11 q 76 165 90 71 q 61 478 61 258 q 76 791 61 697 q 146 926 90 885 q 332 967 201 967 q 518 926 463 967 q 588 791 574 885 q 601 478 601 697 q 588 165 601 258 q 518 30 574 71 q 332 -11 463 -11 m 332 132 q 411 149 390 132 q 438 232 432 167 q 444 478 444 297 q 438 724 444 658 q 411 806 432 789 q 332 824 390 824 q 253 806 274 824 q 226 724 232 789 q 219 478 219 658 q 226 232 219 297 q 253 149 232 167 q 332 132 274 132 z "},"1":{"ha":415,"x_min":31,"x_max":328,"o":"m 169 0 l 169 765 l 31 704 l 31 857 l 211 956 l 328 956 l 328 0 l 169 0 z "},"2":{"ha":618,"x_min":57,"x_max":561,"o":"m 215 143 l 561 143 l 561 0 l 57 0 l 57 121 q 63 306 57 249 q 92 400 69 364 q 168 465 114 436 q 335 558 224 497 q 390 609 378 583 q 403 694 403 635 q 390 781 403 754 q 350 816 378 808 q 263 824 322 824 q 68 810 193 824 l 68 942 q 183 960 115 953 q 307 967 250 967 q 443 950 390 967 q 528 876 496 933 q 561 707 561 819 q 535 535 561 590 q 446 446 510 479 l 267 350 q 241 333 250 340 q 226 314 232 325 q 217 273 218 299 q 215 185 215 247 l 215 143 z "},"3":{"ha":599,"x_min":35,"x_max":540,"o":"m 263 -11 q 150 -4 214 -11 q 35 13 86 3 l 35 144 q 231 132 150 132 q 321 140 290 132 q 367 177 351 149 q 382 267 382 206 q 371 357 382 326 q 335 399 360 388 q 267 411 311 411 l 138 411 l 138 554 l 267 554 q 328 564 306 554 q 362 603 350 574 q 374 690 374 632 q 360 778 374 750 q 317 815 347 806 q 222 824 286 824 q 38 810 139 824 l 38 942 q 149 960 85 953 q 264 967 213 967 q 470 910 408 967 q 532 717 532 854 q 501 560 532 614 q 408 490 471 507 l 408 485 q 508 416 476 467 q 540 253 540 365 q 515 101 540 158 q 430 17 490 44 q 263 -11 369 -11 z "},"4":{"ha":649,"x_min":35,"x_max":617,"o":"m 371 0 l 371 203 l 35 203 l 35 326 l 249 956 l 414 956 l 197 344 l 371 344 l 410 622 l 529 622 l 529 344 l 617 344 l 617 203 l 529 203 l 529 0 l 371 0 z "},"5":{"ha":621,"x_min":68,"x_max":571,"o":"m 68 144 q 256 132 181 132 q 355 145 322 132 q 400 192 388 158 q 413 292 413 225 q 399 394 413 361 q 351 438 385 426 q 250 449 318 449 q 74 435 160 449 l 74 956 l 528 956 l 528 813 l 222 813 l 222 582 q 276 589 242 586 q 340 592 310 592 q 483 558 432 592 q 552 464 533 525 q 571 308 571 403 q 548 124 571 192 q 465 22 525 56 q 294 -11 406 -11 q 182 -4 246 -11 q 68 13 118 3 l 68 144 z "},"6":{"ha":658,"x_min":61,"x_max":604,"o":"m 340 -11 q 199 4 250 -11 q 117 64 147 19 q 74 196 88 108 q 61 472 61 282 q 85 775 61 681 q 172 924 108 881 q 364 967 236 967 q 469 959 411 967 q 572 939 528 951 l 572 807 q 393 824 468 824 q 276 802 311 824 q 231 722 242 781 q 221 525 221 664 l 229 525 q 284 572 249 553 q 390 592 319 592 q 513 572 468 592 q 581 492 557 553 q 604 314 604 432 q 583 115 604 183 q 506 18 563 47 q 340 -11 450 -11 m 335 132 q 408 140 386 132 q 438 179 429 147 q 447 288 447 211 q 439 399 447 367 q 409 440 431 431 q 335 449 388 449 q 260 438 282 449 q 231 401 238 428 q 224 311 224 374 q 233 190 224 228 q 265 142 243 153 q 335 132 286 132 z "},"7":{"ha":578,"x_min":32,"x_max":544,"o":"m 101 0 l 376 813 l 32 813 l 32 956 l 544 956 l 544 828 l 271 0 l 101 0 z "},"8":{"ha":679,"x_min":60,"x_max":619,"o":"m 339 -11 q 170 16 231 -11 q 85 100 110 43 q 60 253 60 157 q 74 378 60 332 q 115 448 88 425 q 189 485 143 471 l 189 490 q 95 560 125 507 q 65 718 65 614 q 92 865 65 811 q 178 942 119 918 q 339 967 238 967 q 499 942 439 967 q 585 864 558 918 q 613 718 613 810 q 582 560 613 614 q 488 490 551 507 l 488 485 q 563 448 535 471 q 605 378 590 425 q 619 253 619 332 q 594 100 619 157 q 508 16 569 43 q 339 -11 447 -11 m 339 551 q 411 561 388 551 q 444 600 435 571 q 454 689 454 629 q 445 778 454 750 q 413 817 436 807 q 339 826 389 826 q 265 817 289 826 q 233 778 242 807 q 224 689 224 750 q 233 599 224 628 q 265 561 242 571 q 339 551 289 551 m 339 129 q 414 139 389 129 q 450 178 439 149 q 461 271 461 208 q 451 365 461 335 q 415 404 440 394 q 339 414 390 414 q 262 404 286 414 q 228 365 238 394 q 218 271 218 336 q 228 178 218 207 q 264 139 239 149 q 339 129 289 129 z "},"9":{"ha":658,"x_min":54,"x_max":597,"o":"m 294 -11 q 189 -3 247 -11 q 86 17 131 4 l 86 149 q 265 132 189 132 q 382 153 347 132 q 427 233 417 175 q 438 431 438 292 l 429 431 q 376 383 411 401 q 268 364 340 364 q 146 383 190 364 q 78 463 101 403 q 54 642 54 524 q 75 840 54 772 q 152 938 96 908 q 318 967 208 967 q 449 954 400 967 q 529 907 499 942 q 575 806 560 872 q 597 483 597 710 q 591 290 597 367 q 569 160 585 213 q 479 28 543 67 q 294 -11 415 -11 m 324 507 q 399 517 376 507 q 428 555 421 528 q 435 644 435 582 q 425 765 435 728 q 394 813 415 803 q 324 824 372 824 q 251 816 272 824 q 220 776 229 808 q 211 668 211 744 q 219 557 211 589 q 249 516 228 525 q 324 507 271 507 z "},"\u0000":{"ha":0,"x_min":0,"x_max":0,"o":""},"\r":{"ha":258,"x_min":0,"x_max":0,"o":""}," ":{"ha":258,"x_min":0,"x_max":0,"o":""},"A":{"ha":688,"x_min":15,"x_max":672,"o":"m 510 0 l 464 217 l 219 217 l 175 0 l 15 0 l 229 956 l 458 956 l 672 0 l 510 0 m 346 799 l 338 799 l 249 358 l 433 358 l 346 799 z "},"Á":{"ha":688,"x_min":15,"x_max":672,"o":"m 510 0 l 464 217 l 219 217 l 175 0 l 15 0 l 229 956 l 458 956 l 672 0 l 510 0 m 346 799 l 338 799 l 249 358 l 433 358 l 346 799 m 267 1042 l 267 1049 l 340 1242 l 493 1242 l 493 1235 l 386 1042 l 267 1042 z "},"Ă":{"ha":688,"x_min":15,"x_max":672,"o":"m 510 0 l 464 217 l 219 217 l 175 0 l 15 0 l 229 956 l 458 956 l 672 0 l 510 0 m 346 799 l 338 799 l 249 358 l 433 358 l 346 799 m 517 1233 q 505 1130 517 1169 q 455 1067 493 1090 q 342 1043 417 1043 q 231 1066 268 1043 q 182 1129 193 1089 q 171 1233 171 1169 l 267 1233 q 270 1176 267 1194 q 290 1146 274 1157 q 342 1135 306 1135 q 394 1146 378 1135 q 415 1176 411 1157 q 419 1233 419 1196 l 517 1233 z "},"Ắ":{"ha":688,"x_min":15,"x_max":672,"o":"m 510 0 l 464 217 l 219 217 l 175 0 l 15 0 l 229 956 l 458 956 l 672 0 l 510 0 m 346 799 l 338 799 l 249 358 l 433 358 l 346 799 m 517 1233 q 505 1130 517 1169 q 455 1067 493 1090 q 342 1043 417 1043 q 231 1066 268 1043 q 182 1129 193 1089 q 171 1233 171 1169 l 267 1233 q 270 1176 267 1194 q 290 1146 274 1157 q 342 1135 306 1135 q 394 1146 378 1135 q 415 1176 411 1157 q 419 1233 419 1196 l 517 1233 m 279 1274 l 279 1281 l 353 1474 l 506 1474 l 506 1467 l 399 1274 l 279 1274 z "},"Ặ":{"ha":688,"x_min":15,"x_max":672,"o":"m 510 0 l 464 217 l 219 217 l 175 0 l 15 0 l 229 956 l 458 956 l 672 0 l 510 0 m 346 799 l 338 799 l 249 358 l 433 358 l 346 799 m 260 -251 l 260 -86 l 428 -86 l 428 -251 l 260 -251 m 517 1233 q 505 1130 517 1169 q 455 1067 493 1090 q 342 1043 417 1043 q 231 1066 268 1043 q 182 1129 193 1089 q 171 1233 171 1169 l 267 1233 q 270 1176 267 1194 q 290 1146 274 1157 q 342 1135 306 1135 q 394 1146 378 1135 q 415 1176 411 1157 q 419 1233 419 1196 l 517 1233 z "},"Ằ":{"ha":688,"x_min":15,"x_max":672,"o":"m 510 0 l 464 217 l 219 217 l 175 0 l 15 0 l 229 956 l 458 956 l 672 0 l 510 0 m 346 799 l 338 799 l 249 358 l 433 358 l 346 799 m 517 1233 q 505 1130 517 1169 q 455 1067 493 1090 q 342 1043 417 1043 q 231 1066 268 1043 q 182 1129 193 1089 q 171 1233 171 1169 l 267 1233 q 270 1176 267 1194 q 290 1146 274 1157 q 342 1135 306 1135 q 394 1146 378 1135 q 415 1176 411 1157 q 419 1233 419 1196 l 517 1233 m 285 1274 l 179 1467 l 179 1474 l 332 1474 l 406 1281 l 406 1274 l 285 1274 z "},"Ẳ":{"ha":688,"x_min":15,"x_max":672,"o":"m 510 0 l 464 217 l 219 217 l 175 0 l 15 0 l 229 956 l 458 956 l 672 0 l 510 0 m 346 799 l 338 799 l 249 358 l 433 358 l 346 799 m 514 1233 q 502 1130 514 1169 q 452 1067 490 1090 q 339 1043 414 1043 q 228 1066 265 1043 q 179 1129 190 1089 q 168 1233 168 1169 l 264 1233 q 267 1176 264 1194 q 287 1146 271 1157 q 339 1135 303 1135 q 392 1146 375 1135 q 413 1176 408 1157 q 417 1233 417 1196 l 514 1233 m 285 1260 q 297 1313 285 1299 q 343 1343 310 1328 l 363 1351 q 397 1373 388 1364 q 407 1394 407 1382 q 397 1414 407 1408 q 354 1419 386 1419 q 219 1411 288 1419 l 219 1511 q 354 1526 301 1526 q 477 1498 436 1526 q 518 1406 518 1469 q 506 1339 518 1364 q 456 1296 493 1314 l 429 1283 q 391 1260 397 1268 q 385 1235 385 1253 l 285 1235 l 285 1260 z "},"Ẵ":{"ha":688,"x_min":15,"x_max":672,"o":"m 510 0 l 464 217 l 219 217 l 175 0 l 15 0 l 229 956 l 458 956 l 672 0 l 510 0 m 346 799 l 338 799 l 249 358 l 433 358 l 346 799 m 514 1233 q 502 1130 514 1169 q 452 1067 490 1090 q 339 1043 414 1043 q 228 1066 265 1043 q 179 1129 190 1089 q 168 1233 168 1169 l 264 1233 q 267 1176 264 1194 q 287 1146 271 1157 q 339 1135 303 1135 q 392 1146 375 1135 q 413 1176 408 1157 q 417 1233 417 1196 l 514 1233 m 553 1474 q 547 1373 553 1407 q 521 1320 542 1339 q 456 1301 500 1301 q 399 1308 428 1301 q 333 1328 371 1315 q 301 1338 329 1329 q 253 1347 272 1347 q 230 1335 235 1347 q 225 1286 225 1322 l 135 1286 q 140 1387 135 1353 q 167 1440 146 1421 q 233 1458 188 1458 q 288 1452 261 1458 q 356 1432 314 1446 q 436 1414 413 1414 q 458 1425 454 1414 q 463 1474 463 1436 l 553 1474 z "},"Ǎ":{"ha":688,"x_min":15,"x_max":672,"o":"m 510 0 l 464 217 l 219 217 l 175 0 l 15 0 l 229 956 l 458 956 l 672 0 l 510 0 m 346 799 l 338 799 l 249 358 l 433 358 l 346 799 m 267 1047 l 161 1224 l 161 1233 l 267 1233 l 344 1124 l 422 1233 l 528 1233 l 528 1224 l 422 1047 l 267 1047 z "},"Â":{"ha":688,"x_min":15,"x_max":672,"o":"m 510 0 l 464 217 l 219 217 l 175 0 l 15 0 l 229 956 l 458 956 l 672 0 l 510 0 m 346 799 l 338 799 l 249 358 l 433 358 l 346 799 m 161 1042 l 161 1051 l 265 1226 l 422 1226 l 526 1051 l 526 1042 l 422 1042 l 343 1151 l 265 1042 l 161 1042 z "},"Ấ":{"ha":688,"x_min":15,"x_max":672,"o":"m 510 0 l 464 217 l 219 217 l 175 0 l 15 0 l 229 956 l 458 956 l 672 0 l 510 0 m 346 799 l 338 799 l 249 358 l 433 358 l 346 799 m 164 1028 l 164 1038 l 268 1213 l 425 1213 l 529 1038 l 529 1028 l 425 1028 l 346 1138 l 268 1028 l 164 1028 m 379 1253 l 379 1260 l 453 1453 l 606 1453 l 606 1446 l 499 1253 l 379 1253 z "},"Ậ":{"ha":688,"x_min":15,"x_max":672,"o":"m 510 0 l 464 217 l 219 217 l 175 0 l 15 0 l 229 956 l 458 956 l 672 0 l 510 0 m 346 799 l 338 799 l 249 358 l 433 358 l 346 799 m 260 -251 l 260 -86 l 428 -86 l 428 -251 l 260 -251 m 161 1049 l 161 1058 l 265 1233 l 422 1233 l 526 1058 l 526 1049 l 422 1049 l 343 1158 l 265 1049 l 161 1049 z "},"Ầ":{"ha":688,"x_min":15,"x_max":672,"o":"m 510 0 l 464 217 l 219 217 l 175 0 l 15 0 l 229 956 l 458 956 l 672 0 l 510 0 m 346 799 l 338 799 l 249 358 l 433 358 l 346 799 m 154 1004 l 154 1014 l 258 1189 l 415 1189 l 519 1014 l 519 1004 l 415 1004 l 336 1114 l 258 1004 l 154 1004 m 411 1229 l 306 1422 l 306 1429 l 458 1429 l 532 1236 l 532 1229 l 411 1229 z "},"Ẩ":{"ha":688,"x_min":15,"x_max":672,"o":"m 510 0 l 464 217 l 219 217 l 175 0 l 15 0 l 229 956 l 458 956 l 672 0 l 510 0 m 346 799 l 338 799 l 249 358 l 433 358 l 346 799 m 161 1006 l 161 1015 l 265 1190 l 422 1190 l 526 1015 l 526 1006 l 422 1006 l 343 1115 l 265 1006 l 161 1006 m 386 1243 q 399 1297 386 1282 q 444 1326 411 1311 l 464 1335 q 499 1356 489 1347 q 508 1378 508 1365 q 498 1397 508 1392 q 456 1403 488 1403 q 321 1394 389 1403 l 321 1494 q 456 1510 403 1510 q 578 1481 538 1510 q 619 1389 619 1453 q 607 1322 619 1347 q 557 1279 594 1297 l 531 1267 q 492 1244 499 1251 q 486 1218 486 1236 l 386 1218 l 386 1243 z "},"Ẫ":{"ha":688,"x_min":15,"x_max":672,"o":"m 510 0 l 464 217 l 219 217 l 175 0 l 15 0 l 229 956 l 458 956 l 672 0 l 510 0 m 346 799 l 338 799 l 249 358 l 433 358 l 346 799 m 158 1006 l 158 1015 l 263 1190 l 419 1190 l 524 1015 l 524 1006 l 419 1006 l 340 1115 l 263 1006 l 158 1006 m 553 1431 q 547 1330 553 1364 q 521 1277 542 1296 q 456 1258 500 1258 q 399 1265 428 1258 q 333 1285 371 1272 q 301 1295 329 1286 q 253 1304 272 1304 q 230 1292 235 1304 q 225 1243 225 1279 l 135 1243 q 140 1344 135 1310 q 167 1397 146 1378 q 233 1415 188 1415 q 288 1409 261 1415 q 356 1389 314 1403 q 436 1371 413 1371 q 458 1382 454 1371 q 463 1431 463 1393 l 553 1431 z "},"Ȁ":{"ha":688,"x_min":15,"x_max":672,"o":"m 510 0 l 464 217 l 219 217 l 175 0 l 15 0 l 229 956 l 458 956 l 672 0 l 510 0 m 346 799 l 338 799 l 249 358 l 433 358 l 346 799 m 301 1047 l 201 1047 l 110 1214 l 110 1219 l 238 1219 l 301 1053 l 301 1047 m 500 1047 l 400 1047 l 308 1214 l 308 1219 l 435 1219 l 500 1053 l 500 1047 z "},"Ä":{"ha":688,"x_min":15,"x_max":672,"o":"m 510 0 l 464 217 l 219 217 l 175 0 l 15 0 l 229 956 l 458 956 l 672 0 l 510 0 m 346 799 l 338 799 l 249 358 l 433 358 l 346 799 m 156 1083 l 156 1215 l 290 1215 l 290 1083 l 156 1083 m 399 1083 l 399 1215 l 532 1215 l 532 1083 l 399 1083 z "},"Ạ":{"ha":688,"x_min":15,"x_max":672,"o":"m 510 0 l 464 217 l 219 217 l 175 0 l 15 0 l 229 956 l 458 956 l 672 0 l 510 0 m 346 799 l 338 799 l 249 358 l 433 358 l 346 799 m 260 -251 l 260 -86 l 428 -86 l 428 -251 l 260 -251 z "},"À":{"ha":688,"x_min":15,"x_max":672,"o":"m 510 0 l 464 217 l 219 217 l 175 0 l 15 0 l 229 956 l 458 956 l 672 0 l 510 0 m 346 799 l 338 799 l 249 358 l 433 358 l 346 799 m 301 1042 l 196 1235 l 196 1242 l 349 1242 l 422 1049 l 422 1042 l 301 1042 z "},"Ả":{"ha":688,"x_min":15,"x_max":672,"o":"m 510 0 l 464 217 l 219 217 l 175 0 l 15 0 l 229 956 l 458 956 l 672 0 l 510 0 m 346 799 l 338 799 l 249 358 l 433 358 l 346 799 m 260 1028 q 272 1080 260 1065 q 318 1111 283 1094 l 338 1119 q 372 1141 363 1132 q 382 1163 382 1150 q 372 1181 382 1176 q 329 1186 361 1186 q 194 1179 251 1186 l 194 1279 q 329 1294 276 1294 q 452 1266 411 1294 q 493 1172 493 1238 q 481 1106 493 1131 q 431 1064 468 1082 l 404 1050 q 366 1028 372 1035 q 360 1001 360 1021 l 260 1001 l 260 1028 z "},"Ȃ":{"ha":688,"x_min":15,"x_max":672,"o":"m 510 0 l 464 217 l 219 217 l 175 0 l 15 0 l 229 956 l 458 956 l 672 0 l 510 0 m 346 799 l 338 799 l 249 358 l 433 358 l 346 799 m 171 1051 q 183 1155 171 1115 q 233 1218 194 1194 q 346 1242 271 1242 q 457 1219 419 1242 q 506 1156 494 1196 q 517 1051 517 1115 l 421 1051 q 417 1109 421 1090 q 398 1139 414 1128 q 346 1150 382 1150 q 293 1139 310 1150 q 272 1108 276 1128 q 268 1051 268 1089 l 171 1051 z "},"Ā":{"ha":688,"x_min":15,"x_max":672,"o":"m 510 0 l 464 217 l 219 217 l 175 0 l 15 0 l 229 956 l 458 956 l 672 0 l 510 0 m 346 799 l 338 799 l 249 358 l 433 358 l 346 799 m 206 1094 l 206 1233 l 482 1233 l 482 1094 l 206 1094 z "},"Ą":{"ha":688,"x_min":15,"x_max":672,"o":"m 554 -128 q 613 -182 554 -182 q 631 -181 626 -182 l 631 -268 q 567 -272 594 -272 q 465 -240 496 -272 q 433 -157 433 -208 q 454 -76 433 -118 q 510 3 475 -33 l 464 217 l 219 217 l 175 0 l 15 0 l 229 956 l 458 956 l 672 0 l 622 0 q 575 -62 596 -26 q 554 -128 554 -97 m 249 358 l 433 358 l 346 799 l 338 799 l 249 358 z "},"Å":{"ha":688,"x_min":15,"x_max":672,"o":"m 672 0 l 510 0 l 464 217 l 219 217 l 175 0 l 15 0 l 229 951 q 187 995 196 967 q 178 1082 178 1024 q 187 1169 178 1140 q 231 1214 196 1199 q 342 1229 265 1229 q 455 1214 419 1229 q 499 1169 490 1199 q 508 1082 508 1140 q 499 997 508 1025 q 458 953 490 968 l 672 0 m 342 1151 q 297 1145 310 1151 q 280 1126 283 1139 q 276 1082 276 1113 q 280 1038 276 1051 q 297 1019 283 1025 q 342 1014 310 1014 q 390 1019 375 1014 q 408 1038 404 1025 q 411 1082 411 1051 q 408 1126 411 1113 q 390 1145 404 1139 q 342 1151 375 1151 m 249 358 l 433 358 l 346 799 l 338 799 l 249 358 z "},"Ǻ":{"ha":688,"x_min":15,"x_max":672,"o":"m 672 0 l 510 0 l 464 217 l 219 217 l 175 0 l 15 0 l 229 951 q 187 995 196 967 q 178 1082 178 1024 q 187 1169 178 1140 q 231 1214 196 1199 q 342 1229 265 1229 q 455 1214 419 1229 q 499 1169 490 1199 q 508 1082 508 1140 q 499 997 508 1025 q 458 953 490 968 l 672 0 m 342 1151 q 297 1145 310 1151 q 280 1126 283 1139 q 276 1082 276 1113 q 280 1038 276 1051 q 297 1019 283 1025 q 342 1014 310 1014 q 390 1019 375 1014 q 408 1038 404 1025 q 411 1082 411 1051 q 408 1126 411 1113 q 390 1145 404 1139 q 342 1151 375 1151 m 249 358 l 433 358 l 346 799 l 338 799 l 249 358 m 265 1307 l 265 1314 l 339 1507 l 492 1507 l 492 1500 l 385 1307 l 265 1307 z "},"Ã":{"ha":688,"x_min":15,"x_max":672,"o":"m 510 0 l 464 217 l 219 217 l 175 0 l 15 0 l 229 956 l 458 956 l 672 0 l 510 0 m 346 799 l 338 799 l 249 358 l 433 358 l 346 799 m 553 1229 q 547 1128 553 1163 q 521 1076 542 1094 q 456 1057 500 1057 q 399 1064 428 1057 q 333 1083 371 1071 q 301 1094 329 1085 q 253 1103 272 1103 q 230 1090 235 1103 q 225 1042 225 1078 l 135 1042 q 140 1142 135 1108 q 167 1195 146 1176 q 233 1214 188 1214 q 288 1208 261 1214 q 356 1188 314 1201 q 436 1169 413 1169 q 458 1181 454 1169 q 463 1229 463 1192 l 553 1229 z "},"Æ":{"ha":936,"x_min":-12,"x_max":885,"o":"m 478 0 l 449 217 l 206 217 l 143 0 l -12 0 l 269 956 l 885 956 l 885 813 l 524 813 l 560 553 l 846 553 l 846 410 l 582 410 l 621 142 l 885 142 l 885 0 l 478 0 m 372 799 l 364 799 l 243 358 l 431 358 l 372 799 z "},"Ǽ":{"ha":936,"x_min":-12,"x_max":885,"o":"m 478 0 l 449 217 l 206 217 l 143 0 l -12 0 l 269 956 l 885 956 l 885 813 l 524 813 l 560 553 l 846 553 l 846 410 l 582 410 l 621 142 l 885 142 l 885 0 l 478 0 m 372 799 l 364 799 l 243 358 l 431 358 l 372 799 m 392 1033 l 392 1040 l 465 1233 l 618 1233 l 618 1226 l 511 1033 l 392 1033 z "},"B":{"ha":678,"x_min":82,"x_max":626,"o":"m 82 956 l 394 956 q 563 896 508 956 q 618 715 618 836 q 586 561 618 615 q 486 490 554 507 l 486 485 q 594 413 563 467 q 626 254 626 360 q 574 65 626 131 q 393 0 521 0 l 82 0 l 82 956 m 351 556 q 435 583 411 556 q 458 683 458 610 q 450 765 458 738 q 419 802 442 792 q 351 813 397 813 l 240 813 l 240 556 l 351 556 m 357 142 q 426 153 403 142 q 457 192 449 164 q 465 275 465 219 q 456 360 465 331 q 424 400 446 389 q 357 411 401 411 l 240 411 l 240 142 l 357 142 z "},"C":{"ha":550,"x_min":63,"x_max":508,"o":"m 508 11 q 435 -5 481 1 q 350 -11 390 -11 q 161 30 221 -11 q 82 170 101 71 q 63 478 63 269 q 83 783 63 683 q 163 925 103 883 q 350 967 222 967 q 438 960 393 967 q 506 944 482 954 l 506 813 q 381 824 432 824 q 270 803 301 824 q 230 715 239 782 q 221 478 221 649 q 230 240 221 307 q 270 153 239 174 q 381 132 301 132 q 508 143 450 132 l 508 11 z "},"Ć":{"ha":550,"x_min":63,"x_max":508,"o":"m 508 11 q 435 -5 481 1 q 350 -11 390 -11 q 161 30 221 -11 q 82 170 101 71 q 63 478 63 269 q 83 783 63 683 q 163 925 103 883 q 350 967 222 967 q 438 960 393 967 q 506 944 482 954 l 506 813 q 381 824 432 824 q 270 803 301 824 q 230 715 239 782 q 221 478 221 649 q 230 240 221 307 q 270 153 239 174 q 381 132 301 132 q 508 143 450 132 l 508 11 m 199 1033 l 199 1040 l 272 1233 l 425 1233 l 425 1226 l 318 1033 l 199 1033 z "},"Č":{"ha":550,"x_min":63,"x_max":508,"o":"m 508 11 q 435 -5 481 1 q 350 -11 390 -11 q 161 30 221 -11 q 82 170 101 71 q 63 478 63 269 q 83 783 63 683 q 163 925 103 883 q 350 967 222 967 q 438 960 393 967 q 506 944 482 954 l 506 813 q 381 824 432 824 q 270 803 301 824 q 230 715 239 782 q 221 478 221 649 q 230 240 221 307 q 270 153 239 174 q 381 132 301 132 q 508 143 450 132 l 508 11 m 197 1047 l 92 1224 l 92 1233 l 197 1233 l 275 1124 l 353 1233 l 458 1233 l 458 1224 l 353 1047 l 197 1047 z "},"Ç":{"ha":550,"x_min":63,"x_max":508,"o":"m 381 132 q 508 143 450 132 l 508 11 q 435 -5 481 1 q 350 -11 390 -11 l 326 -11 l 278 -264 l 142 -264 l 142 -257 l 226 1 q 122 72 157 19 q 74 217 86 124 q 63 478 63 310 q 83 783 63 683 q 163 925 103 883 q 350 967 222 967 q 438 960 393 967 q 506 944 482 954 l 506 813 q 381 824 432 824 q 270 803 301 824 q 230 715 239 782 q 221 478 221 649 q 230 240 221 307 q 270 153 239 174 q 381 132 301 132 z "},"Ĉ":{"ha":550,"x_min":63,"x_max":508,"o":"m 508 11 q 435 -5 481 1 q 350 -11 390 -11 q 161 30 221 -11 q 82 170 101 71 q 63 478 63 269 q 83 783 63 683 q 163 925 103 883 q 350 967 222 967 q 438 960 393 967 q 506 944 482 954 l 506 813 q 381 824 432 824 q 270 803 301 824 q 230 715 239 782 q 221 478 221 649 q 230 240 221 307 q 270 153 239 174 q 381 132 301 132 q 508 143 450 132 l 508 11 m 92 1049 l 92 1058 l 196 1233 l 353 1233 l 457 1058 l 457 1049 l 353 1049 l 274 1158 l 196 1049 l 92 1049 z "},"Ċ":{"ha":550,"x_min":63,"x_max":508,"o":"m 508 11 q 435 -5 481 1 q 350 -11 390 -11 q 161 30 221 -11 q 82 170 101 71 q 63 478 63 269 q 83 783 63 683 q 163 925 103 883 q 350 967 222 967 q 438 960 393 967 q 506 944 482 954 l 506 813 q 381 824 432 824 q 270 803 301 824 q 230 715 239 782 q 221 478 221 649 q 230 240 221 307 q 270 153 239 174 q 381 132 301 132 q 508 143 450 132 l 508 11 m 207 1083 l 207 1215 l 340 1215 l 340 1083 l 207 1083 z "},"D":{"ha":688,"x_min":82,"x_max":625,"o":"m 82 956 l 328 956 q 533 916 472 956 q 609 785 593 876 q 625 478 625 693 q 609 171 625 263 q 533 40 593 79 q 328 0 472 0 l 82 0 l 82 956 m 324 143 q 424 160 397 143 q 458 240 450 176 q 467 478 467 303 q 458 715 467 651 q 424 796 450 779 q 324 813 397 813 l 240 813 l 240 143 l 324 143 z "},"Ǳ":{"ha":1288,"x_min":82,"x_max":1246,"o":"m 82 956 l 328 956 q 533 916 472 956 q 609 785 593 876 q 625 478 625 693 q 609 171 625 263 q 533 40 593 79 q 328 0 472 0 l 82 0 l 82 956 m 324 143 q 424 160 397 143 q 458 240 450 176 q 467 478 467 303 q 458 715 467 651 q 424 796 450 779 q 324 813 397 813 l 240 813 l 240 143 l 324 143 m 729 0 l 729 135 l 1063 813 l 740 813 l 740 956 l 1243 956 l 1243 821 l 908 142 l 1246 142 l 1246 0 l 729 0 z "},"Ǆ":{"ha":1288,"x_min":82,"x_max":1246,"o":"m 82 956 l 328 956 q 533 916 472 956 q 609 785 593 876 q 625 478 625 693 q 609 171 625 263 q 533 40 593 79 q 328 0 472 0 l 82 0 l 82 956 m 324 143 q 424 160 397 143 q 458 240 450 176 q 467 478 467 303 q 458 715 467 651 q 424 796 450 779 q 324 813 397 813 l 240 813 l 240 143 l 324 143 m 729 0 l 729 135 l 1063 813 l 740 813 l 740 956 l 1243 956 l 1243 821 l 908 142 l 1246 142 l 1246 0 l 729 0 m 896 1047 l 790 1224 l 790 1233 l 896 1233 l 974 1124 l 1051 1233 l 1157 1233 l 1157 1224 l 1051 1047 l 896 1047 z "},"Ð":{"ha":689,"x_min":11,"x_max":625,"o":"m 82 414 l 11 414 l 11 553 l 82 553 l 82 956 l 328 956 q 533 916 472 956 q 609 785 593 876 q 625 478 625 693 q 609 171 625 263 q 533 40 593 79 q 328 0 472 0 l 82 0 l 82 414 m 324 143 q 424 160 397 143 q 458 240 450 176 q 467 478 467 303 q 458 715 467 651 q 424 796 450 779 q 324 813 397 813 l 240 813 l 240 553 l 342 553 l 342 414 l 240 414 l 240 143 l 324 143 z "},"Ď":{"ha":688,"x_min":82,"x_max":625,"o":"m 82 956 l 328 956 q 533 916 472 956 q 609 785 593 876 q 625 478 625 693 q 609 171 625 263 q 533 40 593 79 q 328 0 472 0 l 82 0 l 82 956 m 324 143 q 424 160 397 143 q 458 240 450 176 q 467 478 467 303 q 458 715 467 651 q 424 796 450 779 q 324 813 397 813 l 240 813 l 240 143 l 324 143 m 267 1047 l 161 1224 l 161 1233 l 267 1233 l 344 1124 l 422 1233 l 528 1233 l 528 1224 l 422 1047 l 267 1047 z "},"Đ":{"ha":689,"x_min":11,"x_max":625,"o":"m 82 414 l 11 414 l 11 553 l 82 553 l 82 956 l 328 956 q 533 916 472 956 q 609 785 593 876 q 625 478 625 693 q 609 171 625 263 q 533 40 593 79 q 328 0 472 0 l 82 0 l 82 414 m 324 143 q 424 160 397 143 q 458 240 450 176 q 467 478 467 303 q 458 715 467 651 q 424 796 450 779 q 324 813 397 813 l 240 813 l 240 553 l 342 553 l 342 414 l 240 414 l 240 143 l 324 143 z "},"Ḍ":{"ha":688,"x_min":82,"x_max":625,"o":"m 82 956 l 328 956 q 533 916 472 956 q 609 785 593 876 q 625 478 625 693 q 609 171 625 263 q 533 40 593 79 q 328 0 472 0 l 82 0 l 82 956 m 324 143 q 424 160 397 143 q 458 240 450 176 q 467 478 467 303 q 458 715 467 651 q 424 796 450 779 q 324 813 397 813 l 240 813 l 240 143 l 324 143 m 260 -251 l 260 -86 l 428 -86 l 428 -251 l 260 -251 z "},"ǲ":{"ha":1225,"x_min":82,"x_max":1178,"o":"m 82 956 l 328 956 q 533 916 472 956 q 609 785 593 876 q 625 478 625 693 q 609 171 625 263 q 533 40 593 79 q 328 0 472 0 l 82 0 l 82 956 m 324 143 q 424 160 397 143 q 458 240 450 176 q 467 478 467 303 q 458 715 467 651 q 424 796 450 779 q 324 813 397 813 l 240 813 l 240 143 l 324 143 m 735 0 l 735 121 l 999 579 l 744 579 l 744 708 l 1175 708 l 1175 589 l 910 129 l 1178 129 l 1178 0 l 735 0 z "},"ǅ":{"ha":1225,"x_min":82,"x_max":1178,"o":"m 82 956 l 328 956 q 533 916 472 956 q 609 785 593 876 q 625 478 625 693 q 609 171 625 263 q 533 40 593 79 q 328 0 472 0 l 82 0 l 82 956 m 324 143 q 424 160 397 143 q 458 240 450 176 q 467 478 467 303 q 458 715 467 651 q 424 796 450 779 q 324 813 397 813 l 240 813 l 240 143 l 324 143 m 735 0 l 735 121 l 999 579 l 744 579 l 744 708 l 1175 708 l 1175 589 l 910 129 l 1178 129 l 1178 0 l 735 0 m 888 846 l 782 1022 l 782 1032 l 888 1032 l 965 922 l 1043 1032 l 1149 1032 l 1149 1022 l 1043 846 l 888 846 z "},"E":{"ha":588,"x_min":82,"x_max":538,"o":"m 82 0 l 82 956 l 538 956 l 538 813 l 240 813 l 240 554 l 497 554 l 497 411 l 240 411 l 240 143 l 538 143 l 538 0 l 82 0 z "},"É":{"ha":588,"x_min":82,"x_max":538,"o":"m 82 0 l 82 956 l 538 956 l 538 813 l 240 813 l 240 554 l 497 554 l 497 411 l 240 411 l 240 143 l 538 143 l 538 0 l 82 0 m 254 1042 l 254 1049 l 328 1242 l 481 1242 l 481 1235 l 374 1042 l 254 1042 z "},"Ĕ":{"ha":588,"x_min":82,"x_max":538,"o":"m 82 0 l 82 956 l 538 956 l 538 813 l 240 813 l 240 554 l 497 554 l 497 411 l 240 411 l 240 143 l 538 143 l 538 0 l 82 0 m 482 1233 q 470 1130 482 1169 q 420 1067 458 1090 q 307 1043 382 1043 q 196 1066 233 1043 q 147 1129 158 1089 q 136 1233 136 1169 l 232 1233 q 235 1176 232 1194 q 255 1146 239 1157 q 307 1135 271 1135 q 360 1146 343 1135 q 381 1176 376 1157 q 385 1233 385 1196 l 482 1233 z "},"Ě":{"ha":588,"x_min":82,"x_max":538,"o":"m 82 0 l 82 956 l 538 956 l 538 813 l 240 813 l 240 554 l 497 554 l 497 411 l 240 411 l 240 143 l 538 143 l 538 0 l 82 0 m 232 1047 l 126 1224 l 126 1233 l 232 1233 l 310 1124 l 388 1233 l 493 1233 l 493 1224 l 388 1047 l 232 1047 z "},"Ê":{"ha":588,"x_min":82,"x_max":538,"o":"m 82 0 l 82 956 l 538 956 l 538 813 l 240 813 l 240 554 l 497 554 l 497 411 l 240 411 l 240 143 l 538 143 l 538 0 l 82 0 m 124 1042 l 124 1051 l 228 1226 l 385 1226 l 489 1051 l 489 1042 l 385 1042 l 306 1151 l 228 1042 l 124 1042 z "},"Ế":{"ha":588,"x_min":82,"x_max":571,"o":"m 82 0 l 82 956 l 538 956 l 538 813 l 240 813 l 240 554 l 497 554 l 497 411 l 240 411 l 240 143 l 538 143 l 538 0 l 82 0 m 129 1028 l 129 1038 l 233 1213 l 390 1213 l 494 1038 l 494 1028 l 390 1028 l 311 1138 l 233 1028 l 129 1028 m 344 1253 l 344 1260 l 418 1453 l 571 1453 l 571 1446 l 464 1253 l 344 1253 z "},"Ệ":{"ha":588,"x_min":82,"x_max":538,"o":"m 82 0 l 82 956 l 538 956 l 538 813 l 240 813 l 240 554 l 497 554 l 497 411 l 240 411 l 240 143 l 538 143 l 538 0 l 82 0 m 225 -251 l 225 -86 l 393 -86 l 393 -251 l 225 -251 m 126 1049 l 126 1058 l 231 1233 l 388 1233 l 492 1058 l 492 1049 l 388 1049 l 308 1158 l 231 1049 l 126 1049 z "},"Ề":{"ha":588,"x_min":82,"x_max":538,"o":"m 82 0 l 82 956 l 538 956 l 538 813 l 240 813 l 240 554 l 497 554 l 497 411 l 240 411 l 240 143 l 538 143 l 538 0 l 82 0 m 119 1004 l 119 1014 l 224 1189 l 381 1189 l 485 1014 l 485 1004 l 381 1004 l 301 1114 l 224 1004 l 119 1004 m 376 1229 l 271 1422 l 271 1429 l 424 1429 l 497 1236 l 497 1229 l 376 1229 z "},"Ể":{"ha":588,"x_min":82,"x_max":585,"o":"m 82 0 l 82 956 l 538 956 l 538 813 l 240 813 l 240 554 l 497 554 l 497 411 l 240 411 l 240 143 l 538 143 l 538 0 l 82 0 m 126 1006 l 126 1015 l 231 1190 l 388 1190 l 492 1015 l 492 1006 l 388 1006 l 308 1115 l 231 1006 l 126 1006 m 351 1243 q 364 1297 351 1282 q 410 1326 376 1311 l 429 1335 q 464 1356 454 1347 q 474 1378 474 1365 q 463 1397 474 1392 q 421 1403 453 1403 q 286 1394 354 1403 l 286 1494 q 421 1510 368 1510 q 544 1481 503 1510 q 585 1389 585 1453 q 572 1322 585 1347 q 522 1279 560 1297 l 496 1267 q 458 1244 464 1251 q 451 1218 451 1236 l 351 1218 l 351 1243 z "},"Ễ":{"ha":588,"x_min":82,"x_max":538,"o":"m 82 0 l 82 956 l 538 956 l 538 813 l 240 813 l 240 554 l 497 554 l 497 411 l 240 411 l 240 143 l 538 143 l 538 0 l 82 0 m 124 1006 l 124 1015 l 228 1190 l 385 1190 l 489 1015 l 489 1006 l 385 1006 l 306 1115 l 228 1006 l 124 1006 m 518 1431 q 513 1330 518 1364 q 486 1277 507 1296 q 421 1258 465 1258 q 365 1265 393 1258 q 299 1285 336 1272 q 266 1295 294 1286 q 218 1304 238 1304 q 195 1292 200 1304 q 190 1243 190 1279 l 100 1243 q 106 1344 100 1310 q 132 1397 111 1378 q 199 1415 153 1415 q 253 1409 226 1415 q 321 1389 279 1403 q 401 1371 378 1371 q 424 1382 419 1371 q 428 1431 428 1393 l 518 1431 z "},"Ȅ":{"ha":588,"x_min":75,"x_max":538,"o":"m 82 0 l 82 956 l 538 956 l 538 813 l 240 813 l 240 554 l 497 554 l 497 411 l 240 411 l 240 143 l 538 143 l 538 0 l 82 0 m 267 1047 l 167 1047 l 75 1214 l 75 1219 l 203 1219 l 267 1053 l 267 1047 m 465 1047 l 365 1047 l 274 1214 l 274 1219 l 400 1219 l 465 1053 l 465 1047 z "},"Ë":{"ha":588,"x_min":82,"x_max":538,"o":"m 82 0 l 82 956 l 538 956 l 538 813 l 240 813 l 240 554 l 497 554 l 497 411 l 240 411 l 240 143 l 538 143 l 538 0 l 82 0 m 119 1083 l 119 1215 l 254 1215 l 254 1083 l 119 1083 m 363 1083 l 363 1215 l 496 1215 l 496 1083 l 363 1083 z "},"Ė":{"ha":588,"x_min":82,"x_max":538,"o":"m 82 0 l 82 956 l 538 956 l 538 813 l 240 813 l 240 554 l 497 554 l 497 411 l 240 411 l 240 143 l 538 143 l 538 0 l 82 0 m 242 1083 l 242 1215 l 375 1215 l 375 1083 l 242 1083 z "},"Ẹ":{"ha":588,"x_min":82,"x_max":538,"o":"m 82 0 l 82 956 l 538 956 l 538 813 l 240 813 l 240 554 l 497 554 l 497 411 l 240 411 l 240 143 l 538 143 l 538 0 l 82 0 m 225 -251 l 225 -86 l 393 -86 l 393 -251 l 225 -251 z "},"È":{"ha":588,"x_min":82,"x_max":538,"o":"m 82 0 l 82 956 l 538 956 l 538 813 l 240 813 l 240 554 l 497 554 l 497 411 l 240 411 l 240 143 l 538 143 l 538 0 l 82 0 m 265 1042 l 160 1235 l 160 1242 l 313 1242 l 386 1049 l 386 1042 l 265 1042 z "},"Ẻ":{"ha":588,"x_min":82,"x_max":538,"o":"m 82 0 l 82 956 l 538 956 l 538 813 l 240 813 l 240 554 l 497 554 l 497 411 l 240 411 l 240 143 l 538 143 l 538 0 l 82 0 m 225 1028 q 237 1080 225 1065 q 283 1111 249 1094 l 303 1119 q 338 1141 328 1132 q 347 1163 347 1150 q 337 1181 347 1176 q 294 1186 326 1186 q 160 1179 217 1186 l 160 1279 q 294 1294 242 1294 q 417 1266 376 1294 q 458 1172 458 1238 q 446 1106 458 1131 q 396 1064 433 1082 l 369 1050 q 331 1028 338 1035 q 325 1001 325 1021 l 225 1001 l 225 1028 z "},"Ȇ":{"ha":588,"x_min":82,"x_max":538,"o":"m 82 0 l 82 956 l 538 956 l 538 813 l 240 813 l 240 554 l 497 554 l 497 411 l 240 411 l 240 143 l 538 143 l 538 0 l 82 0 m 136 1051 q 148 1155 136 1115 q 198 1218 160 1194 q 311 1242 236 1242 q 422 1219 385 1242 q 471 1156 460 1196 q 482 1051 482 1115 l 386 1051 q 383 1109 386 1090 q 363 1139 379 1128 q 311 1150 347 1150 q 258 1139 275 1150 q 238 1108 242 1128 q 233 1051 233 1089 l 136 1051 z "},"Ē":{"ha":588,"x_min":82,"x_max":538,"o":"m 82 0 l 82 956 l 538 956 l 538 813 l 240 813 l 240 554 l 497 554 l 497 411 l 240 411 l 240 143 l 538 143 l 538 0 l 82 0 m 171 1094 l 171 1233 l 447 1233 l 447 1094 l 171 1094 z "},"Ę":{"ha":588,"x_min":82,"x_max":538,"o":"m 467 -272 q 364 -241 396 -272 q 332 -162 332 -210 q 419 0 332 -82 l 82 0 l 82 956 l 538 956 l 538 813 l 240 813 l 240 554 l 497 554 l 497 411 l 240 411 l 240 143 l 538 143 l 538 0 q 479 -60 506 -22 q 453 -132 453 -97 q 467 -168 453 -154 q 508 -182 481 -182 q 529 -181 522 -182 l 529 -268 q 467 -272 493 -272 z "},"Ẽ":{"ha":588,"x_min":82,"x_max":538,"o":"m 82 0 l 82 956 l 538 956 l 538 813 l 240 813 l 240 554 l 497 554 l 497 411 l 240 411 l 240 143 l 538 143 l 538 0 l 82 0 m 518 1233 q 513 1133 518 1167 q 486 1080 507 1099 q 421 1061 465 1061 q 365 1068 393 1061 q 299 1088 336 1075 q 266 1098 294 1089 q 218 1107 238 1107 q 195 1094 200 1107 q 190 1046 190 1082 l 100 1046 q 106 1147 100 1113 q 132 1199 111 1181 q 199 1218 153 1218 q 253 1212 226 1218 q 321 1192 279 1206 q 401 1174 378 1174 q 424 1185 419 1174 q 428 1233 428 1196 l 518 1233 z "},"F":{"ha":549,"x_min":82,"x_max":515,"o":"m 82 0 l 82 956 l 515 956 l 515 813 l 240 813 l 240 532 l 485 532 l 485 389 l 240 389 l 240 0 l 82 0 z "},"G":{"ha":674,"x_min":63,"x_max":601,"o":"m 346 401 l 346 543 l 601 543 l 601 17 q 491 -3 557 4 q 365 -11 425 -11 q 173 28 236 -11 q 86 169 110 68 q 63 478 63 271 q 88 786 63 685 q 178 927 113 888 q 376 967 243 967 q 492 959 429 967 q 599 939 554 951 l 599 806 q 503 818 554 813 q 426 824 453 824 q 288 806 326 824 q 235 720 250 789 q 221 478 221 651 q 231 247 221 317 q 269 153 240 178 q 367 128 299 128 q 449 135 404 128 l 449 401 l 346 401 z "},"Ǵ":{"ha":674,"x_min":63,"x_max":601,"o":"m 346 401 l 346 543 l 601 543 l 601 17 q 491 -3 557 4 q 365 -11 425 -11 q 173 28 236 -11 q 86 169 110 68 q 63 478 63 271 q 88 786 63 685 q 178 927 113 888 q 376 967 243 967 q 492 959 429 967 q 599 939 554 951 l 599 806 q 503 818 554 813 q 426 824 453 824 q 288 806 326 824 q 235 720 250 789 q 221 478 221 651 q 231 247 221 317 q 269 153 240 178 q 367 128 299 128 q 449 135 404 128 l 449 401 l 346 401 m 261 1033 l 261 1040 l 335 1233 l 488 1233 l 488 1226 l 381 1033 l 261 1033 z "},"Ğ":{"ha":674,"x_min":63,"x_max":601,"o":"m 346 401 l 346 543 l 601 543 l 601 17 q 491 -3 557 4 q 365 -11 425 -11 q 173 28 236 -11 q 86 169 110 68 q 63 478 63 271 q 88 786 63 685 q 178 927 113 888 q 376 967 243 967 q 492 959 429 967 q 599 939 554 951 l 599 806 q 503 818 554 813 q 426 824 453 824 q 288 806 326 824 q 235 720 250 789 q 221 478 221 651 q 231 247 221 317 q 269 153 240 178 q 367 128 299 128 q 449 135 404 128 l 449 401 l 346 401 m 510 1233 q 498 1130 510 1169 q 448 1067 486 1090 q 335 1043 410 1043 q 224 1066 261 1043 q 175 1129 186 1089 q 164 1233 164 1169 l 260 1233 q 263 1176 260 1194 q 283 1146 267 1157 q 335 1135 299 1135 q 388 1146 371 1135 q 408 1176 404 1157 q 413 1233 413 1196 l 510 1233 z "},"Ǧ":{"ha":674,"x_min":63,"x_max":601,"o":"m 346 401 l 346 543 l 601 543 l 601 17 q 491 -3 557 4 q 365 -11 425 -11 q 173 28 236 -11 q 86 169 110 68 q 63 478 63 271 q 88 786 63 685 q 178 927 113 888 q 376 967 243 967 q 492 959 429 967 q 599 939 554 951 l 599 806 q 503 818 554 813 q 426 824 453 824 q 288 806 326 824 q 235 720 250 789 q 221 478 221 651 q 231 247 221 317 q 269 153 240 178 q 367 128 299 128 q 449 135 404 128 l 449 401 l 346 401 m 260 1047 l 154 1224 l 154 1233 l 260 1233 l 338 1124 l 415 1233 l 521 1233 l 521 1224 l 415 1047 l 260 1047 z "},"Ĝ":{"ha":674,"x_min":63,"x_max":601,"o":"m 346 401 l 346 543 l 601 543 l 601 17 q 491 -3 557 4 q 365 -11 425 -11 q 173 28 236 -11 q 86 169 110 68 q 63 478 63 271 q 88 786 63 685 q 178 927 113 888 q 376 967 243 967 q 492 959 429 967 q 599 939 554 951 l 599 806 q 503 818 554 813 q 426 824 453 824 q 288 806 326 824 q 235 720 250 789 q 221 478 221 651 q 231 247 221 317 q 269 153 240 178 q 367 128 299 128 q 449 135 404 128 l 449 401 l 346 401 m 154 1049 l 154 1058 l 258 1233 l 415 1233 l 519 1058 l 519 1049 l 415 1049 l 336 1158 l 258 1049 l 154 1049 z "},"Ģ":{"ha":674,"x_min":63,"x_max":601,"o":"m 346 401 l 346 543 l 601 543 l 601 17 q 491 -3 557 4 q 365 -11 425 -11 q 173 28 236 -11 q 86 169 110 68 q 63 478 63 271 q 88 786 63 685 q 178 927 113 888 q 376 967 243 967 q 492 959 429 967 q 599 939 554 951 l 599 806 q 503 818 554 813 q 426 824 453 824 q 288 806 326 824 q 235 720 250 789 q 221 478 221 651 q 231 247 221 317 q 269 153 240 178 q 367 128 299 128 q 449 135 404 128 l 449 401 l 346 401 m 253 -331 q 312 -317 297 -331 q 326 -260 326 -303 l 326 -237 l 264 -237 l 264 -86 l 424 -86 l 424 -199 q 413 -325 424 -285 q 365 -383 401 -365 q 253 -400 329 -400 l 253 -331 z "},"Ġ":{"ha":674,"x_min":63,"x_max":601,"o":"m 346 401 l 346 543 l 601 543 l 601 17 q 491 -3 557 4 q 365 -11 425 -11 q 173 28 236 -11 q 86 169 110 68 q 63 478 63 271 q 88 786 63 685 q 178 927 113 888 q 376 967 243 967 q 492 959 429 967 q 599 939 554 951 l 599 806 q 503 818 554 813 q 426 824 453 824 q 288 806 326 824 q 235 720 250 789 q 221 478 221 651 q 231 247 221 317 q 269 153 240 178 q 367 128 299 128 q 449 135 404 128 l 449 401 l 346 401 m 269 1083 l 269 1215 l 403 1215 l 403 1083 l 269 1083 z "},"H":{"ha":724,"x_min":82,"x_max":643,"o":"m 485 0 l 485 407 l 240 407 l 240 0 l 82 0 l 82 956 l 240 956 l 240 556 l 485 556 l 485 956 l 643 956 l 643 0 l 485 0 z "},"Ħ":{"ha":724,"x_min":82,"x_max":643,"o":"m 485 956 l 643 956 l 643 0 l 485 0 l 485 351 l 240 351 l 240 0 l 82 0 l 82 956 l 240 956 l 240 796 l 485 796 l 485 956 m 240 501 l 485 501 l 485 657 l 240 657 l 240 501 z "},"Ĥ":{"ha":724,"x_min":82,"x_max":643,"o":"m 485 0 l 485 407 l 240 407 l 240 0 l 82 0 l 82 956 l 240 956 l 240 556 l 485 556 l 485 956 l 643 956 l 643 0 l 485 0 m 179 1049 l 179 1058 l 283 1233 l 440 1233 l 544 1058 l 544 1049 l 440 1049 l 361 1158 l 283 1049 l 179 1049 z "},"Ḥ":{"ha":724,"x_min":82,"x_max":643,"o":"m 485 0 l 485 407 l 240 407 l 240 0 l 82 0 l 82 956 l 240 956 l 240 556 l 485 556 l 485 956 l 643 956 l 643 0 l 485 0 m 278 -251 l 278 -86 l 446 -86 l 446 -251 l 278 -251 z "},"I":{"ha":326,"x_min":83,"x_max":243,"o":"m 83 0 l 83 956 l 243 956 l 243 0 l 83 0 z "},"Ĳ":{"ha":715,"x_min":83,"x_max":639,"o":"m 83 0 l 83 956 l 243 956 l 243 0 l 83 0 m 344 135 q 442 147 417 136 q 474 194 468 158 q 481 335 481 231 l 481 956 l 639 956 l 639 404 q 624 120 639 196 q 553 23 608 44 q 344 0 497 1 l 344 135 z "},"Í":{"ha":326,"x_min":83,"x_max":314,"o":"m 83 0 l 83 956 l 243 956 l 243 0 l 83 0 m 88 1042 l 88 1049 l 161 1242 l 314 1242 l 314 1235 l 207 1042 l 88 1042 z "},"Ĭ":{"ha":326,"x_min":-10,"x_max":336,"o":"m 83 0 l 83 956 l 243 956 l 243 0 l 83 0 m 336 1233 q 324 1130 336 1169 q 274 1067 313 1090 q 161 1043 236 1043 q 50 1066 88 1043 q 1 1129 13 1089 q -10 1233 -10 1169 l 86 1233 q 90 1176 86 1194 q 109 1146 93 1157 q 161 1135 125 1135 q 214 1146 197 1135 q 235 1176 231 1157 q 239 1233 239 1196 l 336 1233 z "},"Ǐ":{"ha":326,"x_min":-19,"x_max":347,"o":"m 83 0 l 83 956 l 243 956 l 243 0 l 83 0 m 86 1047 l -19 1224 l -19 1233 l 86 1233 l 164 1124 l 242 1233 l 347 1233 l 347 1224 l 242 1047 l 86 1047 z "},"Î":{"ha":326,"x_min":-19,"x_max":346,"o":"m 83 0 l 83 956 l 243 956 l 243 0 l 83 0 m -19 1042 l -19 1051 l 85 1226 l 242 1226 l 346 1051 l 346 1042 l 242 1042 l 163 1151 l 85 1042 l -19 1042 z "},"Ȉ":{"ha":326,"x_min":-71,"x_max":319,"o":"m 83 0 l 83 956 l 243 956 l 243 0 l 83 0 m 121 1047 l 21 1047 l -71 1214 l -71 1219 l 57 1219 l 121 1053 l 121 1047 m 319 1047 l 219 1047 l 128 1214 l 128 1219 l 254 1219 l 319 1053 l 319 1047 z "},"Ï":{"ha":326,"x_min":-25,"x_max":351,"o":"m 83 0 l 83 956 l 243 956 l 243 0 l 83 0 m -25 1083 l -25 1215 l 110 1215 l 110 1083 l -25 1083 m 218 1083 l 218 1215 l 351 1215 l 351 1083 l 218 1083 z "},"İ":{"ha":326,"x_min":83,"x_max":243,"o":"m 83 0 l 83 956 l 243 956 l 243 0 l 83 0 m 96 1083 l 96 1215 l 229 1215 l 229 1083 l 96 1083 z "},"Ị":{"ha":326,"x_min":79,"x_max":247,"o":"m 83 0 l 83 956 l 243 956 l 243 0 l 83 0 m 79 -251 l 79 -86 l 247 -86 l 247 -251 l 79 -251 z "},"Ì":{"ha":326,"x_min":15,"x_max":243,"o":"m 83 0 l 83 956 l 243 956 l 243 0 l 83 0 m 121 1042 l 15 1235 l 15 1242 l 168 1242 l 242 1049 l 242 1042 l 121 1042 z "},"Ỉ":{"ha":326,"x_min":14,"x_max":313,"o":"m 83 0 l 83 956 l 243 956 l 243 0 l 83 0 m 79 1028 q 91 1080 79 1065 q 138 1111 103 1094 l 157 1119 q 192 1141 182 1132 q 201 1163 201 1150 q 191 1181 201 1176 q 149 1186 181 1186 q 14 1179 71 1186 l 14 1279 q 149 1294 96 1294 q 272 1266 231 1294 q 313 1172 313 1238 q 300 1106 313 1131 q 250 1064 288 1082 l 224 1050 q 185 1028 192 1035 q 179 1001 179 1021 l 79 1001 l 79 1028 z "},"Ȋ":{"ha":326,"x_min":-10,"x_max":336,"o":"m 83 0 l 83 956 l 243 956 l 243 0 l 83 0 m -10 1051 q 2 1155 -10 1115 q 52 1218 14 1194 q 165 1242 90 1242 q 276 1219 239 1242 q 325 1156 314 1196 q 336 1051 336 1115 l 240 1051 q 237 1109 240 1090 q 217 1139 233 1128 q 165 1150 201 1150 q 113 1139 129 1150 q 92 1108 96 1128 q 88 1051 88 1089 l -10 1051 z "},"Ī":{"ha":326,"x_min":25,"x_max":301,"o":"m 83 0 l 83 956 l 243 956 l 243 0 l 83 0 m 25 1094 l 25 1233 l 301 1233 l 301 1094 l 25 1094 z "},"Į":{"ha":326,"x_min":47,"x_max":244,"o":"m 179 -272 q 47 -157 47 -272 q 69 -78 47 -119 q 125 0 90 -36 l 83 0 l 83 956 l 243 956 l 243 0 q 192 -58 215 -21 q 168 -128 168 -96 q 181 -167 168 -153 q 225 -182 193 -182 q 244 -181 238 -182 l 244 -268 q 179 -272 207 -272 z "},"Ĩ":{"ha":326,"x_min":-46,"x_max":372,"o":"m 83 0 l 83 956 l 243 956 l 243 0 l 83 0 m 372 1233 q 367 1133 372 1167 q 340 1080 361 1099 q 275 1061 319 1061 q 219 1068 247 1061 q 153 1088 190 1075 q 120 1098 149 1089 q 72 1107 92 1107 q 49 1094 54 1107 q 44 1046 44 1082 l -46 1046 q -40 1147 -46 1113 q -14 1199 -35 1181 q 53 1218 7 1218 q 107 1212 81 1218 q 175 1192 133 1206 q 256 1174 232 1174 q 278 1185 274 1174 q 282 1233 282 1196 l 372 1233 z "},"J":{"ha":389,"x_min":18,"x_max":313,"o":"m 18 135 q 116 147 90 136 q 148 194 142 158 q 154 335 154 231 l 154 956 l 313 956 l 313 404 q 297 120 313 196 q 226 23 282 44 q 18 0 171 1 l 18 135 z "},"Ĵ":{"ha":389,"x_min":18,"x_max":415,"o":"m 18 135 q 116 147 90 136 q 148 194 142 158 q 154 335 154 231 l 154 956 l 313 956 l 313 404 q 297 120 313 196 q 226 23 282 44 q 18 0 171 1 l 18 135 m 50 1049 l 50 1058 l 154 1233 l 311 1233 l 415 1058 l 415 1049 l 311 1049 l 232 1158 l 154 1049 l 50 1049 z "},"K":{"ha":675,"x_min":82,"x_max":658,"o":"m 486 0 l 314 413 l 240 413 l 240 0 l 82 0 l 82 956 l 240 956 l 240 556 l 314 556 l 492 956 l 654 956 l 444 499 l 658 0 l 486 0 z "},"Ķ":{"ha":675,"x_min":82,"x_max":658,"o":"m 486 0 l 314 413 l 240 413 l 240 0 l 82 0 l 82 956 l 240 956 l 240 556 l 314 556 l 492 956 l 654 956 l 444 499 l 658 0 l 486 0 m 253 -331 q 312 -317 297 -331 q 326 -260 326 -303 l 326 -237 l 264 -237 l 264 -86 l 424 -86 l 424 -199 q 413 -325 424 -285 q 365 -383 401 -365 q 253 -400 329 -400 l 253 -331 z "},"L":{"ha":525,"x_min":82,"x_max":504,"o":"m 82 0 l 82 956 l 240 956 l 240 147 l 504 147 l 504 0 l 82 0 z "},"Ǉ":{"ha":914,"x_min":82,"x_max":838,"o":"m 82 0 l 82 956 l 240 956 l 240 147 l 504 147 l 504 0 l 82 0 m 543 135 q 641 147 615 136 q 673 194 667 158 q 679 335 679 231 l 679 956 l 838 956 l 838 404 q 822 120 838 196 q 751 23 807 44 q 543 0 696 1 l 543 135 z "},"Ĺ":{"ha":525,"x_min":82,"x_max":504,"o":"m 82 0 l 82 956 l 240 956 l 240 147 l 504 147 l 504 0 l 82 0 m 85 1033 l 85 1040 l 158 1233 l 311 1233 l 311 1226 l 204 1033 l 85 1033 z "},"Ľ":{"ha":525,"x_min":82,"x_max":525,"o":"m 82 0 l 82 956 l 240 956 l 240 147 l 504 147 l 504 0 l 82 0 m 357 601 l 381 871 l 381 956 l 525 956 l 525 871 l 465 601 l 357 601 z "},"Ļ":{"ha":525,"x_min":82,"x_max":504,"o":"m 82 0 l 82 956 l 240 956 l 240 147 l 504 147 l 504 0 l 82 0 m 194 -331 q 253 -317 239 -331 q 268 -260 268 -303 l 268 -237 l 206 -237 l 206 -86 l 365 -86 l 365 -199 q 354 -325 365 -285 q 307 -383 343 -365 q 194 -400 271 -400 l 194 -331 z "},"Ŀ":{"ha":532,"x_min":82,"x_max":531,"o":"m 82 0 l 82 956 l 240 956 l 240 147 l 504 147 l 504 0 l 82 0 m 363 407 l 363 572 l 531 572 l 531 407 l 363 407 z "},"ǈ":{"ha":822,"x_min":82,"x_max":750,"o":"m 82 0 l 82 956 l 240 956 l 240 147 l 504 147 l 504 0 l 82 0 m 597 879 l 597 1032 l 750 1032 l 750 879 l 597 879 m 511 -149 q 570 -142 551 -149 q 594 -120 589 -135 q 599 -76 599 -106 l 599 708 l 749 708 l 749 -18 q 728 -185 749 -133 q 661 -253 708 -237 q 511 -268 614 -268 l 511 -149 z "},"Ł":{"ha":525,"x_min":19,"x_max":504,"o":"m 240 147 l 504 147 l 504 0 l 82 0 l 82 369 l 19 346 l 19 478 l 82 501 l 82 956 l 240 956 l 240 561 l 403 622 l 403 489 l 240 428 l 240 147 z "},"M":{"ha":958,"x_min":82,"x_max":876,"o":"m 722 0 l 722 729 l 715 729 l 554 0 l 400 0 l 240 729 l 232 729 l 232 0 l 82 0 l 82 956 l 325 956 l 476 254 l 485 254 l 636 956 l 876 956 l 876 0 l 722 0 z "},"N":{"ha":728,"x_min":82,"x_max":646,"o":"m 499 0 l 240 590 l 235 590 l 235 0 l 82 0 l 82 956 l 240 956 l 488 394 l 493 394 l 493 956 l 646 956 l 646 0 l 499 0 z "},"Ǌ":{"ha":1117,"x_min":82,"x_max":1040,"o":"m 499 0 l 240 590 l 235 590 l 235 0 l 82 0 l 82 956 l 240 956 l 488 394 l 493 394 l 493 956 l 646 956 l 646 0 l 499 0 m 746 135 q 844 147 818 136 q 876 194 869 158 q 882 335 882 231 l 882 956 l 1040 956 l 1040 404 q 1025 120 1040 196 q 954 23 1010 44 q 746 0 899 1 l 746 135 z "},"Ń":{"ha":728,"x_min":82,"x_max":646,"o":"m 499 0 l 240 590 l 235 590 l 235 0 l 82 0 l 82 956 l 240 956 l 488 394 l 493 394 l 493 956 l 646 956 l 646 0 l 499 0 m 288 1033 l 288 1040 l 361 1233 l 514 1233 l 514 1226 l 407 1033 l 288 1033 z "},"Ň":{"ha":728,"x_min":82,"x_max":646,"o":"m 499 0 l 240 590 l 235 590 l 235 0 l 82 0 l 82 956 l 240 956 l 488 394 l 493 394 l 493 956 l 646 956 l 646 0 l 499 0 m 286 1047 l 181 1224 l 181 1233 l 286 1233 l 364 1124 l 442 1233 l 547 1233 l 547 1224 l 442 1047 l 286 1047 z "},"Ņ":{"ha":728,"x_min":82,"x_max":646,"o":"m 499 0 l 240 590 l 235 590 l 235 0 l 82 0 l 82 956 l 240 956 l 488 394 l 493 394 l 493 956 l 646 956 l 646 0 l 499 0 m 279 -331 q 338 -317 324 -331 q 353 -260 353 -303 l 353 -237 l 290 -237 l 290 -86 l 450 -86 l 450 -199 q 439 -325 450 -285 q 392 -383 428 -365 q 279 -400 356 -400 l 279 -331 z "},"Ṅ":{"ha":728,"x_min":82,"x_max":646,"o":"m 499 0 l 240 590 l 235 590 l 235 0 l 82 0 l 82 956 l 240 956 l 488 394 l 493 394 l 493 956 l 646 956 l 646 0 l 499 0 m 296 1083 l 296 1215 l 429 1215 l 429 1083 l 296 1083 z "},"Ŋ":{"ha":728,"x_min":82,"x_max":646,"o":"m 646 956 l 646 -22 q 626 -187 646 -136 q 558 -253 606 -237 q 406 -268 510 -268 l 406 -149 q 465 -142 446 -149 q 488 -121 483 -135 q 493 -76 493 -107 l 493 14 l 240 590 l 235 590 l 235 0 l 82 0 l 82 956 l 240 956 l 488 394 l 493 394 l 493 956 l 646 956 z "},"Ɲ":{"ha":728,"x_min":-7,"x_max":646,"o":"m 646 956 l 646 0 l 499 0 l 240 590 l 235 590 l 235 -18 q 215 -186 235 -135 q 147 -253 194 -237 q -7 -268 99 -268 l -7 -149 q 53 -142 35 -149 q 76 -120 71 -135 q 82 -76 82 -106 l 82 956 l 240 956 l 488 394 l 493 394 l 493 956 l 646 956 z "},"ǋ":{"ha":1025,"x_min":82,"x_max":953,"o":"m 499 0 l 240 590 l 235 590 l 235 0 l 82 0 l 82 956 l 240 956 l 488 394 l 493 394 l 493 956 l 646 956 l 646 0 l 499 0 m 800 879 l 800 1032 l 953 1032 l 953 879 l 800 879 m 714 -149 q 773 -142 754 -149 q 797 -120 792 -135 q 801 -76 801 -106 l 801 708 l 951 708 l 951 -18 q 931 -185 951 -133 q 864 -253 911 -237 q 714 -268 817 -268 l 714 -149 z "},"Ñ":{"ha":728,"x_min":82,"x_max":646,"o":"m 499 0 l 240 590 l 235 590 l 235 0 l 82 0 l 82 956 l 240 956 l 488 394 l 493 394 l 493 956 l 646 956 l 646 0 l 499 0 m 572 1229 q 567 1128 572 1163 q 540 1076 561 1094 q 475 1057 519 1057 q 419 1064 447 1057 q 353 1083 390 1071 q 320 1094 349 1085 q 272 1103 292 1103 q 249 1090 254 1103 q 244 1042 244 1078 l 154 1042 q 160 1142 154 1108 q 186 1195 165 1176 q 253 1214 207 1214 q 307 1208 281 1214 q 375 1188 333 1201 q 456 1169 432 1169 q 478 1181 474 1169 q 482 1229 482 1192 l 572 1229 z "},"O":{"ha":707,"x_min":63,"x_max":644,"o":"m 353 -11 q 153 30 213 -11 q 78 165 93 71 q 63 478 63 258 q 78 791 63 697 q 153 926 93 885 q 353 967 213 967 q 553 926 493 967 q 628 790 613 885 q 644 478 644 696 q 628 165 644 260 q 553 30 613 71 q 353 -11 493 -11 m 353 132 q 446 149 421 132 q 478 233 471 167 q 486 478 486 299 q 478 723 486 657 q 446 806 471 789 q 353 824 421 824 q 260 806 285 824 q 228 724 236 789 q 221 478 221 658 q 228 232 221 297 q 260 149 236 167 q 353 132 285 132 z "},"Ó":{"ha":707,"x_min":63,"x_max":644,"o":"m 353 -11 q 153 30 213 -11 q 78 165 93 71 q 63 478 63 258 q 78 791 63 697 q 153 926 93 885 q 353 967 213 967 q 553 926 493 967 q 628 790 613 885 q 644 478 644 696 q 628 165 644 260 q 553 30 613 71 q 353 -11 493 -11 m 353 132 q 446 149 421 132 q 478 233 471 167 q 486 478 486 299 q 478 723 486 657 q 446 806 471 789 q 353 824 421 824 q 260 806 285 824 q 228 724 236 789 q 221 478 221 658 q 228 232 221 297 q 260 149 236 167 q 353 132 285 132 m 281 1042 l 281 1049 l 354 1242 l 507 1242 l 507 1235 l 400 1042 l 281 1042 z "},"Ŏ":{"ha":707,"x_min":63,"x_max":644,"o":"m 353 -11 q 153 30 213 -11 q 78 165 93 71 q 63 478 63 258 q 78 791 63 697 q 153 926 93 885 q 353 967 213 967 q 553 926 493 967 q 628 790 613 885 q 644 478 644 696 q 628 165 644 260 q 553 30 613 71 q 353 -11 493 -11 m 353 132 q 446 149 421 132 q 478 233 471 167 q 486 478 486 299 q 478 723 486 657 q 446 806 471 789 q 353 824 421 824 q 260 806 285 824 q 228 724 236 789 q 221 478 221 658 q 228 232 221 297 q 260 149 236 167 q 353 132 285 132 m 526 1233 q 515 1130 526 1169 q 465 1067 503 1090 q 351 1043 426 1043 q 240 1066 278 1043 q 192 1129 203 1089 q 181 1233 181 1169 l 276 1233 q 280 1176 276 1194 q 299 1146 283 1157 q 351 1135 315 1135 q 404 1146 388 1135 q 425 1176 421 1157 q 429 1233 429 1196 l 526 1233 z "},"Ǒ":{"ha":707,"x_min":63,"x_max":644,"o":"m 353 -11 q 153 30 213 -11 q 78 165 93 71 q 63 478 63 258 q 78 791 63 697 q 153 926 93 885 q 353 967 213 967 q 553 926 493 967 q 628 790 613 885 q 644 478 644 696 q 628 165 644 260 q 553 30 613 71 q 353 -11 493 -11 m 353 132 q 446 149 421 132 q 478 233 471 167 q 486 478 486 299 q 478 723 486 657 q 446 806 471 789 q 353 824 421 824 q 260 806 285 824 q 228 724 236 789 q 221 478 221 658 q 228 232 221 297 q 260 149 236 167 q 353 132 285 132 m 276 1047 l 171 1224 l 171 1233 l 276 1233 l 354 1124 l 432 1233 l 538 1233 l 538 1224 l 432 1047 l 276 1047 z "},"Ô":{"ha":707,"x_min":63,"x_max":644,"o":"m 353 -11 q 153 30 213 -11 q 78 165 93 71 q 63 478 63 258 q 78 791 63 697 q 153 926 93 885 q 353 967 213 967 q 553 926 493 967 q 628 790 613 885 q 644 478 644 696 q 628 165 644 260 q 553 30 613 71 q 353 -11 493 -11 m 353 132 q 446 149 421 132 q 478 233 471 167 q 486 478 486 299 q 478 723 486 657 q 446 806 471 789 q 353 824 421 824 q 260 806 285 824 q 228 724 236 789 q 221 478 221 658 q 228 232 221 297 q 260 149 236 167 q 353 132 285 132 m 169 1042 l 169 1051 l 274 1226 l 431 1226 l 535 1051 l 535 1042 l 431 1042 l 351 1151 l 274 1042 l 169 1042 z "},"Ố":{"ha":707,"x_min":63,"x_max":644,"o":"m 353 -11 q 153 30 213 -11 q 78 165 93 71 q 63 478 63 258 q 78 791 63 697 q 153 926 93 885 q 353 967 213 967 q 553 926 493 967 q 628 790 613 885 q 644 478 644 696 q 628 165 644 260 q 553 30 613 71 q 353 -11 493 -11 m 353 132 q 446 149 421 132 q 478 233 471 167 q 486 478 486 299 q 478 723 486 657 q 446 806 471 789 q 353 824 421 824 q 260 806 285 824 q 228 724 236 789 q 221 478 221 658 q 228 232 221 297 q 260 149 236 167 q 353 132 285 132 m 174 1028 l 174 1038 l 278 1213 l 435 1213 l 539 1038 l 539 1028 l 435 1028 l 356 1138 l 278 1028 l 174 1028 m 389 1253 l 389 1260 l 463 1453 l 615 1453 l 615 1446 l 508 1253 l 389 1253 z "},"Ộ":{"ha":707,"x_min":63,"x_max":644,"o":"m 353 -11 q 153 30 213 -11 q 78 165 93 71 q 63 478 63 258 q 78 791 63 697 q 153 926 93 885 q 353 967 213 967 q 553 926 493 967 q 628 790 613 885 q 644 478 644 696 q 628 165 644 260 q 553 30 613 71 q 353 -11 493 -11 m 353 132 q 446 149 421 132 q 478 233 471 167 q 486 478 486 299 q 478 723 486 657 q 446 806 471 789 q 353 824 421 824 q 260 806 285 824 q 228 724 236 789 q 221 478 221 658 q 228 232 221 297 q 260 149 236 167 q 353 132 285 132 m 269 -251 l 269 -86 l 438 -86 l 438 -251 l 269 -251 m 171 1049 l 171 1058 l 275 1233 l 432 1233 l 536 1058 l 536 1049 l 432 1049 l 353 1158 l 275 1049 l 171 1049 z "},"Ồ":{"ha":707,"x_min":63,"x_max":644,"o":"m 353 -11 q 153 30 213 -11 q 78 165 93 71 q 63 478 63 258 q 78 791 63 697 q 153 926 93 885 q 353 967 213 967 q 553 926 493 967 q 628 790 613 885 q 644 478 644 696 q 628 165 644 260 q 553 30 613 71 q 353 -11 493 -11 m 353 132 q 446 149 421 132 q 478 233 471 167 q 486 478 486 299 q 478 723 486 657 q 446 806 471 789 q 353 824 421 824 q 260 806 285 824 q 228 724 236 789 q 221 478 221 658 q 228 232 221 297 q 260 149 236 167 q 353 132 285 132 m 164 1004 l 164 1014 l 268 1189 l 425 1189 l 529 1014 l 529 1004 l 425 1004 l 346 1114 l 268 1004 l 164 1004 m 421 1229 l 315 1422 l 315 1429 l 468 1429 l 542 1236 l 542 1229 l 421 1229 z "},"Ổ":{"ha":707,"x_min":63,"x_max":644,"o":"m 353 -11 q 153 30 213 -11 q 78 165 93 71 q 63 478 63 258 q 78 791 63 697 q 153 926 93 885 q 353 967 213 967 q 553 926 493 967 q 628 790 613 885 q 644 478 644 696 q 628 165 644 260 q 553 30 613 71 q 353 -11 493 -11 m 353 132 q 446 149 421 132 q 478 233 471 167 q 486 478 486 299 q 478 723 486 657 q 446 806 471 789 q 353 824 421 824 q 260 806 285 824 q 228 724 236 789 q 221 478 221 658 q 228 232 221 297 q 260 149 236 167 q 353 132 285 132 m 171 1006 l 171 1015 l 275 1190 l 432 1190 l 536 1015 l 536 1006 l 432 1006 l 353 1115 l 275 1006 l 171 1006 m 396 1243 q 408 1297 396 1282 q 454 1326 421 1311 l 474 1335 q 508 1356 499 1347 q 518 1378 518 1365 q 508 1397 518 1392 q 465 1403 497 1403 q 331 1394 399 1403 l 331 1494 q 465 1510 413 1510 q 588 1481 547 1510 q 629 1389 629 1453 q 617 1322 629 1347 q 567 1279 604 1297 l 540 1267 q 502 1244 508 1251 q 496 1218 496 1236 l 396 1218 l 396 1243 z "},"Ỗ":{"ha":707,"x_min":63,"x_max":644,"o":"m 353 -11 q 153 30 213 -11 q 78 165 93 71 q 63 478 63 258 q 78 791 63 697 q 153 926 93 885 q 353 967 213 967 q 553 926 493 967 q 628 790 613 885 q 644 478 644 696 q 628 165 644 260 q 553 30 613 71 q 353 -11 493 -11 m 353 132 q 446 149 421 132 q 478 233 471 167 q 486 478 486 299 q 478 723 486 657 q 446 806 471 789 q 353 824 421 824 q 260 806 285 824 q 228 724 236 789 q 221 478 221 658 q 228 232 221 297 q 260 149 236 167 q 353 132 285 132 m 168 1006 l 168 1015 l 272 1190 l 429 1190 l 533 1015 l 533 1006 l 429 1006 l 350 1115 l 272 1006 l 168 1006 m 563 1431 q 557 1330 563 1364 q 531 1277 551 1296 q 465 1258 510 1258 q 409 1265 438 1258 q 343 1285 381 1272 q 310 1295 339 1286 q 263 1304 282 1304 q 240 1292 244 1304 q 235 1243 235 1279 l 144 1243 q 150 1344 144 1310 q 176 1397 156 1378 q 243 1415 197 1415 q 297 1409 271 1415 q 365 1389 324 1403 q 446 1371 422 1371 q 468 1382 464 1371 q 472 1431 472 1393 l 563 1431 z "},"Ȍ":{"ha":707,"x_min":63,"x_max":644,"o":"m 353 -11 q 153 30 213 -11 q 78 165 93 71 q 63 478 63 258 q 78 791 63 697 q 153 926 93 885 q 353 967 213 967 q 553 926 493 967 q 628 790 613 885 q 644 478 644 696 q 628 165 644 260 q 553 30 613 71 q 353 -11 493 -11 m 353 132 q 446 149 421 132 q 478 233 471 167 q 486 478 486 299 q 478 723 486 657 q 446 806 471 789 q 353 824 421 824 q 260 806 285 824 q 228 724 236 789 q 221 478 221 658 q 228 232 221 297 q 260 149 236 167 q 353 132 285 132 m 311 1047 l 211 1047 l 119 1214 l 119 1219 l 247 1219 l 311 1053 l 311 1047 m 510 1047 l 410 1047 l 318 1214 l 318 1219 l 444 1219 l 510 1053 l 510 1047 z "},"Ö":{"ha":707,"x_min":63,"x_max":644,"o":"m 353 -11 q 153 30 213 -11 q 78 165 93 71 q 63 478 63 258 q 78 791 63 697 q 153 926 93 885 q 353 967 213 967 q 553 926 493 967 q 628 790 613 885 q 644 478 644 696 q 628 165 644 260 q 553 30 613 71 q 353 -11 493 -11 m 353 132 q 446 149 421 132 q 478 233 471 167 q 486 478 486 299 q 478 723 486 657 q 446 806 471 789 q 353 824 421 824 q 260 806 285 824 q 228 724 236 789 q 221 478 221 658 q 228 232 221 297 q 260 149 236 167 q 353 132 285 132 m 165 1083 l 165 1215 l 300 1215 l 300 1083 l 165 1083 m 408 1083 l 408 1215 l 542 1215 l 542 1083 l 408 1083 z "},"Ọ":{"ha":707,"x_min":63,"x_max":644,"o":"m 353 -11 q 153 30 213 -11 q 78 165 93 71 q 63 478 63 258 q 78 791 63 697 q 153 926 93 885 q 353 967 213 967 q 553 926 493 967 q 628 790 613 885 q 644 478 644 696 q 628 165 644 260 q 553 30 613 71 q 353 -11 493 -11 m 353 132 q 446 149 421 132 q 478 233 471 167 q 486 478 486 299 q 478 723 486 657 q 446 806 471 789 q 353 824 421 824 q 260 806 285 824 q 228 724 236 789 q 221 478 221 658 q 228 232 221 297 q 260 149 236 167 q 353 132 285 132 m 269 -251 l 269 -86 l 438 -86 l 438 -251 l 269 -251 z "},"Ò":{"ha":707,"x_min":63,"x_max":644,"o":"m 353 -11 q 153 30 213 -11 q 78 165 93 71 q 63 478 63 258 q 78 791 63 697 q 153 926 93 885 q 353 967 213 967 q 553 926 493 967 q 628 790 613 885 q 644 478 644 696 q 628 165 644 260 q 553 30 613 71 q 353 -11 493 -11 m 353 132 q 446 149 421 132 q 478 233 471 167 q 486 478 486 299 q 478 723 486 657 q 446 806 471 789 q 353 824 421 824 q 260 806 285 824 q 228 724 236 789 q 221 478 221 658 q 228 232 221 297 q 260 149 236 167 q 353 132 285 132 m 297 1042 l 192 1235 l 192 1242 l 344 1242 l 418 1049 l 418 1042 l 297 1042 z "},"Ỏ":{"ha":707,"x_min":63,"x_max":644,"o":"m 353 -11 q 153 30 213 -11 q 78 165 93 71 q 63 478 63 258 q 78 791 63 697 q 153 926 93 885 q 353 967 213 967 q 553 926 493 967 q 628 790 613 885 q 644 478 644 696 q 628 165 644 260 q 553 30 613 71 q 353 -11 493 -11 m 353 132 q 446 149 421 132 q 478 233 471 167 q 486 478 486 299 q 478 723 486 657 q 446 806 471 789 q 353 824 421 824 q 260 806 285 824 q 228 724 236 789 q 221 478 221 658 q 228 232 221 297 q 260 149 236 167 q 353 132 285 132 m 269 1028 q 281 1080 269 1065 q 328 1111 293 1094 l 347 1119 q 382 1141 372 1132 q 392 1163 392 1150 q 381 1181 392 1176 q 339 1186 371 1186 q 204 1179 261 1186 l 204 1279 q 339 1294 286 1294 q 462 1266 421 1294 q 503 1172 503 1238 q 490 1106 503 1131 q 440 1064 478 1082 l 414 1050 q 376 1028 382 1035 q 369 1001 369 1021 l 269 1001 l 269 1028 z "},"Ơ":{"ha":707,"x_min":63,"x_max":733,"o":"m 733 1090 l 733 1038 q 724 951 733 981 q 684 906 714 921 q 592 888 654 890 q 635 751 626 839 q 644 478 644 663 q 628 165 644 260 q 553 30 613 71 q 353 -11 493 -11 q 153 30 213 -11 q 78 165 93 71 q 63 478 63 258 q 78 791 63 697 q 153 926 93 885 q 353 967 213 967 q 481 956 435 967 l 538 956 q 616 965 597 956 q 635 1006 635 975 l 635 1090 l 733 1090 m 353 132 q 446 149 421 132 q 478 233 471 167 q 486 478 486 299 q 478 723 486 657 q 446 806 471 789 q 353 824 421 824 q 260 806 285 824 q 228 724 236 789 q 221 478 221 658 q 228 232 221 297 q 260 149 236 167 q 353 132 285 132 z "},"Ớ":{"ha":707,"x_min":63,"x_max":733,"o":"m 733 1090 l 733 1038 q 724 951 733 981 q 684 906 714 921 q 592 888 654 890 q 635 751 626 839 q 644 478 644 663 q 628 165 644 260 q 553 30 613 71 q 353 -11 493 -11 q 153 30 213 -11 q 78 165 93 71 q 63 478 63 258 q 78 791 63 697 q 153 926 93 885 q 353 967 213 967 q 481 956 435 967 l 538 956 q 616 965 597 956 q 635 1006 635 975 l 635 1090 l 733 1090 m 353 132 q 446 149 421 132 q 478 233 471 167 q 486 478 486 299 q 478 723 486 657 q 446 806 471 789 q 353 824 421 824 q 260 806 285 824 q 228 724 236 789 q 221 478 221 658 q 228 232 221 297 q 260 149 236 167 q 353 132 285 132 m 278 1033 l 278 1040 l 351 1233 l 504 1233 l 504 1226 l 397 1033 l 278 1033 z "},"Ợ":{"ha":707,"x_min":63,"x_max":733,"o":"m 733 1090 l 733 1038 q 724 951 733 981 q 684 906 714 921 q 592 888 654 890 q 635 751 626 839 q 644 478 644 663 q 628 165 644 260 q 553 30 613 71 q 353 -11 493 -11 q 153 30 213 -11 q 78 165 93 71 q 63 478 63 258 q 78 791 63 697 q 153 926 93 885 q 353 967 213 967 q 481 956 435 967 l 538 956 q 616 965 597 956 q 635 1006 635 975 l 635 1090 l 733 1090 m 353 132 q 446 149 421 132 q 478 233 471 167 q 486 478 486 299 q 478 723 486 657 q 446 806 471 789 q 353 824 421 824 q 260 806 285 824 q 228 724 236 789 q 221 478 221 658 q 228 232 221 297 q 260 149 236 167 q 353 132 285 132 m 269 -251 l 269 -86 l 438 -86 l 438 -251 l 269 -251 z "},"Ờ":{"ha":707,"x_min":63,"x_max":733,"o":"m 733 1090 l 733 1038 q 724 951 733 981 q 684 906 714 921 q 592 888 654 890 q 635 751 626 839 q 644 478 644 663 q 628 165 644 260 q 553 30 613 71 q 353 -11 493 -11 q 153 30 213 -11 q 78 165 93 71 q 63 478 63 258 q 78 791 63 697 q 153 926 93 885 q 353 967 213 967 q 481 956 435 967 l 538 956 q 616 965 597 956 q 635 1006 635 975 l 635 1090 l 733 1090 m 353 132 q 446 149 421 132 q 478 233 471 167 q 486 478 486 299 q 478 723 486 657 q 446 806 471 789 q 353 824 421 824 q 260 806 285 824 q 228 724 236 789 q 221 478 221 658 q 228 232 221 297 q 260 149 236 167 q 353 132 285 132 m 303 1033 l 197 1226 l 197 1233 l 350 1233 l 424 1040 l 424 1033 l 303 1033 z "},"Ở":{"ha":707,"x_min":63,"x_max":733,"o":"m 733 1090 l 733 1038 q 724 951 733 981 q 684 906 714 921 q 592 888 654 890 q 635 751 626 839 q 644 478 644 663 q 628 165 644 260 q 553 30 613 71 q 353 -11 493 -11 q 153 30 213 -11 q 78 165 93 71 q 63 478 63 258 q 78 791 63 697 q 153 926 93 885 q 353 967 213 967 q 481 956 435 967 l 538 956 q 616 965 597 956 q 635 1006 635 975 l 635 1090 l 733 1090 m 353 132 q 446 149 421 132 q 478 233 471 167 q 486 478 486 299 q 478 723 486 657 q 446 806 471 789 q 353 824 421 824 q 260 806 285 824 q 228 724 236 789 q 221 478 221 658 q 228 232 221 297 q 260 149 236 167 q 353 132 285 132 m 269 1028 q 281 1080 269 1065 q 328 1111 293 1094 l 347 1119 q 382 1141 372 1132 q 392 1163 392 1150 q 381 1181 392 1176 q 339 1186 371 1186 q 204 1179 261 1186 l 204 1279 q 339 1294 286 1294 q 462 1266 421 1294 q 503 1172 503 1238 q 490 1106 503 1131 q 440 1064 478 1082 l 414 1050 q 376 1028 382 1035 q 369 1001 369 1021 l 269 1001 l 269 1028 z "},"Ỡ":{"ha":707,"x_min":63,"x_max":733,"o":"m 733 1090 l 733 1038 q 724 951 733 981 q 684 906 714 921 q 592 888 654 890 q 635 751 626 839 q 644 478 644 663 q 628 165 644 260 q 553 30 613 71 q 353 -11 493 -11 q 153 30 213 -11 q 78 165 93 71 q 63 478 63 258 q 78 791 63 697 q 153 926 93 885 q 353 967 213 967 q 481 956 435 967 l 538 956 q 616 965 597 956 q 635 1006 635 975 l 635 1090 l 733 1090 m 353 132 q 446 149 421 132 q 478 233 471 167 q 486 478 486 299 q 478 723 486 657 q 446 806 471 789 q 353 824 421 824 q 260 806 285 824 q 228 724 236 789 q 221 478 221 658 q 228 232 221 297 q 260 149 236 167 q 353 132 285 132 m 563 1233 q 557 1133 563 1167 q 531 1080 551 1099 q 465 1061 510 1061 q 409 1068 438 1061 q 343 1088 381 1075 q 310 1098 339 1089 q 263 1107 282 1107 q 240 1094 244 1107 q 235 1046 235 1082 l 144 1046 q 150 1147 144 1113 q 176 1199 156 1181 q 243 1218 197 1218 q 297 1212 271 1218 q 365 1192 324 1206 q 446 1174 422 1174 q 468 1185 464 1174 q 472 1233 472 1196 l 563 1233 z "},"Ő":{"ha":707,"x_min":63,"x_max":644,"o":"m 353 -11 q 153 30 213 -11 q 78 165 93 71 q 63 478 63 258 q 78 791 63 697 q 153 926 93 885 q 353 967 213 967 q 553 926 493 967 q 628 790 613 885 q 644 478 644 696 q 628 165 644 260 q 553 30 613 71 q 353 -11 493 -11 m 353 132 q 446 149 421 132 q 478 233 471 167 q 486 478 486 299 q 478 723 486 657 q 446 806 471 789 q 353 824 421 824 q 260 806 285 824 q 228 724 236 789 q 221 478 221 658 q 228 232 221 297 q 260 149 236 167 q 353 132 285 132 m 204 1047 l 204 1053 l 269 1219 l 396 1219 l 396 1214 l 304 1047 l 204 1047 m 403 1047 l 403 1053 l 467 1219 l 594 1219 l 594 1214 l 503 1047 l 403 1047 z "},"Ȏ":{"ha":707,"x_min":63,"x_max":644,"o":"m 353 -11 q 153 30 213 -11 q 78 165 93 71 q 63 478 63 258 q 78 791 63 697 q 153 926 93 885 q 353 967 213 967 q 553 926 493 967 q 628 790 613 885 q 644 478 644 696 q 628 165 644 260 q 553 30 613 71 q 353 -11 493 -11 m 353 132 q 446 149 421 132 q 478 233 471 167 q 486 478 486 299 q 478 723 486 657 q 446 806 471 789 q 353 824 421 824 q 260 806 285 824 q 228 724 236 789 q 221 478 221 658 q 228 232 221 297 q 260 149 236 167 q 353 132 285 132 m 181 1051 q 192 1155 181 1115 q 242 1218 204 1194 q 356 1242 281 1242 q 467 1219 429 1242 q 515 1156 504 1196 q 526 1051 526 1115 l 431 1051 q 427 1109 431 1090 q 408 1139 424 1128 q 356 1150 392 1150 q 303 1139 319 1150 q 282 1108 286 1128 q 278 1051 278 1089 l 181 1051 z "},"Ō":{"ha":707,"x_min":63,"x_max":644,"o":"m 353 -11 q 153 30 213 -11 q 78 165 93 71 q 63 478 63 258 q 78 791 63 697 q 153 926 93 885 q 353 967 213 967 q 553 926 493 967 q 628 790 613 885 q 644 478 644 696 q 628 165 644 260 q 553 30 613 71 q 353 -11 493 -11 m 353 132 q 446 149 421 132 q 478 233 471 167 q 486 478 486 299 q 478 723 486 657 q 446 806 471 789 q 353 824 421 824 q 260 806 285 824 q 228 724 236 789 q 221 478 221 658 q 228 232 221 297 q 260 149 236 167 q 353 132 285 132 m 215 1094 l 215 1233 l 492 1233 l 492 1094 l 215 1094 z "},"Ǫ":{"ha":707,"x_min":63,"x_max":644,"o":"m 475 -272 q 372 -241 403 -272 q 340 -160 340 -210 q 401 -10 340 -90 q 353 -11 386 -11 q 153 30 213 -11 q 78 165 93 71 q 63 478 63 258 q 78 791 63 697 q 153 926 93 885 q 353 967 213 967 q 553 926 493 967 q 628 790 613 885 q 644 478 644 696 q 640 247 644 328 q 615 113 635 167 q 553 31 594 58 q 461 -131 461 -32 q 517 -182 461 -182 q 538 -181 531 -182 l 538 -268 q 475 -272 503 -272 m 353 132 q 446 149 421 132 q 478 233 471 167 q 486 478 486 299 q 478 723 486 657 q 446 806 471 789 q 353 824 421 824 q 260 806 285 824 q 228 724 236 789 q 221 478 221 658 q 228 232 221 297 q 260 149 236 167 q 353 132 285 132 z "},"Ø":{"ha":707,"x_min":63,"x_max":644,"o":"m 588 893 q 634 753 624 844 q 644 478 644 663 q 628 165 644 260 q 553 30 613 71 q 353 -11 493 -11 q 228 0 272 -11 l 197 -76 l 63 -76 l 118 63 q 72 201 82 111 q 63 478 63 290 q 78 791 63 697 q 153 926 93 885 q 353 967 213 967 q 479 956 433 967 l 510 1032 l 644 1032 l 588 893 m 353 132 q 446 149 421 132 q 478 233 471 167 q 486 478 486 299 q 478 723 486 657 q 446 806 471 789 q 353 824 421 824 q 260 806 285 824 q 228 724 236 789 q 221 478 221 658 q 228 232 221 297 q 260 149 236 167 q 353 132 285 132 z "},"Ǿ":{"ha":707,"x_min":63,"x_max":644,"o":"m 588 893 q 634 753 624 844 q 644 478 644 663 q 628 165 644 260 q 553 30 613 71 q 353 -11 493 -11 q 228 0 272 -11 l 197 -76 l 63 -76 l 118 63 q 72 201 82 111 q 63 478 63 290 q 78 791 63 697 q 153 926 93 885 q 353 967 213 967 q 479 956 433 967 l 510 1032 l 644 1032 l 588 893 m 353 132 q 446 149 421 132 q 478 233 471 167 q 486 478 486 299 q 478 723 486 657 q 446 806 471 789 q 353 824 421 824 q 260 806 285 824 q 228 724 236 789 q 221 478 221 658 q 228 232 221 297 q 260 149 236 167 q 353 132 285 132 m 272 1033 l 272 1040 l 346 1233 l 499 1233 l 499 1226 l 392 1033 l 272 1033 z "},"Õ":{"ha":707,"x_min":63,"x_max":644,"o":"m 353 -11 q 153 30 213 -11 q 78 165 93 71 q 63 478 63 258 q 78 791 63 697 q 153 926 93 885 q 353 967 213 967 q 553 926 493 967 q 628 790 613 885 q 644 478 644 696 q 628 165 644 260 q 553 30 613 71 q 353 -11 493 -11 m 353 132 q 446 149 421 132 q 478 233 471 167 q 486 478 486 299 q 478 723 486 657 q 446 806 471 789 q 353 824 421 824 q 260 806 285 824 q 228 724 236 789 q 221 478 221 658 q 228 232 221 297 q 260 149 236 167 q 353 132 285 132 m 563 1229 q 557 1128 563 1163 q 531 1076 551 1094 q 465 1057 510 1057 q 409 1064 438 1057 q 343 1083 381 1071 q 310 1094 339 1085 q 263 1103 282 1103 q 240 1090 244 1103 q 235 1042 235 1078 l 144 1042 q 150 1142 144 1108 q 176 1195 156 1176 q 243 1214 197 1214 q 297 1208 271 1214 q 365 1188 324 1201 q 446 1169 422 1169 q 468 1181 464 1169 q 472 1229 472 1192 l 563 1229 z "},"Œ":{"ha":1001,"x_min":61,"x_max":950,"o":"m 353 0 q 153 40 213 0 q 77 172 93 79 q 61 478 61 264 q 77 783 61 692 q 153 915 93 875 q 353 956 213 956 l 950 956 l 950 813 l 686 813 q 608 821 635 813 q 644 553 642 738 l 910 553 l 910 410 l 644 410 q 635 244 643 310 q 607 133 626 178 q 686 142 649 142 l 950 142 l 950 0 l 353 0 m 353 142 q 445 158 421 142 q 477 239 469 175 q 485 478 485 303 q 477 715 485 651 q 445 796 469 779 q 353 813 421 813 q 260 796 285 813 q 228 716 236 779 q 221 478 221 653 q 228 239 221 303 q 260 158 236 175 q 353 142 285 142 z "},"P":{"ha":653,"x_min":82,"x_max":617,"o":"m 82 956 l 382 956 q 531 919 481 956 q 599 815 582 882 q 617 639 617 749 q 600 466 617 533 q 531 360 583 399 q 379 321 479 321 l 240 321 l 240 0 l 82 0 l 82 956 m 342 464 q 419 478 396 464 q 450 526 443 492 q 457 639 457 561 q 450 750 457 715 q 419 799 443 785 q 343 813 396 813 l 240 813 l 240 464 l 342 464 z "},"Þ":{"ha":653,"x_min":82,"x_max":617,"o":"m 82 956 l 240 956 l 240 804 l 382 804 q 532 767 481 804 q 600 664 583 731 q 617 488 617 597 q 600 315 617 382 q 532 209 583 249 q 381 169 481 169 l 240 169 l 240 0 l 82 0 l 82 956 m 342 313 q 419 327 394 313 q 450 376 443 342 q 457 488 457 411 q 450 599 457 565 q 420 647 443 633 q 343 661 397 661 l 240 661 l 240 313 l 342 313 z "},"Q":{"ha":707,"x_min":63,"x_max":686,"o":"m 431 -7 q 353 -11 396 -11 q 153 30 213 -11 q 78 165 93 71 q 63 478 63 258 q 78 791 63 697 q 153 926 93 885 q 353 967 213 967 q 553 926 493 967 q 628 790 613 885 q 644 478 644 696 q 640 265 644 342 q 618 132 635 188 q 567 44 601 76 l 686 -154 l 686 -160 l 517 -160 l 431 -7 m 353 132 q 446 149 421 132 q 478 233 471 167 q 486 478 486 299 q 478 723 486 657 q 446 806 471 789 q 353 824 421 824 q 260 806 285 824 q 228 724 236 789 q 221 478 221 658 q 228 232 221 297 q 260 149 236 167 q 353 132 285 132 z "},"R":{"ha":681,"x_min":82,"x_max":646,"o":"m 479 0 l 376 349 l 240 349 l 240 0 l 82 0 l 82 956 l 390 956 q 541 921 490 956 q 609 822 592 886 q 626 653 626 758 q 606 482 626 550 q 525 382 586 414 l 646 0 l 479 0 m 353 492 q 429 505 406 492 q 460 551 453 518 q 468 653 468 583 q 460 754 468 722 q 429 799 453 786 q 353 813 406 813 l 240 813 l 240 492 l 353 492 z "},"Ŕ":{"ha":681,"x_min":82,"x_max":646,"o":"m 479 0 l 376 349 l 240 349 l 240 0 l 82 0 l 82 956 l 390 956 q 541 921 490 956 q 609 822 592 886 q 626 653 626 758 q 606 482 626 550 q 525 382 586 414 l 646 0 l 479 0 m 353 492 q 429 505 406 492 q 460 551 453 518 q 468 653 468 583 q 460 754 468 722 q 429 799 453 786 q 353 813 406 813 l 240 813 l 240 492 l 353 492 m 264 1033 l 264 1040 l 338 1233 l 490 1233 l 490 1226 l 383 1033 l 264 1033 z "},"Ř":{"ha":681,"x_min":82,"x_max":646,"o":"m 479 0 l 376 349 l 240 349 l 240 0 l 82 0 l 82 956 l 390 956 q 541 921 490 956 q 609 822 592 886 q 626 653 626 758 q 606 482 626 550 q 525 382 586 414 l 646 0 l 479 0 m 353 492 q 429 505 406 492 q 460 551 453 518 q 468 653 468 583 q 460 754 468 722 q 429 799 453 786 q 353 813 406 813 l 240 813 l 240 492 l 353 492 m 263 1047 l 157 1224 l 157 1233 l 263 1233 l 340 1124 l 418 1233 l 524 1233 l 524 1224 l 418 1047 l 263 1047 z "},"Ŗ":{"ha":681,"x_min":82,"x_max":646,"o":"m 479 0 l 376 349 l 240 349 l 240 0 l 82 0 l 82 956 l 390 956 q 541 921 490 956 q 609 822 592 886 q 626 653 626 758 q 606 482 626 550 q 525 382 586 414 l 646 0 l 479 0 m 353 492 q 429 505 406 492 q 460 551 453 518 q 468 653 468 583 q 460 754 468 722 q 429 799 453 786 q 353 813 406 813 l 240 813 l 240 492 l 353 492 m 256 -331 q 315 -317 300 -331 q 329 -260 329 -303 l 329 -237 l 267 -237 l 267 -86 l 426 -86 l 426 -199 q 415 -325 426 -285 q 368 -383 404 -365 q 256 -400 332 -400 l 256 -331 z "},"Ȑ":{"ha":681,"x_min":82,"x_max":646,"o":"m 479 0 l 376 349 l 240 349 l 240 0 l 82 0 l 82 956 l 390 956 q 541 921 490 956 q 609 822 592 886 q 626 653 626 758 q 606 482 626 550 q 525 382 586 414 l 646 0 l 479 0 m 353 492 q 429 505 406 492 q 460 551 453 518 q 468 653 468 583 q 460 754 468 722 q 429 799 453 786 q 353 813 406 813 l 240 813 l 240 492 l 353 492 m 297 1047 l 197 1047 l 106 1214 l 106 1219 l 233 1219 l 297 1053 l 297 1047 m 496 1047 l 396 1047 l 304 1214 l 304 1219 l 431 1219 l 496 1053 l 496 1047 z "},"Ṛ":{"ha":681,"x_min":82,"x_max":646,"o":"m 479 0 l 376 349 l 240 349 l 240 0 l 82 0 l 82 956 l 390 956 q 541 921 490 956 q 609 822 592 886 q 626 653 626 758 q 606 482 626 550 q 525 382 586 414 l 646 0 l 479 0 m 353 492 q 429 505 406 492 q 460 551 453 518 q 468 653 468 583 q 460 754 468 722 q 429 799 453 786 q 353 813 406 813 l 240 813 l 240 492 l 353 492 m 256 -251 l 256 -86 l 424 -86 l 424 -251 l 256 -251 z "},"Ȓ":{"ha":681,"x_min":82,"x_max":646,"o":"m 479 0 l 376 349 l 240 349 l 240 0 l 82 0 l 82 956 l 390 956 q 541 921 490 956 q 609 822 592 886 q 626 653 626 758 q 606 482 626 550 q 525 382 586 414 l 646 0 l 479 0 m 353 492 q 429 505 406 492 q 460 551 453 518 q 468 653 468 583 q 460 754 468 722 q 429 799 453 786 q 353 813 406 813 l 240 813 l 240 492 l 353 492 m 167 1051 q 178 1155 167 1115 q 228 1218 190 1194 q 342 1242 267 1242 q 453 1219 415 1242 q 501 1156 490 1196 q 513 1051 513 1115 l 417 1051 q 413 1109 417 1090 q 394 1139 410 1128 q 342 1150 378 1150 q 289 1139 306 1150 q 268 1108 272 1128 q 264 1051 264 1089 l 167 1051 z "},"S":{"ha":614,"x_min":46,"x_max":567,"o":"m 307 -11 q 182 -6 250 -11 q 64 10 114 0 l 64 144 q 263 132 182 132 q 386 163 360 132 q 404 201 400 176 q 408 267 408 225 q 401 350 408 325 q 374 387 394 375 q 304 407 354 399 l 167 431 q 72 504 97 442 q 46 685 46 567 q 78 858 46 796 q 168 943 110 919 q 317 967 226 967 q 435 959 375 967 q 532 942 496 951 l 532 810 q 363 824 460 824 q 276 818 307 824 q 231 799 246 813 q 209 761 214 785 q 204 690 204 738 q 210 619 204 640 q 230 588 215 597 q 279 572 244 578 l 408 550 q 497 518 463 542 q 549 439 531 494 q 567 288 567 382 q 538 99 567 164 q 453 12 508 35 q 307 -11 399 -11 z "},"Ś":{"ha":614,"x_min":46,"x_max":567,"o":"m 307 -11 q 182 -6 250 -11 q 64 10 114 0 l 64 144 q 263 132 182 132 q 386 163 360 132 q 404 201 400 176 q 408 267 408 225 q 401 350 408 325 q 374 387 394 375 q 304 407 354 399 l 167 431 q 72 504 97 442 q 46 685 46 567 q 78 858 46 796 q 168 943 110 919 q 317 967 226 967 q 435 959 375 967 q 532 942 496 951 l 532 810 q 363 824 460 824 q 276 818 307 824 q 231 799 246 813 q 209 761 214 785 q 204 690 204 738 q 210 619 204 640 q 230 588 215 597 q 279 572 244 578 l 408 550 q 497 518 463 542 q 549 439 531 494 q 567 288 567 382 q 538 99 567 164 q 453 12 508 35 q 307 -11 399 -11 m 231 1033 l 231 1040 l 304 1233 l 457 1233 l 457 1226 l 350 1033 l 231 1033 z "},"Ꞌ":{"ha":210,"x_min":33,"x_max":176,"o":"m 33 379 l 33 956 l 176 956 l 176 722 l 140 379 l 33 379 z "},"Š":{"ha":614,"x_min":46,"x_max":567,"o":"m 307 -11 q 182 -6 250 -11 q 64 10 114 0 l 64 144 q 263 132 182 132 q 386 163 360 132 q 404 201 400 176 q 408 267 408 225 q 401 350 408 325 q 374 387 394 375 q 304 407 354 399 l 167 431 q 72 504 97 442 q 46 685 46 567 q 78 858 46 796 q 168 943 110 919 q 317 967 226 967 q 435 959 375 967 q 532 942 496 951 l 532 810 q 363 824 460 824 q 276 818 307 824 q 231 799 246 813 q 209 761 214 785 q 204 690 204 738 q 210 619 204 640 q 230 588 215 597 q 279 572 244 578 l 408 550 q 497 518 463 542 q 549 439 531 494 q 567 288 567 382 q 538 99 567 164 q 453 12 508 35 q 307 -11 399 -11 m 236 1040 l 131 1217 l 131 1226 l 236 1226 l 314 1117 l 392 1226 l 497 1226 l 497 1217 l 392 1040 l 236 1040 z "},"Ş":{"ha":614,"x_min":46,"x_max":567,"o":"m 567 288 q 543 115 567 178 q 475 24 519 51 q 358 -10 431 -4 l 310 -264 l 174 -264 l 174 -257 l 254 -10 q 64 10 144 -6 l 64 144 q 263 132 182 132 q 386 163 360 132 q 404 201 400 176 q 408 267 408 225 q 401 350 408 325 q 374 387 394 375 q 304 407 354 399 l 167 431 q 72 504 97 442 q 46 685 46 567 q 78 858 46 796 q 168 943 110 919 q 317 967 226 967 q 435 959 375 967 q 532 942 496 951 l 532 810 q 363 824 460 824 q 276 818 307 824 q 231 799 246 813 q 209 761 214 785 q 204 690 204 738 q 210 619 204 640 q 230 588 215 597 q 279 572 244 578 l 408 550 q 497 518 463 542 q 549 439 531 494 q 567 288 567 382 z "},"Ŝ":{"ha":614,"x_min":46,"x_max":567,"o":"m 307 -11 q 182 -6 250 -11 q 64 10 114 0 l 64 144 q 263 132 182 132 q 386 163 360 132 q 404 201 400 176 q 408 267 408 225 q 401 350 408 325 q 374 387 394 375 q 304 407 354 399 l 167 431 q 72 504 97 442 q 46 685 46 567 q 78 858 46 796 q 168 943 110 919 q 317 967 226 967 q 435 959 375 967 q 532 942 496 951 l 532 810 q 363 824 460 824 q 276 818 307 824 q 231 799 246 813 q 209 761 214 785 q 204 690 204 738 q 210 619 204 640 q 230 588 215 597 q 279 572 244 578 l 408 550 q 497 518 463 542 q 549 439 531 494 q 567 288 567 382 q 538 99 567 164 q 453 12 508 35 q 307 -11 399 -11 m 124 1049 l 124 1058 l 228 1233 l 385 1233 l 489 1058 l 489 1049 l 385 1049 l 306 1158 l 228 1049 l 124 1049 z "},"Ș":{"ha":614,"x_min":46,"x_max":567,"o":"m 307 -11 q 182 -6 250 -11 q 64 10 114 0 l 64 144 q 263 132 182 132 q 386 163 360 132 q 404 201 400 176 q 408 267 408 225 q 401 350 408 325 q 374 387 394 375 q 304 407 354 399 l 167 431 q 72 504 97 442 q 46 685 46 567 q 78 858 46 796 q 168 943 110 919 q 317 967 226 967 q 435 959 375 967 q 532 942 496 951 l 532 810 q 363 824 460 824 q 276 818 307 824 q 231 799 246 813 q 209 761 214 785 q 204 690 204 738 q 210 619 204 640 q 230 588 215 597 q 279 572 244 578 l 408 550 q 497 518 463 542 q 549 439 531 494 q 567 288 567 382 q 538 99 567 164 q 453 12 508 35 q 307 -11 399 -11 m 222 -331 q 281 -317 267 -331 q 296 -260 296 -303 l 296 -237 l 233 -237 l 233 -86 l 393 -86 l 393 -199 q 382 -325 393 -285 q 335 -383 371 -365 q 222 -400 299 -400 l 222 -331 z "},"Ṣ":{"ha":614,"x_min":46,"x_max":567,"o":"m 307 -11 q 182 -6 250 -11 q 64 10 114 0 l 64 144 q 263 132 182 132 q 386 163 360 132 q 404 201 400 176 q 408 267 408 225 q 401 350 408 325 q 374 387 394 375 q 304 407 354 399 l 167 431 q 72 504 97 442 q 46 685 46 567 q 78 858 46 796 q 168 943 110 919 q 317 967 226 967 q 435 959 375 967 q 532 942 496 951 l 532 810 q 363 824 460 824 q 276 818 307 824 q 231 799 246 813 q 209 761 214 785 q 204 690 204 738 q 210 619 204 640 q 230 588 215 597 q 279 572 244 578 l 408 550 q 497 518 463 542 q 549 439 531 494 q 567 288 567 382 q 538 99 567 164 q 453 12 508 35 q 307 -11 399 -11 m 222 -251 l 222 -86 l 390 -86 l 390 -251 l 222 -251 z "},"ẞ":{"ha":786,"x_min":76,"x_max":735,"o":"m 521 535 q 681 463 628 526 q 735 253 735 400 q 710 101 735 158 q 628 17 686 44 q 469 -11 571 -11 q 386 -4 433 -11 q 301 13 339 3 l 301 144 q 438 132 379 132 q 521 140 493 132 q 563 177 549 149 q 576 267 576 206 q 566 357 576 326 q 533 399 556 388 q 471 411 511 411 l 349 411 l 349 532 l 513 818 q 386 824 456 824 q 282 803 311 824 q 244 721 253 782 q 235 504 235 660 l 235 0 l 76 0 l 76 504 q 97 793 76 699 q 181 927 118 888 q 378 967 244 967 q 682 935 510 967 l 682 815 l 521 535 z "},"Ə":{"ha":707,"x_min":63,"x_max":644,"o":"m 329 967 q 536 925 471 967 q 623 784 601 883 q 644 478 644 685 q 628 165 644 260 q 553 30 613 71 q 353 -11 493 -11 q 153 30 213 -11 q 78 165 93 71 q 63 478 63 258 l 63 554 l 486 554 q 472 736 485 682 q 422 807 458 790 q 297 824 385 824 q 142 813 213 824 l 142 944 q 228 960 175 954 q 329 967 281 967 m 353 132 q 443 146 418 132 q 477 215 468 160 q 488 411 486 269 l 219 411 q 229 215 221 269 q 263 146 238 160 q 353 132 288 132 z "},"T":{"ha":575,"x_min":17,"x_max":557,"o":"m 208 0 l 208 808 l 17 808 l 17 956 l 557 956 l 557 808 l 367 808 l 367 0 l 208 0 z "},"Ŧ":{"ha":575,"x_min":17,"x_max":557,"o":"m 557 808 l 367 808 l 367 542 l 532 542 l 532 413 l 367 413 l 367 0 l 208 0 l 208 413 l 42 413 l 42 542 l 208 542 l 208 808 l 17 808 l 17 956 l 557 956 l 557 808 z "},"Ť":{"ha":575,"x_min":17,"x_max":557,"o":"m 208 0 l 208 808 l 17 808 l 17 956 l 557 956 l 557 808 l 367 808 l 367 0 l 208 0 m 210 1047 l 104 1224 l 104 1233 l 210 1233 l 288 1124 l 365 1233 l 471 1233 l 471 1224 l 365 1047 l 210 1047 z "},"Ţ":{"ha":575,"x_min":17,"x_max":557,"o":"m 17 956 l 557 956 l 557 808 l 367 808 l 367 0 l 340 0 l 290 -264 l 154 -264 l 154 -257 l 238 0 l 208 0 l 208 808 l 17 808 l 17 956 z "},"Ț":{"ha":575,"x_min":17,"x_max":557,"o":"m 208 0 l 208 808 l 17 808 l 17 956 l 557 956 l 557 808 l 367 808 l 367 0 l 208 0 m 203 -331 q 262 -317 247 -331 q 276 -260 276 -303 l 276 -237 l 214 -237 l 214 -86 l 374 -86 l 374 -199 q 363 -325 374 -285 q 315 -383 351 -365 q 203 -400 279 -400 l 203 -331 z "},"Ṭ":{"ha":575,"x_min":17,"x_max":557,"o":"m 208 0 l 208 808 l 17 808 l 17 956 l 557 956 l 557 808 l 367 808 l 367 0 l 208 0 m 203 -251 l 203 -86 l 371 -86 l 371 -251 l 203 -251 z "},"U":{"ha":707,"x_min":76,"x_max":631,"o":"m 631 956 l 631 421 q 614 148 631 233 q 540 26 597 63 q 353 -11 483 -11 q 165 26 222 -11 q 92 148 108 63 q 76 421 76 233 l 76 956 l 235 956 l 235 361 q 241 206 235 250 q 271 147 247 163 q 353 132 294 132 q 436 147 413 132 q 466 206 460 163 q 472 361 472 250 l 472 956 l 631 956 z "},"Ú":{"ha":707,"x_min":76,"x_max":631,"o":"m 631 956 l 631 421 q 614 148 631 233 q 540 26 597 63 q 353 -11 483 -11 q 165 26 222 -11 q 92 148 108 63 q 76 421 76 233 l 76 956 l 235 956 l 235 361 q 241 206 235 250 q 271 147 247 163 q 353 132 294 132 q 436 147 413 132 q 466 206 460 163 q 472 361 472 250 l 472 956 l 631 956 m 289 1042 l 289 1049 l 363 1242 l 515 1242 l 515 1235 l 408 1042 l 289 1042 z "},"Ŭ":{"ha":707,"x_min":76,"x_max":631,"o":"m 631 956 l 631 421 q 614 148 631 233 q 540 26 597 63 q 353 -11 483 -11 q 165 26 222 -11 q 92 148 108 63 q 76 421 76 233 l 76 956 l 235 956 l 235 361 q 241 206 235 250 q 271 147 247 163 q 353 132 294 132 q 436 147 413 132 q 466 206 460 163 q 472 361 472 250 l 472 956 l 631 956 m 525 1233 q 513 1130 525 1169 q 463 1067 501 1090 q 350 1043 425 1043 q 239 1066 276 1043 q 190 1129 201 1089 q 179 1233 179 1169 l 275 1233 q 278 1176 275 1194 q 298 1146 282 1157 q 350 1135 314 1135 q 403 1146 386 1135 q 424 1176 419 1157 q 428 1233 428 1196 l 525 1233 z "},"Ǔ":{"ha":707,"x_min":76,"x_max":631,"o":"m 631 956 l 631 421 q 614 148 631 233 q 540 26 597 63 q 353 -11 483 -11 q 165 26 222 -11 q 92 148 108 63 q 76 421 76 233 l 76 956 l 235 956 l 235 361 q 241 206 235 250 q 271 147 247 163 q 353 132 294 132 q 436 147 413 132 q 466 206 460 163 q 472 361 472 250 l 472 956 l 631 956 m 275 1047 l 169 1224 l 169 1233 l 275 1233 l 353 1124 l 431 1233 l 536 1233 l 536 1224 l 431 1047 l 275 1047 z "},"Û":{"ha":707,"x_min":76,"x_max":631,"o":"m 631 956 l 631 421 q 614 148 631 233 q 540 26 597 63 q 353 -11 483 -11 q 165 26 222 -11 q 92 148 108 63 q 76 421 76 233 l 76 956 l 235 956 l 235 361 q 241 206 235 250 q 271 147 247 163 q 353 132 294 132 q 436 147 413 132 q 466 206 460 163 q 472 361 472 250 l 472 956 l 631 956 m 171 1042 l 171 1051 l 275 1226 l 432 1226 l 536 1051 l 536 1042 l 432 1042 l 353 1151 l 275 1042 l 171 1042 z "},"Ȕ":{"ha":707,"x_min":76,"x_max":631,"o":"m 631 956 l 631 421 q 614 148 631 233 q 540 26 597 63 q 353 -11 483 -11 q 165 26 222 -11 q 92 148 108 63 q 76 421 76 233 l 76 956 l 235 956 l 235 361 q 241 206 235 250 q 271 147 247 163 q 353 132 294 132 q 436 147 413 132 q 466 206 460 163 q 472 361 472 250 l 472 956 l 631 956 m 310 1047 l 210 1047 l 118 1214 l 118 1219 l 246 1219 l 310 1053 l 310 1047 m 508 1047 l 408 1047 l 317 1214 l 317 1219 l 443 1219 l 508 1053 l 508 1047 z "},"Ü":{"ha":707,"x_min":76,"x_max":631,"o":"m 631 956 l 631 421 q 614 148 631 233 q 540 26 597 63 q 353 -11 483 -11 q 165 26 222 -11 q 92 148 108 63 q 76 421 76 233 l 76 956 l 235 956 l 235 361 q 241 206 235 250 q 271 147 247 163 q 353 132 294 132 q 436 147 413 132 q 466 206 460 163 q 472 361 472 250 l 472 956 l 631 956 m 164 1083 l 164 1215 l 299 1215 l 299 1083 l 164 1083 m 407 1083 l 407 1215 l 540 1215 l 540 1083 l 407 1083 z "},"Ǘ":{"ha":707,"x_min":76,"x_max":631,"o":"m 299 1210 l 299 1083 l 164 1083 l 164 1215 l 279 1215 l 279 1217 l 353 1410 l 506 1410 l 506 1403 l 399 1210 l 299 1210 m 407 1083 l 407 1215 l 540 1215 l 540 1083 l 407 1083 m 631 956 l 631 421 q 614 148 631 233 q 540 26 597 63 q 353 -11 483 -11 q 165 26 222 -11 q 92 148 108 63 q 76 421 76 233 l 76 956 l 235 956 l 235 361 q 241 206 235 250 q 271 147 247 163 q 353 132 294 132 q 436 147 413 132 q 466 206 460 163 q 472 361 472 250 l 472 956 l 631 956 z "},"Ǚ":{"ha":707,"x_min":76,"x_max":631,"o":"m 631 956 l 631 421 q 614 148 631 233 q 540 26 597 63 q 353 -11 483 -11 q 165 26 222 -11 q 92 148 108 63 q 76 421 76 233 l 76 956 l 235 956 l 235 361 q 241 206 235 250 q 271 147 247 163 q 353 132 294 132 q 436 147 413 132 q 466 206 460 163 q 472 361 472 250 l 472 956 l 631 956 m 164 1083 l 164 1215 l 299 1215 l 299 1083 l 164 1083 m 407 1083 l 407 1215 l 540 1215 l 540 1083 l 407 1083 m 278 1224 l 172 1400 l 172 1410 l 278 1410 l 356 1300 l 433 1410 l 539 1410 l 539 1400 l 433 1224 l 278 1224 z "},"Ǜ":{"ha":707,"x_min":76,"x_max":631,"o":"m 407 1210 l 304 1210 l 199 1403 l 199 1410 l 351 1410 l 425 1217 l 425 1215 l 540 1215 l 540 1083 l 407 1083 l 407 1210 m 299 1215 l 299 1083 l 164 1083 l 164 1215 l 299 1215 m 631 956 l 631 421 q 614 148 631 233 q 540 26 597 63 q 353 -11 483 -11 q 165 26 222 -11 q 92 148 108 63 q 76 421 76 233 l 76 956 l 235 956 l 235 361 q 241 206 235 250 q 271 147 247 163 q 353 132 294 132 q 436 147 413 132 q 466 206 460 163 q 472 361 472 250 l 472 956 l 631 956 z "},"Ǖ":{"ha":707,"x_min":76,"x_max":631,"o":"m 217 1268 l 217 1404 l 493 1404 l 493 1268 l 217 1268 m 164 1083 l 164 1215 l 299 1215 l 299 1083 l 164 1083 m 407 1083 l 407 1215 l 540 1215 l 540 1083 l 407 1083 m 631 956 l 631 421 q 614 148 631 233 q 540 26 597 63 q 353 -11 483 -11 q 165 26 222 -11 q 92 148 108 63 q 76 421 76 233 l 76 956 l 235 956 l 235 361 q 241 206 235 250 q 271 147 247 163 q 353 132 294 132 q 436 147 413 132 q 466 206 460 163 q 472 361 472 250 l 472 956 l 631 956 z "},"Ụ":{"ha":707,"x_min":76,"x_max":631,"o":"m 631 956 l 631 421 q 614 148 631 233 q 540 26 597 63 q 353 -11 483 -11 q 165 26 222 -11 q 92 148 108 63 q 76 421 76 233 l 76 956 l 235 956 l 235 361 q 241 206 235 250 q 271 147 247 163 q 353 132 294 132 q 436 147 413 132 q 466 206 460 163 q 472 361 472 250 l 472 956 l 631 956 m 268 -251 l 268 -86 l 436 -86 l 436 -251 l 268 -251 z "},"Ù":{"ha":707,"x_min":76,"x_max":631,"o":"m 631 956 l 631 421 q 614 148 631 233 q 540 26 597 63 q 353 -11 483 -11 q 165 26 222 -11 q 92 148 108 63 q 76 421 76 233 l 76 956 l 235 956 l 235 361 q 241 206 235 250 q 271 147 247 163 q 353 132 294 132 q 436 147 413 132 q 466 206 460 163 q 472 361 472 250 l 472 956 l 631 956 m 303 1042 l 197 1235 l 197 1242 l 350 1242 l 424 1049 l 424 1042 l 303 1042 z "},"Ủ":{"ha":707,"x_min":76,"x_max":631,"o":"m 631 956 l 631 421 q 614 148 631 233 q 540 26 597 63 q 353 -11 483 -11 q 165 26 222 -11 q 92 148 108 63 q 76 421 76 233 l 76 956 l 235 956 l 235 361 q 241 206 235 250 q 271 147 247 163 q 353 132 294 132 q 436 147 413 132 q 466 206 460 163 q 472 361 472 250 l 472 956 l 631 956 m 268 1028 q 280 1080 268 1065 q 326 1111 292 1094 l 346 1119 q 381 1141 371 1132 q 390 1163 390 1150 q 380 1181 390 1176 q 338 1186 369 1186 q 203 1179 260 1186 l 203 1279 q 338 1294 285 1294 q 460 1266 419 1294 q 501 1172 501 1238 q 489 1106 501 1131 q 439 1064 476 1082 l 413 1050 q 374 1028 381 1035 q 368 1001 368 1021 l 268 1001 l 268 1028 z "},"Ư":{"ha":707,"x_min":76,"x_max":749,"o":"m 749 1090 l 749 1038 q 740 955 749 983 q 707 910 732 926 q 631 889 682 894 l 631 421 q 614 148 631 233 q 540 26 597 63 q 353 -11 483 -11 q 165 26 222 -11 q 92 148 108 63 q 76 421 76 233 l 76 956 l 235 956 l 235 361 q 241 206 235 250 q 271 147 247 163 q 353 132 294 132 q 436 147 413 132 q 466 206 460 163 q 472 361 472 250 l 472 956 l 553 956 q 631 965 613 956 q 650 1006 650 975 l 650 1090 l 749 1090 z "},"Ứ":{"ha":707,"x_min":76,"x_max":749,"o":"m 749 1090 l 749 1038 q 740 955 749 983 q 707 910 732 926 q 631 889 682 894 l 631 421 q 614 148 631 233 q 540 26 597 63 q 353 -11 483 -11 q 165 26 222 -11 q 92 148 108 63 q 76 421 76 233 l 76 956 l 235 956 l 235 361 q 241 206 235 250 q 271 147 247 163 q 353 132 294 132 q 436 147 413 132 q 466 206 460 163 q 472 361 472 250 l 472 956 l 553 956 q 631 965 613 956 q 650 1006 650 975 l 650 1090 l 749 1090 m 276 1033 l 276 1040 l 350 1233 l 503 1233 l 503 1226 l 396 1033 l 276 1033 z "},"Ự":{"ha":707,"x_min":76,"x_max":749,"o":"m 749 1090 l 749 1038 q 740 955 749 983 q 707 910 732 926 q 631 889 682 894 l 631 421 q 614 148 631 233 q 540 26 597 63 q 353 -11 483 -11 q 165 26 222 -11 q 92 148 108 63 q 76 421 76 233 l 76 956 l 235 956 l 235 361 q 241 206 235 250 q 271 147 247 163 q 353 132 294 132 q 436 147 413 132 q 466 206 460 163 q 472 361 472 250 l 472 956 l 553 956 q 631 965 613 956 q 650 1006 650 975 l 650 1090 l 749 1090 m 268 -251 l 268 -86 l 436 -86 l 436 -251 l 268 -251 z "},"Ừ":{"ha":707,"x_min":76,"x_max":749,"o":"m 749 1090 l 749 1038 q 740 955 749 983 q 707 910 732 926 q 631 889 682 894 l 631 421 q 614 148 631 233 q 540 26 597 63 q 353 -11 483 -11 q 165 26 222 -11 q 92 148 108 63 q 76 421 76 233 l 76 956 l 235 956 l 235 361 q 241 206 235 250 q 271 147 247 163 q 353 132 294 132 q 436 147 413 132 q 466 206 460 163 q 472 361 472 250 l 472 956 l 553 956 q 631 965 613 956 q 650 1006 650 975 l 650 1090 l 749 1090 m 301 1033 l 196 1226 l 196 1233 l 349 1233 l 422 1040 l 422 1033 l 301 1033 z "},"Ử":{"ha":707,"x_min":76,"x_max":749,"o":"m 749 1090 l 749 1038 q 740 955 749 983 q 707 910 732 926 q 631 889 682 894 l 631 421 q 614 148 631 233 q 540 26 597 63 q 353 -11 483 -11 q 165 26 222 -11 q 92 148 108 63 q 76 421 76 233 l 76 956 l 235 956 l 235 361 q 241 206 235 250 q 271 147 247 163 q 353 132 294 132 q 436 147 413 132 q 466 206 460 163 q 472 361 472 250 l 472 956 l 553 956 q 631 965 613 956 q 650 1006 650 975 l 650 1090 l 749 1090 m 268 1028 q 280 1080 268 1065 q 326 1111 292 1094 l 346 1119 q 381 1141 371 1132 q 390 1163 390 1150 q 380 1181 390 1176 q 338 1186 369 1186 q 203 1179 260 1186 l 203 1279 q 338 1294 285 1294 q 460 1266 419 1294 q 501 1172 501 1238 q 489 1106 501 1131 q 439 1064 476 1082 l 413 1050 q 374 1028 381 1035 q 368 1001 368 1021 l 268 1001 l 268 1028 z "},"Ữ":{"ha":707,"x_min":76,"x_max":749,"o":"m 749 1090 l 749 1038 q 740 955 749 983 q 707 910 732 926 q 631 889 682 894 l 631 421 q 614 148 631 233 q 540 26 597 63 q 353 -11 483 -11 q 165 26 222 -11 q 92 148 108 63 q 76 421 76 233 l 76 956 l 235 956 l 235 361 q 241 206 235 250 q 271 147 247 163 q 353 132 294 132 q 436 147 413 132 q 466 206 460 163 q 472 361 472 250 l 472 956 l 553 956 q 631 965 613 956 q 650 1006 650 975 l 650 1090 l 749 1090 m 561 1233 q 556 1133 561 1167 q 529 1080 550 1099 q 464 1061 508 1061 q 408 1068 436 1061 q 342 1088 379 1075 q 309 1098 338 1089 q 261 1107 281 1107 q 238 1094 243 1107 q 233 1046 233 1082 l 143 1046 q 149 1147 143 1113 q 175 1199 154 1181 q 242 1218 196 1218 q 296 1212 269 1218 q 364 1192 322 1206 q 444 1174 421 1174 q 467 1185 463 1174 q 471 1233 471 1196 l 561 1233 z "},"Ű":{"ha":707,"x_min":76,"x_max":631,"o":"m 631 956 l 631 421 q 614 148 631 233 q 540 26 597 63 q 353 -11 483 -11 q 165 26 222 -11 q 92 148 108 63 q 76 421 76 233 l 76 956 l 235 956 l 235 361 q 241 206 235 250 q 271 147 247 163 q 353 132 294 132 q 436 147 413 132 q 466 206 460 163 q 472 361 472 250 l 472 956 l 631 956 m 203 1047 l 203 1053 l 268 1219 l 394 1219 l 394 1214 l 303 1047 l 203 1047 m 401 1047 l 401 1053 l 465 1219 l 593 1219 l 593 1214 l 501 1047 l 401 1047 z "},"Ȗ":{"ha":707,"x_min":76,"x_max":631,"o":"m 631 956 l 631 421 q 614 148 631 233 q 540 26 597 63 q 353 -11 483 -11 q 165 26 222 -11 q 92 148 108 63 q 76 421 76 233 l 76 956 l 235 956 l 235 361 q 241 206 235 250 q 271 147 247 163 q 353 132 294 132 q 436 147 413 132 q 466 206 460 163 q 472 361 472 250 l 472 956 l 631 956 m 179 1051 q 191 1155 179 1115 q 241 1218 203 1194 q 354 1242 279 1242 q 465 1219 428 1242 q 514 1156 503 1196 q 525 1051 525 1115 l 429 1051 q 426 1109 429 1090 q 406 1139 422 1128 q 354 1150 390 1150 q 301 1139 318 1150 q 281 1108 285 1128 q 276 1051 276 1089 l 179 1051 z "},"Ū":{"ha":707,"x_min":76,"x_max":631,"o":"m 631 956 l 631 421 q 614 148 631 233 q 540 26 597 63 q 353 -11 483 -11 q 165 26 222 -11 q 92 148 108 63 q 76 421 76 233 l 76 956 l 235 956 l 235 361 q 241 206 235 250 q 271 147 247 163 q 353 132 294 132 q 436 147 413 132 q 466 206 460 163 q 472 361 472 250 l 472 956 l 631 956 m 214 1094 l 214 1233 l 490 1233 l 490 1094 l 214 1094 z "},"Ų":{"ha":707,"x_min":76,"x_max":631,"o":"m 631 956 l 631 421 q 625 225 631 296 q 602 106 619 154 q 547 31 585 57 q 467 -47 494 -8 q 440 -128 440 -85 q 499 -182 440 -182 q 517 -181 514 -182 l 517 -268 q 453 -272 481 -272 q 351 -240 382 -272 q 319 -157 319 -208 q 389 -10 319 -89 q 353 -11 376 -11 q 165 26 222 -11 q 92 148 108 63 q 76 421 76 233 l 76 956 l 235 956 l 235 361 q 241 206 235 250 q 271 147 247 163 q 353 132 294 132 q 436 147 413 132 q 466 206 460 163 q 472 361 472 250 l 472 956 l 631 956 z "},"Ů":{"ha":707,"x_min":76,"x_max":631,"o":"m 631 956 l 631 421 q 614 148 631 233 q 540 26 597 63 q 353 -11 483 -11 q 165 26 222 -11 q 92 148 108 63 q 76 421 76 233 l 76 956 l 235 956 l 235 361 q 241 206 235 250 q 271 147 247 163 q 353 132 294 132 q 436 147 413 132 q 466 206 460 163 q 472 361 472 250 l 472 956 l 631 956 m 351 1006 q 240 1021 275 1006 q 197 1065 206 1036 q 188 1151 188 1093 q 197 1239 188 1210 q 240 1283 206 1268 q 351 1299 275 1299 q 465 1283 429 1299 q 509 1239 500 1268 q 518 1151 518 1210 q 509 1065 518 1093 q 465 1021 500 1036 q 351 1006 429 1006 m 351 1083 q 400 1089 386 1083 q 417 1108 414 1094 q 421 1151 421 1121 q 417 1195 421 1182 q 399 1215 414 1208 q 351 1221 385 1221 q 306 1215 319 1221 q 290 1195 293 1208 q 286 1151 286 1182 q 290 1108 286 1121 q 306 1089 293 1094 q 351 1083 319 1083 z "},"Ũ":{"ha":707,"x_min":76,"x_max":631,"o":"m 631 956 l 631 421 q 614 148 631 233 q 540 26 597 63 q 353 -11 483 -11 q 165 26 222 -11 q 92 148 108 63 q 76 421 76 233 l 76 956 l 235 956 l 235 361 q 241 206 235 250 q 271 147 247 163 q 353 132 294 132 q 436 147 413 132 q 466 206 460 163 q 472 361 472 250 l 472 956 l 631 956 m 561 1233 q 556 1133 561 1167 q 529 1080 550 1099 q 464 1061 508 1061 q 408 1068 436 1061 q 342 1088 379 1075 q 309 1098 338 1089 q 261 1107 281 1107 q 238 1094 243 1107 q 233 1046 233 1082 l 143 1046 q 149 1147 143 1113 q 175 1199 154 1181 q 242 1218 196 1218 q 296 1212 269 1218 q 364 1192 322 1206 q 444 1174 421 1174 q 467 1185 463 1174 q 471 1233 471 1196 l 561 1233 z "},"V":{"ha":661,"x_min":15,"x_max":644,"o":"m 215 0 l 15 956 l 178 956 l 328 175 l 338 175 l 486 956 l 644 956 l 444 0 l 215 0 z "},"W":{"ha":1024,"x_min":25,"x_max":997,"o":"m 629 0 l 515 707 l 507 707 l 393 0 l 176 0 l 25 956 l 188 956 l 288 185 l 297 185 l 419 956 l 610 956 l 733 185 l 742 185 l 840 956 l 997 956 l 846 0 l 629 0 z "},"Ẃ":{"ha":1024,"x_min":25,"x_max":997,"o":"m 629 0 l 515 707 l 507 707 l 393 0 l 176 0 l 25 956 l 188 956 l 288 185 l 297 185 l 419 956 l 610 956 l 733 185 l 742 185 l 840 956 l 997 956 l 846 0 l 629 0 m 436 1033 l 436 1040 l 510 1233 l 663 1233 l 663 1226 l 556 1033 l 436 1033 z "},"Ŵ":{"ha":1024,"x_min":25,"x_max":997,"o":"m 629 0 l 515 707 l 507 707 l 393 0 l 176 0 l 25 956 l 188 956 l 288 185 l 297 185 l 419 956 l 610 956 l 733 185 l 742 185 l 840 956 l 997 956 l 846 0 l 629 0 m 329 1049 l 329 1058 l 433 1233 l 590 1233 l 694 1058 l 694 1049 l 590 1049 l 511 1158 l 433 1049 l 329 1049 z "},"Ẅ":{"ha":1024,"x_min":25,"x_max":997,"o":"m 629 0 l 515 707 l 507 707 l 393 0 l 176 0 l 25 956 l 188 956 l 288 185 l 297 185 l 419 956 l 610 956 l 733 185 l 742 185 l 840 956 l 997 956 l 846 0 l 629 0 m 324 1083 l 324 1215 l 458 1215 l 458 1083 l 324 1083 m 567 1083 l 567 1215 l 700 1215 l 700 1083 l 567 1083 z "},"Ẁ":{"ha":1024,"x_min":25,"x_max":997,"o":"m 629 0 l 515 707 l 507 707 l 393 0 l 176 0 l 25 956 l 188 956 l 288 185 l 297 185 l 419 956 l 610 956 l 733 185 l 742 185 l 840 956 l 997 956 l 846 0 l 629 0 m 461 1033 l 356 1226 l 356 1233 l 508 1233 l 582 1040 l 582 1033 l 461 1033 z "},"X":{"ha":686,"x_min":19,"x_max":667,"o":"m 493 0 l 344 360 l 335 360 l 189 0 l 19 0 l 236 481 l 22 956 l 196 956 l 340 607 l 350 607 l 496 956 l 663 956 l 453 485 l 667 0 l 493 0 z "},"Y":{"ha":628,"x_min":3,"x_max":625,"o":"m 235 0 l 235 339 l 3 956 l 165 956 l 313 532 l 324 532 l 468 956 l 625 956 l 393 339 l 393 0 l 235 0 z "},"Ý":{"ha":628,"x_min":3,"x_max":625,"o":"m 235 0 l 235 339 l 3 956 l 165 956 l 313 532 l 324 532 l 468 956 l 625 956 l 393 339 l 393 0 l 235 0 m 253 1042 l 253 1049 l 326 1242 l 479 1242 l 479 1235 l 372 1042 l 253 1042 z "},"Ŷ":{"ha":628,"x_min":3,"x_max":625,"o":"m 235 0 l 235 339 l 3 956 l 165 956 l 313 532 l 324 532 l 468 956 l 625 956 l 393 339 l 393 0 l 235 0 m 131 1049 l 131 1058 l 235 1233 l 392 1233 l 496 1058 l 496 1049 l 392 1049 l 313 1158 l 235 1049 l 131 1049 z "},"Ÿ":{"ha":628,"x_min":3,"x_max":625,"o":"m 235 0 l 235 339 l 3 956 l 165 956 l 313 532 l 324 532 l 468 956 l 625 956 l 393 339 l 393 0 l 235 0 m 131 1083 l 131 1215 l 265 1215 l 265 1083 l 131 1083 m 374 1083 l 374 1215 l 507 1215 l 507 1083 l 374 1083 z "},"Ỵ":{"ha":628,"x_min":3,"x_max":625,"o":"m 235 0 l 235 339 l 3 956 l 165 956 l 313 532 l 324 532 l 468 956 l 625 956 l 393 339 l 393 0 l 235 0 m 229 -251 l 229 -86 l 397 -86 l 397 -251 l 229 -251 z "},"Ỳ":{"ha":628,"x_min":3,"x_max":625,"o":"m 235 0 l 235 339 l 3 956 l 165 956 l 313 532 l 324 532 l 468 956 l 625 956 l 393 339 l 393 0 l 235 0 m 263 1033 l 157 1226 l 157 1233 l 310 1233 l 383 1040 l 383 1033 l 263 1033 z "},"Ỷ":{"ha":628,"x_min":3,"x_max":625,"o":"m 235 0 l 235 339 l 3 956 l 165 956 l 313 532 l 324 532 l 468 956 l 625 956 l 393 339 l 393 0 l 235 0 m 229 1028 q 241 1080 229 1065 q 288 1111 253 1094 l 307 1119 q 342 1141 332 1132 q 351 1163 351 1150 q 341 1181 351 1176 q 299 1186 331 1186 q 164 1179 221 1186 l 164 1279 q 299 1294 246 1294 q 422 1266 381 1294 q 463 1172 463 1238 q 450 1106 463 1131 q 400 1064 438 1082 l 374 1050 q 335 1028 342 1035 q 329 1001 329 1021 l 229 1001 l 229 1028 z "},"Ȳ":{"ha":628,"x_min":3,"x_max":625,"o":"m 235 0 l 235 339 l 3 956 l 165 956 l 313 532 l 324 532 l 468 956 l 625 956 l 393 339 l 393 0 l 235 0 m 175 1094 l 175 1233 l 451 1233 l 451 1094 l 175 1094 z "},"Ỹ":{"ha":628,"x_min":3,"x_max":625,"o":"m 235 0 l 235 339 l 3 956 l 165 956 l 313 532 l 324 532 l 468 956 l 625 956 l 393 339 l 393 0 l 235 0 m 522 1233 q 517 1133 522 1167 q 490 1080 511 1099 q 425 1061 469 1061 q 369 1068 397 1061 q 303 1088 340 1075 q 270 1098 299 1089 q 222 1107 242 1107 q 199 1094 204 1107 q 194 1046 194 1082 l 104 1046 q 110 1147 104 1113 q 136 1199 115 1181 q 203 1218 157 1218 q 257 1212 231 1218 q 325 1192 283 1206 q 406 1174 382 1174 q 428 1185 424 1174 q 432 1233 432 1196 l 522 1233 z "},"Z":{"ha":600,"x_min":42,"x_max":558,"o":"m 42 0 l 42 135 l 375 813 l 53 813 l 53 956 l 556 956 l 556 821 l 221 142 l 558 142 l 558 0 l 42 0 z "},"Ź":{"ha":600,"x_min":42,"x_max":558,"o":"m 42 0 l 42 135 l 375 813 l 53 813 l 53 956 l 556 956 l 556 821 l 221 142 l 558 142 l 558 0 l 42 0 m 224 1033 l 224 1040 l 297 1233 l 450 1233 l 450 1226 l 343 1033 l 224 1033 z "},"Ž":{"ha":600,"x_min":42,"x_max":558,"o":"m 42 0 l 42 135 l 375 813 l 53 813 l 53 956 l 556 956 l 556 821 l 221 142 l 558 142 l 558 0 l 42 0 m 236 1040 l 131 1217 l 131 1226 l 236 1226 l 314 1117 l 392 1226 l 497 1226 l 497 1217 l 392 1040 l 236 1040 z "},"Ż":{"ha":600,"x_min":42,"x_max":558,"o":"m 42 0 l 42 135 l 375 813 l 53 813 l 53 956 l 556 956 l 556 821 l 221 142 l 558 142 l 558 0 l 42 0 m 232 1083 l 232 1215 l 365 1215 l 365 1083 l 232 1083 z "},"Ẓ":{"ha":600,"x_min":42,"x_max":558,"o":"m 42 0 l 42 135 l 375 813 l 53 813 l 53 956 l 556 956 l 556 821 l 221 142 l 558 142 l 558 0 l 42 0 m 215 -251 l 215 -86 l 383 -86 l 383 -251 l 215 -251 z "},"a":{"ha":586,"x_min":40,"x_max":515,"o":"m 204 -11 q 78 39 117 -11 q 40 200 40 89 q 57 329 40 282 q 112 397 74 376 q 218 418 150 418 q 365 413 271 418 l 365 447 q 355 544 365 515 q 319 582 344 574 q 233 590 293 590 q 74 579 174 590 l 74 697 q 276 719 171 719 q 427 693 376 719 q 497 608 478 667 q 515 439 515 549 l 515 0 l 376 0 l 371 88 l 363 88 q 204 -11 329 -11 m 269 125 q 314 131 296 125 q 346 153 332 136 q 365 269 365 179 l 365 307 l 261 307 q 216 300 231 307 q 195 274 201 293 q 189 214 189 254 q 204 142 189 160 q 269 125 219 125 z "},"á":{"ha":586,"x_min":40,"x_max":515,"o":"m 204 -11 q 78 39 117 -11 q 40 200 40 89 q 57 329 40 282 q 112 397 74 376 q 218 418 150 418 q 365 413 271 418 l 365 447 q 355 544 365 515 q 319 582 344 574 q 233 590 293 590 q 74 579 174 590 l 74 697 q 276 719 171 719 q 427 693 376 719 q 497 608 478 667 q 515 439 515 549 l 515 0 l 376 0 l 371 88 l 363 88 q 204 -11 329 -11 m 269 125 q 314 131 296 125 q 346 153 332 136 q 365 269 365 179 l 365 307 l 261 307 q 216 300 231 307 q 195 274 201 293 q 189 214 189 254 q 204 142 189 160 q 269 125 219 125 m 222 832 l 222 839 l 296 1032 l 449 1032 l 449 1025 l 342 832 l 222 832 z "},"ă":{"ha":586,"x_min":40,"x_max":515,"o":"m 204 -11 q 78 39 117 -11 q 40 200 40 89 q 57 329 40 282 q 112 397 74 376 q 218 418 150 418 q 365 413 271 418 l 365 447 q 355 544 365 515 q 319 582 344 574 q 233 590 293 590 q 74 579 174 590 l 74 697 q 276 719 171 719 q 427 693 376 719 q 497 608 478 667 q 515 439 515 549 l 515 0 l 376 0 l 371 88 l 363 88 q 204 -11 329 -11 m 269 125 q 314 131 296 125 q 346 153 332 136 q 365 269 365 179 l 365 307 l 261 307 q 216 300 231 307 q 195 274 201 293 q 189 214 189 254 q 204 142 189 160 q 269 125 219 125 m 467 1032 q 455 928 467 968 q 405 865 443 889 q 292 842 367 842 q 181 865 218 842 q 132 928 143 888 q 121 1032 121 968 l 217 1032 q 220 974 217 993 q 240 944 224 956 q 292 933 256 933 q 344 944 328 933 q 365 975 361 956 q 369 1032 369 994 l 467 1032 z "},"ắ":{"ha":586,"x_min":40,"x_max":515,"o":"m 204 -11 q 78 39 117 -11 q 40 200 40 89 q 57 329 40 282 q 112 397 74 376 q 218 418 150 418 q 365 413 271 418 l 365 447 q 355 544 365 515 q 319 582 344 574 q 233 590 293 590 q 74 579 174 590 l 74 697 q 276 719 171 719 q 427 693 376 719 q 497 608 478 667 q 515 439 515 549 l 515 0 l 376 0 l 371 88 l 363 88 q 204 -11 329 -11 m 269 125 q 314 131 296 125 q 346 153 332 136 q 365 269 365 179 l 365 307 l 261 307 q 216 300 231 307 q 195 274 201 293 q 189 214 189 254 q 204 142 189 160 q 269 125 219 125 m 467 1032 q 455 928 467 968 q 405 865 443 889 q 292 842 367 842 q 181 865 218 842 q 132 928 143 888 q 121 1032 121 968 l 217 1032 q 220 974 217 993 q 240 944 224 956 q 292 933 256 933 q 344 944 328 933 q 365 975 361 956 q 369 1032 369 994 l 467 1032 m 229 1072 l 229 1079 l 303 1272 l 456 1272 l 456 1265 l 349 1072 l 229 1072 z "},"ặ":{"ha":586,"x_min":40,"x_max":515,"o":"m 204 -11 q 78 39 117 -11 q 40 200 40 89 q 57 329 40 282 q 112 397 74 376 q 218 418 150 418 q 365 413 271 418 l 365 447 q 355 544 365 515 q 319 582 344 574 q 233 590 293 590 q 74 579 174 590 l 74 697 q 276 719 171 719 q 427 693 376 719 q 497 608 478 667 q 515 439 515 549 l 515 0 l 376 0 l 371 88 l 363 88 q 204 -11 329 -11 m 269 125 q 314 131 296 125 q 346 153 332 136 q 365 269 365 179 l 365 307 l 261 307 q 216 300 231 307 q 195 274 201 293 q 189 214 189 254 q 204 142 189 160 q 269 125 219 125 m 210 -251 l 210 -86 l 378 -86 l 378 -251 l 210 -251 m 467 1032 q 455 928 467 968 q 405 865 443 889 q 292 842 367 842 q 181 865 218 842 q 132 928 143 888 q 121 1032 121 968 l 217 1032 q 220 974 217 993 q 240 944 224 956 q 292 933 256 933 q 344 944 328 933 q 365 975 361 956 q 369 1032 369 994 l 467 1032 z "},"ằ":{"ha":586,"x_min":40,"x_max":515,"o":"m 204 -11 q 78 39 117 -11 q 40 200 40 89 q 57 329 40 282 q 112 397 74 376 q 218 418 150 418 q 365 413 271 418 l 365 447 q 355 544 365 515 q 319 582 344 574 q 233 590 293 590 q 74 579 174 590 l 74 697 q 276 719 171 719 q 427 693 376 719 q 497 608 478 667 q 515 439 515 549 l 515 0 l 376 0 l 371 88 l 363 88 q 204 -11 329 -11 m 269 125 q 314 131 296 125 q 346 153 332 136 q 365 269 365 179 l 365 307 l 261 307 q 216 300 231 307 q 195 274 201 293 q 189 214 189 254 q 204 142 189 160 q 269 125 219 125 m 467 1032 q 455 928 467 968 q 405 865 443 889 q 292 842 367 842 q 181 865 218 842 q 132 928 143 888 q 121 1032 121 968 l 217 1032 q 220 974 217 993 q 240 944 224 956 q 292 933 256 933 q 344 944 328 933 q 365 975 361 956 q 369 1032 369 994 l 467 1032 m 235 1072 l 129 1265 l 129 1272 l 282 1272 l 356 1079 l 356 1072 l 235 1072 z "},"ẳ":{"ha":586,"x_min":40,"x_max":515,"o":"m 204 -11 q 78 39 117 -11 q 40 200 40 89 q 57 329 40 282 q 112 397 74 376 q 218 418 150 418 q 365 413 271 418 l 365 447 q 355 544 365 515 q 319 582 344 574 q 233 590 293 590 q 74 579 174 590 l 74 697 q 276 719 171 719 q 427 693 376 719 q 497 608 478 667 q 515 439 515 549 l 515 0 l 376 0 l 371 88 l 363 88 q 204 -11 329 -11 m 269 125 q 314 131 296 125 q 346 153 332 136 q 365 269 365 179 l 365 307 l 261 307 q 216 300 231 307 q 195 274 201 293 q 189 214 189 254 q 204 142 189 160 q 269 125 219 125 m 464 1032 q 452 928 464 968 q 402 865 440 889 q 289 842 364 842 q 178 865 215 842 q 129 928 140 888 q 118 1032 118 968 l 214 1032 q 217 974 214 993 q 237 944 221 956 q 289 933 253 933 q 342 944 325 933 q 363 975 358 956 q 367 1032 367 994 l 464 1032 m 235 1058 q 247 1112 235 1097 q 293 1142 260 1126 l 313 1150 q 347 1172 338 1163 q 357 1193 357 1181 q 347 1213 357 1207 q 304 1218 336 1218 q 169 1210 238 1218 l 169 1310 q 304 1325 251 1325 q 427 1297 386 1325 q 468 1204 468 1268 q 456 1138 468 1163 q 406 1094 443 1113 l 379 1082 q 341 1059 347 1067 q 335 1033 335 1051 l 235 1033 l 235 1058 z "},"ẵ":{"ha":586,"x_min":40,"x_max":515,"o":"m 204 -11 q 78 39 117 -11 q 40 200 40 89 q 57 329 40 282 q 112 397 74 376 q 218 418 150 418 q 365 413 271 418 l 365 447 q 355 544 365 515 q 319 582 344 574 q 233 590 293 590 q 74 579 174 590 l 74 697 q 276 719 171 719 q 427 693 376 719 q 497 608 478 667 q 515 439 515 549 l 515 0 l 376 0 l 371 88 l 363 88 q 204 -11 329 -11 m 269 125 q 314 131 296 125 q 346 153 332 136 q 365 269 365 179 l 365 307 l 261 307 q 216 300 231 307 q 195 274 201 293 q 189 214 189 254 q 204 142 189 160 q 269 125 219 125 m 464 1032 q 452 928 464 968 q 402 865 440 889 q 289 842 364 842 q 178 865 215 842 q 129 928 140 888 q 118 1032 118 968 l 214 1032 q 217 974 214 993 q 237 944 221 956 q 289 933 253 933 q 342 944 325 933 q 363 975 358 956 q 367 1032 367 994 l 464 1032 m 503 1272 q 497 1172 503 1206 q 471 1119 492 1138 q 406 1100 450 1100 q 349 1107 378 1100 q 283 1126 321 1114 q 251 1137 279 1128 q 203 1146 222 1146 q 180 1133 185 1146 q 175 1085 175 1121 l 85 1085 q 90 1185 85 1151 q 117 1238 96 1219 q 183 1257 138 1257 q 238 1251 211 1257 q 306 1231 264 1244 q 386 1213 363 1213 q 408 1224 404 1213 q 413 1272 413 1235 l 503 1272 z "},"ǎ":{"ha":586,"x_min":40,"x_max":515,"o":"m 204 -11 q 78 39 117 -11 q 40 200 40 89 q 57 329 40 282 q 112 397 74 376 q 218 418 150 418 q 365 413 271 418 l 365 447 q 355 544 365 515 q 319 582 344 574 q 233 590 293 590 q 74 579 174 590 l 74 697 q 276 719 171 719 q 427 693 376 719 q 497 608 478 667 q 515 439 515 549 l 515 0 l 376 0 l 371 88 l 363 88 q 204 -11 329 -11 m 269 125 q 314 131 296 125 q 346 153 332 136 q 365 269 365 179 l 365 307 l 261 307 q 216 300 231 307 q 195 274 201 293 q 189 214 189 254 q 204 142 189 160 q 269 125 219 125 m 217 846 l 111 1022 l 111 1032 l 217 1032 l 294 922 l 372 1032 l 478 1032 l 478 1022 l 372 846 l 217 846 z "},"â":{"ha":586,"x_min":40,"x_max":515,"o":"m 204 -11 q 78 39 117 -11 q 40 200 40 89 q 57 329 40 282 q 112 397 74 376 q 218 418 150 418 q 365 413 271 418 l 365 447 q 355 544 365 515 q 319 582 344 574 q 233 590 293 590 q 74 579 174 590 l 74 697 q 276 719 171 719 q 427 693 376 719 q 497 608 478 667 q 515 439 515 549 l 515 0 l 376 0 l 371 88 l 363 88 q 204 -11 329 -11 m 269 125 q 314 131 296 125 q 346 153 332 136 q 365 269 365 179 l 365 307 l 261 307 q 216 300 231 307 q 195 274 201 293 q 189 214 189 254 q 204 142 189 160 q 269 125 219 125 m 110 847 l 110 857 l 214 1032 l 371 1032 l 475 857 l 475 847 l 371 847 l 292 957 l 214 847 l 110 847 z "},"ấ":{"ha":586,"x_min":40,"x_max":556,"o":"m 204 -11 q 78 39 117 -11 q 40 200 40 89 q 57 329 40 282 q 112 397 74 376 q 218 418 150 418 q 365 413 271 418 l 365 447 q 355 544 365 515 q 319 582 344 574 q 233 590 293 590 q 74 579 174 590 l 74 697 q 276 719 171 719 q 427 693 376 719 q 497 608 478 667 q 515 439 515 549 l 515 0 l 376 0 l 371 88 l 363 88 q 204 -11 329 -11 m 269 125 q 314 131 296 125 q 346 153 332 136 q 365 269 365 179 l 365 307 l 261 307 q 216 300 231 307 q 195 274 201 293 q 189 214 189 254 q 204 142 189 160 q 269 125 219 125 m 114 847 l 114 857 l 218 1032 l 375 1032 l 479 857 l 479 847 l 375 847 l 296 957 l 218 847 l 114 847 m 329 1071 l 329 1078 l 403 1271 l 556 1271 l 556 1264 l 449 1071 l 329 1071 z "},"ậ":{"ha":586,"x_min":40,"x_max":515,"o":"m 204 -11 q 78 39 117 -11 q 40 200 40 89 q 57 329 40 282 q 112 397 74 376 q 218 418 150 418 q 365 413 271 418 l 365 447 q 355 544 365 515 q 319 582 344 574 q 233 590 293 590 q 74 579 174 590 l 74 697 q 276 719 171 719 q 427 693 376 719 q 497 608 478 667 q 515 439 515 549 l 515 0 l 376 0 l 371 88 l 363 88 q 204 -11 329 -11 m 269 125 q 314 131 296 125 q 346 153 332 136 q 365 269 365 179 l 365 307 l 261 307 q 216 300 231 307 q 195 274 201 293 q 189 214 189 254 q 204 142 189 160 q 269 125 219 125 m 210 -251 l 210 -86 l 378 -86 l 378 -251 l 210 -251 m 111 847 l 111 857 l 215 1032 l 372 1032 l 476 857 l 476 847 l 372 847 l 293 957 l 215 847 l 111 847 z "},"ầ":{"ha":586,"x_min":40,"x_max":515,"o":"m 204 -11 q 78 39 117 -11 q 40 200 40 89 q 57 329 40 282 q 112 397 74 376 q 218 418 150 418 q 365 413 271 418 l 365 447 q 355 544 365 515 q 319 582 344 574 q 233 590 293 590 q 74 579 174 590 l 74 697 q 276 719 171 719 q 427 693 376 719 q 497 608 478 667 q 515 439 515 549 l 515 0 l 376 0 l 371 88 l 363 88 q 204 -11 329 -11 m 269 125 q 314 131 296 125 q 346 153 332 136 q 365 269 365 179 l 365 307 l 261 307 q 216 300 231 307 q 195 274 201 293 q 189 214 189 254 q 204 142 189 160 q 269 125 219 125 m 104 847 l 104 857 l 208 1032 l 365 1032 l 469 857 l 469 847 l 365 847 l 286 957 l 208 847 l 104 847 m 361 1071 l 256 1264 l 256 1271 l 408 1271 l 482 1078 l 482 1071 l 361 1071 z "},"ẩ":{"ha":586,"x_min":40,"x_max":569,"o":"m 204 -11 q 78 39 117 -11 q 40 200 40 89 q 57 329 40 282 q 112 397 74 376 q 218 418 150 418 q 365 413 271 418 l 365 447 q 355 544 365 515 q 319 582 344 574 q 233 590 293 590 q 74 579 174 590 l 74 697 q 276 719 171 719 q 427 693 376 719 q 497 608 478 667 q 515 439 515 549 l 515 0 l 376 0 l 371 88 l 363 88 q 204 -11 329 -11 m 269 125 q 314 131 296 125 q 346 153 332 136 q 365 269 365 179 l 365 307 l 261 307 q 216 300 231 307 q 195 274 201 293 q 189 214 189 254 q 204 142 189 160 q 269 125 219 125 m 111 847 l 111 857 l 215 1032 l 372 1032 l 476 857 l 476 847 l 372 847 l 293 957 l 215 847 l 111 847 m 336 1083 q 349 1137 336 1122 q 394 1167 361 1151 l 414 1175 q 449 1197 439 1188 q 458 1218 458 1206 q 448 1238 458 1232 q 406 1243 438 1243 q 271 1235 339 1243 l 271 1335 q 406 1350 353 1350 q 528 1322 488 1350 q 569 1229 569 1293 q 557 1163 569 1188 q 507 1119 544 1138 l 481 1107 q 442 1084 449 1092 q 436 1058 436 1076 l 336 1058 l 336 1083 z "},"ẫ":{"ha":586,"x_min":40,"x_max":515,"o":"m 204 -11 q 78 39 117 -11 q 40 200 40 89 q 57 329 40 282 q 112 397 74 376 q 218 418 150 418 q 365 413 271 418 l 365 447 q 355 544 365 515 q 319 582 344 574 q 233 590 293 590 q 74 579 174 590 l 74 697 q 276 719 171 719 q 427 693 376 719 q 497 608 478 667 q 515 439 515 549 l 515 0 l 376 0 l 371 88 l 363 88 q 204 -11 329 -11 m 269 125 q 314 131 296 125 q 346 153 332 136 q 365 269 365 179 l 365 307 l 261 307 q 216 300 231 307 q 195 274 201 293 q 189 214 189 254 q 204 142 189 160 q 269 125 219 125 m 108 847 l 108 857 l 213 1032 l 369 1032 l 474 857 l 474 847 l 369 847 l 290 957 l 213 847 l 108 847 m 503 1272 q 497 1172 503 1206 q 471 1119 492 1138 q 406 1100 450 1100 q 349 1107 378 1100 q 283 1126 321 1114 q 251 1137 279 1128 q 203 1146 222 1146 q 180 1133 185 1146 q 175 1085 175 1121 l 85 1085 q 90 1185 85 1151 q 117 1238 96 1219 q 183 1257 138 1257 q 238 1251 211 1257 q 306 1231 264 1244 q 386 1213 363 1213 q 408 1224 404 1213 q 413 1272 413 1235 l 503 1272 z "},"ȁ":{"ha":586,"x_min":40,"x_max":515,"o":"m 204 -11 q 78 39 117 -11 q 40 200 40 89 q 57 329 40 282 q 112 397 74 376 q 218 418 150 418 q 365 413 271 418 l 365 447 q 355 544 365 515 q 319 582 344 574 q 233 590 293 590 q 74 579 174 590 l 74 697 q 276 719 171 719 q 427 693 376 719 q 497 608 478 667 q 515 439 515 549 l 515 0 l 376 0 l 371 88 l 363 88 q 204 -11 329 -11 m 269 125 q 314 131 296 125 q 346 153 332 136 q 365 269 365 179 l 365 307 l 261 307 q 216 300 231 307 q 195 274 201 293 q 189 214 189 254 q 204 142 189 160 q 269 125 219 125 m 251 846 l 151 846 l 60 1013 l 60 1018 l 188 1018 l 251 851 l 251 846 m 450 846 l 350 846 l 258 1013 l 258 1018 l 385 1018 l 450 851 l 450 846 z "},"ä":{"ha":586,"x_min":40,"x_max":515,"o":"m 204 -11 q 78 39 117 -11 q 40 200 40 89 q 57 329 40 282 q 112 397 74 376 q 218 418 150 418 q 365 413 271 418 l 365 447 q 355 544 365 515 q 319 582 344 574 q 233 590 293 590 q 74 579 174 590 l 74 697 q 276 719 171 719 q 427 693 376 719 q 497 608 478 667 q 515 439 515 549 l 515 0 l 376 0 l 371 88 l 363 88 q 204 -11 329 -11 m 269 125 q 314 131 296 125 q 346 153 332 136 q 365 269 365 179 l 365 307 l 261 307 q 216 300 231 307 q 195 274 201 293 q 189 214 189 254 q 204 142 189 160 q 269 125 219 125 m 106 871 l 106 1003 l 240 1003 l 240 871 l 106 871 m 349 871 l 349 1003 l 482 1003 l 482 871 l 349 871 z "},"ạ":{"ha":586,"x_min":40,"x_max":515,"o":"m 204 -11 q 78 39 117 -11 q 40 200 40 89 q 57 329 40 282 q 112 397 74 376 q 218 418 150 418 q 365 413 271 418 l 365 447 q 355 544 365 515 q 319 582 344 574 q 233 590 293 590 q 74 579 174 590 l 74 697 q 276 719 171 719 q 427 693 376 719 q 497 608 478 667 q 515 439 515 549 l 515 0 l 376 0 l 371 88 l 363 88 q 204 -11 329 -11 m 269 125 q 314 131 296 125 q 346 153 332 136 q 365 269 365 179 l 365 307 l 261 307 q 216 300 231 307 q 195 274 201 293 q 189 214 189 254 q 204 142 189 160 q 269 125 219 125 m 210 -251 l 210 -86 l 378 -86 l 378 -251 l 210 -251 z "},"à":{"ha":586,"x_min":40,"x_max":515,"o":"m 204 -11 q 78 39 117 -11 q 40 200 40 89 q 57 329 40 282 q 112 397 74 376 q 218 418 150 418 q 365 413 271 418 l 365 447 q 355 544 365 515 q 319 582 344 574 q 233 590 293 590 q 74 579 174 590 l 74 697 q 276 719 171 719 q 427 693 376 719 q 497 608 478 667 q 515 439 515 549 l 515 0 l 376 0 l 371 88 l 363 88 q 204 -11 329 -11 m 269 125 q 314 131 296 125 q 346 153 332 136 q 365 269 365 179 l 365 307 l 261 307 q 216 300 231 307 q 195 274 201 293 q 189 214 189 254 q 204 142 189 160 q 269 125 219 125 m 247 832 l 142 1025 l 142 1032 l 294 1032 l 368 839 l 368 832 l 247 832 z "},"ả":{"ha":586,"x_min":40,"x_max":515,"o":"m 204 -11 q 78 39 117 -11 q 40 200 40 89 q 57 329 40 282 q 112 397 74 376 q 218 418 150 418 q 365 413 271 418 l 365 447 q 355 544 365 515 q 319 582 344 574 q 233 590 293 590 q 74 579 174 590 l 74 697 q 276 719 171 719 q 427 693 376 719 q 497 608 478 667 q 515 439 515 549 l 515 0 l 376 0 l 371 88 l 363 88 q 204 -11 329 -11 m 269 125 q 314 131 296 125 q 346 153 332 136 q 365 269 365 179 l 365 307 l 261 307 q 216 300 231 307 q 195 274 201 293 q 189 214 189 254 q 204 142 189 160 q 269 125 219 125 m 210 872 q 222 926 210 911 q 268 956 235 940 l 288 964 q 322 985 313 976 q 332 1007 332 994 q 322 1026 332 1021 q 279 1032 311 1032 q 144 1024 213 1032 l 144 1124 q 279 1139 226 1139 q 402 1110 361 1139 q 443 1018 443 1082 q 431 951 443 976 q 381 908 418 926 l 354 896 q 316 873 322 881 q 310 847 310 865 l 210 847 l 210 872 z "},"ȃ":{"ha":586,"x_min":40,"x_max":515,"o":"m 204 -11 q 78 39 117 -11 q 40 200 40 89 q 57 329 40 282 q 112 397 74 376 q 218 418 150 418 q 365 413 271 418 l 365 447 q 355 544 365 515 q 319 582 344 574 q 233 590 293 590 q 74 579 174 590 l 74 697 q 276 719 171 719 q 427 693 376 719 q 497 608 478 667 q 515 439 515 549 l 515 0 l 376 0 l 371 88 l 363 88 q 204 -11 329 -11 m 269 125 q 314 131 296 125 q 346 153 332 136 q 365 269 365 179 l 365 307 l 261 307 q 216 300 231 307 q 195 274 201 293 q 189 214 189 254 q 204 142 189 160 q 269 125 219 125 m 121 850 q 133 953 121 914 q 183 1017 144 993 q 296 1040 221 1040 q 407 1017 369 1040 q 456 954 444 994 q 467 850 467 914 l 371 850 q 367 908 371 889 q 348 938 364 926 q 296 949 332 949 q 243 938 260 949 q 222 907 226 926 q 218 850 218 888 l 121 850 z "},"ā":{"ha":586,"x_min":40,"x_max":515,"o":"m 204 -11 q 78 39 117 -11 q 40 200 40 89 q 57 329 40 282 q 112 397 74 376 q 218 418 150 418 q 365 413 271 418 l 365 447 q 355 544 365 515 q 319 582 344 574 q 233 590 293 590 q 74 579 174 590 l 74 697 q 276 719 171 719 q 427 693 376 719 q 497 608 478 667 q 515 439 515 549 l 515 0 l 376 0 l 371 88 l 363 88 q 204 -11 329 -11 m 269 125 q 314 131 296 125 q 346 153 332 136 q 365 269 365 179 l 365 307 l 261 307 q 216 300 231 307 q 195 274 201 293 q 189 214 189 254 q 204 142 189 160 q 269 125 219 125 m 156 893 l 156 1032 l 432 1032 l 432 893 l 156 893 z "},"ą":{"ha":586,"x_min":40,"x_max":518,"o":"m 500 -182 q 518 -181 514 -182 l 518 -268 q 456 -272 482 -272 q 352 -241 383 -272 q 321 -161 321 -210 q 342 -76 321 -118 q 400 0 364 -35 l 376 0 l 371 88 l 363 88 q 204 -11 329 -11 q 78 39 117 -11 q 40 200 40 89 q 57 329 40 282 q 112 397 74 376 q 218 418 150 418 q 365 413 271 418 l 365 447 q 355 544 365 515 q 319 582 344 574 q 233 590 293 590 q 74 579 203 590 l 74 697 q 276 719 171 719 q 427 693 376 719 q 497 608 478 667 q 515 439 515 549 l 515 0 q 465 -59 488 -22 q 442 -131 442 -96 q 500 -182 442 -182 m 365 307 l 261 307 q 216 300 231 307 q 195 274 201 293 q 189 214 189 254 q 204 142 189 160 q 269 125 219 125 q 314 131 296 125 q 346 153 332 136 q 365 269 365 179 l 365 307 z "},"å":{"ha":586,"x_min":40,"x_max":515,"o":"m 204 -11 q 78 39 117 -11 q 40 200 40 89 q 57 329 40 282 q 112 397 74 376 q 218 418 150 418 q 365 413 271 418 l 365 447 q 355 544 365 515 q 319 582 344 574 q 233 590 293 590 q 74 579 174 590 l 74 697 q 276 719 171 719 q 427 693 376 719 q 497 608 478 667 q 515 439 515 549 l 515 0 l 376 0 l 371 88 l 363 88 q 204 -11 329 -11 m 269 125 q 314 131 296 125 q 346 153 332 136 q 365 269 365 179 l 365 307 l 261 307 q 216 300 231 307 q 195 274 201 293 q 189 214 189 254 q 204 142 189 160 q 269 125 219 125 m 290 813 q 179 828 214 813 q 135 872 144 843 q 126 958 126 900 q 135 1046 126 1017 q 179 1090 144 1075 q 290 1106 214 1106 q 403 1090 368 1106 q 448 1046 439 1075 q 457 958 457 1017 q 448 872 457 900 q 403 828 439 843 q 290 813 368 813 m 290 890 q 339 896 325 890 q 356 915 353 901 q 360 958 360 928 q 356 1002 360 989 q 338 1022 353 1015 q 290 1028 324 1028 q 245 1022 258 1028 q 228 1002 232 1015 q 225 958 225 989 q 228 915 225 928 q 245 896 232 901 q 290 890 258 890 z "},"ǻ":{"ha":586,"x_min":40,"x_max":515,"o":"m 204 -11 q 78 39 117 -11 q 40 200 40 89 q 57 329 40 282 q 112 397 74 376 q 218 418 150 418 q 365 413 271 418 l 365 447 q 355 544 365 515 q 319 582 344 574 q 233 590 293 590 q 74 579 174 590 l 74 697 q 276 719 171 719 q 427 693 376 719 q 497 608 478 667 q 515 439 515 549 l 515 0 l 376 0 l 371 88 l 363 88 q 204 -11 329 -11 m 269 125 q 314 131 296 125 q 346 153 332 136 q 365 269 365 179 l 365 307 l 261 307 q 216 300 231 307 q 195 274 201 293 q 189 214 189 254 q 204 142 189 160 q 269 125 219 125 m 293 846 q 182 861 217 846 q 138 905 147 876 q 129 992 129 933 q 138 1079 129 1050 q 182 1124 147 1108 q 293 1139 217 1139 q 406 1124 371 1139 q 451 1079 442 1108 q 460 992 460 1050 q 451 905 460 933 q 406 861 442 876 q 293 846 371 846 m 293 924 q 342 929 328 924 q 359 948 356 935 q 363 992 363 961 q 359 1035 363 1022 q 341 1055 356 1049 q 293 1061 326 1061 q 248 1055 261 1061 q 231 1035 235 1049 q 228 992 228 1022 q 231 948 228 961 q 248 929 235 935 q 293 924 261 924 m 226 1179 l 226 1186 l 300 1379 l 453 1379 l 453 1372 l 346 1179 l 226 1179 z "},"ã":{"ha":586,"x_min":40,"x_max":515,"o":"m 204 -11 q 78 39 117 -11 q 40 200 40 89 q 57 329 40 282 q 112 397 74 376 q 218 418 150 418 q 365 413 271 418 l 365 447 q 355 544 365 515 q 319 582 344 574 q 233 590 293 590 q 74 579 174 590 l 74 697 q 276 719 171 719 q 427 693 376 719 q 497 608 478 667 q 515 439 515 549 l 515 0 l 376 0 l 371 88 l 363 88 q 204 -11 329 -11 m 269 125 q 314 131 296 125 q 346 153 332 136 q 365 269 365 179 l 365 307 l 261 307 q 216 300 231 307 q 195 274 201 293 q 189 214 189 254 q 204 142 189 160 q 269 125 219 125 m 501 1032 q 496 931 501 965 q 469 878 490 897 q 404 860 449 860 q 348 867 376 860 q 282 886 319 874 q 249 897 278 888 q 201 906 221 906 q 178 893 183 906 q 174 844 174 881 l 83 844 q 89 945 83 911 q 115 998 94 979 q 182 1017 136 1017 q 236 1010 210 1017 q 304 990 263 1004 q 385 972 361 972 q 407 983 403 972 q 411 1032 411 994 l 501 1032 z "},"æ":{"ha":900,"x_min":40,"x_max":844,"o":"m 844 303 l 514 303 q 522 178 514 214 q 558 131 531 143 q 656 118 586 118 q 826 129 722 118 l 826 10 q 734 -6 790 0 q 625 -11 678 -11 q 503 5 549 -11 q 431 57 457 21 q 347 4 397 18 q 236 -10 297 -10 q 84 40 128 -10 q 40 200 40 89 q 56 328 40 282 q 111 396 72 375 q 218 417 150 417 q 364 414 283 417 l 364 447 q 354 544 364 515 q 318 582 344 574 q 231 590 292 590 q 72 578 175 590 l 72 697 q 275 719 189 719 q 443 667 392 719 q 613 719 499 719 q 772 684 724 719 q 833 578 821 649 q 844 353 844 507 l 844 303 m 611 590 q 547 578 567 590 q 522 531 528 567 q 514 415 515 496 l 700 415 q 693 531 700 496 q 668 578 686 567 q 611 590 650 590 m 364 304 l 256 304 q 210 297 225 304 q 190 272 196 290 q 183 213 183 253 q 199 137 183 156 q 265 118 214 118 q 321 128 300 118 q 351 165 342 138 q 364 265 364 196 l 364 304 z "},"ǽ":{"ha":900,"x_min":40,"x_max":844,"o":"m 844 303 l 514 303 q 522 178 514 214 q 558 131 531 143 q 656 118 586 118 q 826 129 722 118 l 826 10 q 734 -6 790 0 q 625 -11 678 -11 q 503 5 549 -11 q 431 57 457 21 q 347 4 397 18 q 236 -10 297 -10 q 84 40 128 -10 q 40 200 40 89 q 56 328 40 282 q 111 396 72 375 q 218 417 150 417 q 364 414 283 417 l 364 447 q 354 544 364 515 q 318 582 344 574 q 231 590 292 590 q 72 578 175 590 l 72 697 q 275 719 189 719 q 443 667 392 719 q 613 719 499 719 q 772 684 724 719 q 833 578 821 649 q 844 353 844 507 l 844 303 m 611 590 q 547 578 567 590 q 522 531 528 567 q 514 415 515 496 l 700 415 q 693 531 700 496 q 668 578 686 567 q 611 590 650 590 m 364 304 l 256 304 q 210 297 225 304 q 190 272 196 290 q 183 213 183 253 q 199 137 183 156 q 265 118 214 118 q 321 128 300 118 q 351 165 342 138 q 364 265 364 196 l 364 304 m 379 832 l 379 839 l 453 1032 l 606 1032 l 606 1025 l 499 832 l 379 832 z "},"b":{"ha":618,"x_min":74,"x_max":563,"o":"m 379 -11 q 226 88 256 -11 l 217 88 l 211 0 l 74 0 l 74 1032 l 224 1032 l 224 632 l 232 632 q 382 719 265 719 q 492 685 454 719 q 547 574 531 651 q 563 353 563 496 q 546 129 563 207 q 490 20 529 51 q 379 -11 451 -11 m 315 128 q 381 141 363 128 q 406 198 400 154 q 413 354 413 242 q 406 510 413 465 q 381 567 400 554 q 315 581 363 581 q 264 570 282 581 q 236 532 246 560 q 224 354 224 489 q 233 186 224 226 q 260 140 242 153 q 315 128 279 128 z "},"c":{"ha":475,"x_min":54,"x_max":435,"o":"m 435 10 q 283 -11 365 -11 q 133 26 182 -11 q 69 139 85 64 q 54 354 54 214 q 72 571 54 494 q 138 683 89 647 q 282 719 186 719 q 365 714 324 719 q 431 699 407 708 l 431 579 q 322 590 372 590 q 244 574 268 590 q 213 511 221 558 q 204 354 204 464 q 213 197 204 244 q 244 133 221 149 q 322 118 268 118 q 435 129 376 118 l 435 10 z "},"ć":{"ha":475,"x_min":54,"x_max":435,"o":"m 435 10 q 283 -11 365 -11 q 133 26 182 -11 q 69 139 85 64 q 54 354 54 214 q 72 571 54 494 q 138 683 89 647 q 282 719 186 719 q 365 714 324 719 q 431 699 407 708 l 431 579 q 322 590 372 590 q 244 574 268 590 q 213 511 221 558 q 204 354 204 464 q 213 197 204 244 q 244 133 221 149 q 322 118 268 118 q 435 129 376 118 l 435 10 m 168 832 l 168 839 l 242 1032 l 394 1032 l 394 1025 l 288 832 l 168 832 z "},"č":{"ha":475,"x_min":54,"x_max":435,"o":"m 435 10 q 283 -11 365 -11 q 133 26 182 -11 q 69 139 85 64 q 54 354 54 214 q 72 571 54 494 q 138 683 89 647 q 282 719 186 719 q 365 714 324 719 q 431 699 407 708 l 431 579 q 322 590 372 590 q 244 574 268 590 q 213 511 221 558 q 204 354 204 464 q 213 197 204 244 q 244 133 221 149 q 322 118 268 118 q 435 129 376 118 l 435 10 m 161 846 l 56 1022 l 56 1032 l 161 1032 l 239 922 l 317 1032 l 422 1032 l 422 1022 l 317 846 l 161 846 z "},"ç":{"ha":475,"x_min":54,"x_max":435,"o":"m 435 10 q 290 -11 375 -8 l 242 -264 l 106 -264 l 106 -257 l 189 0 q 102 59 131 17 q 64 170 74 101 q 54 354 54 239 q 72 571 54 494 q 138 683 89 647 q 282 719 186 719 q 365 714 324 719 q 431 699 407 708 l 431 579 q 322 590 372 590 q 244 574 268 590 q 213 511 221 558 q 204 354 204 464 q 213 197 204 244 q 244 133 221 149 q 322 118 268 118 q 435 129 376 118 l 435 10 z "},"ĉ":{"ha":475,"x_min":54,"x_max":435,"o":"m 435 10 q 283 -11 365 -11 q 133 26 182 -11 q 69 139 85 64 q 54 354 54 214 q 72 571 54 494 q 138 683 89 647 q 282 719 186 719 q 365 714 324 719 q 431 699 407 708 l 431 579 q 322 590 372 590 q 244 574 268 590 q 213 511 221 558 q 204 354 204 464 q 213 197 204 244 q 244 133 221 149 q 322 118 268 118 q 435 129 376 118 l 435 10 m 56 847 l 56 857 l 160 1032 l 317 1032 l 421 857 l 421 847 l 317 847 l 238 957 l 160 847 l 56 847 z "},"ċ":{"ha":475,"x_min":54,"x_max":435,"o":"m 435 10 q 283 -11 365 -11 q 133 26 182 -11 q 69 139 85 64 q 54 354 54 214 q 72 571 54 494 q 138 683 89 647 q 282 719 186 719 q 365 714 324 719 q 431 699 407 708 l 431 579 q 322 590 372 590 q 244 574 268 590 q 213 511 221 558 q 204 354 204 464 q 213 197 204 244 q 244 133 221 149 q 322 118 268 118 q 435 129 376 118 l 435 10 m 171 882 l 171 1014 l 304 1014 l 304 882 l 171 882 z "},"d":{"ha":618,"x_min":54,"x_max":544,"o":"m 239 -11 q 127 20 167 -11 q 71 129 88 51 q 54 351 54 207 q 70 573 54 494 q 125 685 86 651 q 236 719 164 719 q 386 632 351 719 l 394 632 l 394 1032 l 544 1032 l 544 0 l 406 0 l 400 88 l 390 88 q 239 -11 361 -11 m 301 128 q 354 140 336 128 q 382 181 372 151 q 394 354 394 225 q 388 503 394 461 q 361 564 381 547 q 301 581 342 581 q 235 567 254 581 q 210 510 217 554 q 204 354 204 465 q 210 199 204 243 q 235 141 217 154 q 301 128 254 128 z "},"ð":{"ha":608,"x_min":54,"x_max":549,"o":"m 301 -11 q 135 21 186 -11 q 69 124 83 53 q 54 353 54 196 q 67 567 54 493 q 121 680 79 642 q 251 718 163 718 q 364 694 321 718 l 367 699 q 315 847 344 785 l 190 828 l 190 921 l 271 933 q 204 1026 243 978 l 204 1032 l 358 1032 q 414 956 386 999 l 532 974 l 532 881 l 461 869 q 525 647 499 783 q 549 363 549 543 q 535 127 549 200 q 469 22 521 54 q 301 -11 418 -11 m 301 118 q 371 133 351 118 q 394 190 390 147 q 399 353 399 233 q 394 510 399 467 q 370 572 390 554 q 301 590 350 590 q 231 576 250 590 q 208 519 213 563 q 204 353 204 476 q 208 190 204 233 q 232 133 213 147 q 301 118 251 118 z "},"ď":{"ha":668,"x_min":54,"x_max":754,"o":"m 239 -11 q 127 20 167 -11 q 71 129 88 51 q 54 351 54 207 q 70 573 54 494 q 125 685 86 651 q 236 719 164 719 q 386 632 351 719 l 394 632 l 394 1032 l 544 1032 l 544 0 l 406 0 l 400 88 l 390 88 q 239 -11 361 -11 m 301 128 q 354 140 336 128 q 382 181 372 151 q 394 354 394 225 q 388 503 394 461 q 361 564 381 547 q 301 581 342 581 q 235 567 254 581 q 210 510 217 554 q 204 354 204 465 q 210 199 204 243 q 235 141 217 154 q 301 128 254 128 m 586 601 l 610 871 l 610 956 l 754 956 l 754 871 l 694 601 l 586 601 z "},"đ":{"ha":618,"x_min":54,"x_max":607,"o":"m 607 826 l 544 826 l 544 0 l 406 0 l 400 88 l 390 88 q 239 -11 361 -11 q 127 20 167 -11 q 71 129 88 51 q 54 351 54 207 q 70 573 54 494 q 125 685 86 651 q 236 719 164 719 q 386 632 351 719 l 394 632 l 394 826 l 261 826 l 261 956 l 394 956 l 394 1032 l 544 1032 l 544 956 l 607 956 l 607 826 m 382 181 q 394 354 394 225 q 388 503 394 461 q 361 564 381 547 q 301 581 342 581 q 235 567 254 581 q 210 510 217 554 q 204 354 204 465 q 210 199 204 243 q 235 141 217 154 q 301 128 254 128 q 354 140 336 128 q 382 181 372 151 z "},"ḍ":{"ha":618,"x_min":54,"x_max":544,"o":"m 239 -11 q 127 20 167 -11 q 71 129 88 51 q 54 351 54 207 q 70 573 54 494 q 125 685 86 651 q 236 719 164 719 q 386 632 351 719 l 394 632 l 394 1032 l 544 1032 l 544 0 l 406 0 l 400 88 l 390 88 q 239 -11 361 -11 m 301 128 q 354 140 336 128 q 382 181 372 151 q 394 354 394 225 q 388 503 394 461 q 361 564 381 547 q 301 581 342 581 q 235 567 254 581 q 210 510 217 554 q 204 354 204 465 q 210 199 204 243 q 235 141 217 154 q 301 128 254 128 m 224 -251 l 224 -86 l 392 -86 l 392 -251 l 224 -251 z "},"ǳ":{"ha":1156,"x_min":54,"x_max":1108,"o":"m 239 -11 q 127 20 167 -11 q 71 129 88 51 q 54 351 54 207 q 70 573 54 494 q 125 685 86 651 q 236 719 164 719 q 386 632 351 719 l 394 632 l 394 1032 l 544 1032 l 544 0 l 406 0 l 400 88 l 390 88 q 239 -11 361 -11 m 301 128 q 354 140 336 128 q 382 181 372 151 q 394 354 394 225 q 388 503 394 461 q 361 564 381 547 q 301 581 342 581 q 235 567 254 581 q 210 510 217 554 q 204 354 204 465 q 210 199 204 243 q 235 141 217 154 q 301 128 254 128 m 665 0 l 665 121 l 929 579 l 675 579 l 675 708 l 1106 708 l 1106 589 l 840 129 l 1108 129 l 1108 0 l 665 0 z "},"ǆ":{"ha":1156,"x_min":54,"x_max":1108,"o":"m 239 -11 q 127 20 167 -11 q 71 129 88 51 q 54 351 54 207 q 70 573 54 494 q 125 685 86 651 q 236 719 164 719 q 386 632 351 719 l 394 632 l 394 1032 l 544 1032 l 544 0 l 406 0 l 400 88 l 390 88 q 239 -11 361 -11 m 301 128 q 354 140 336 128 q 382 181 372 151 q 394 354 394 225 q 388 503 394 461 q 361 564 381 547 q 301 581 342 581 q 235 567 254 581 q 210 510 217 554 q 204 354 204 465 q 210 199 204 243 q 235 141 217 154 q 301 128 254 128 m 665 0 l 665 121 l 929 579 l 675 579 l 675 708 l 1106 708 l 1106 589 l 840 129 l 1108 129 l 1108 0 l 665 0 m 804 846 l 699 1022 l 699 1032 l 804 1032 l 882 922 l 960 1032 l 1065 1032 l 1065 1022 l 960 846 l 804 846 z "},"e":{"ha":590,"x_min":54,"x_max":533,"o":"m 533 303 l 204 303 q 213 177 204 213 q 249 130 221 142 q 346 118 276 118 q 517 129 413 118 l 517 11 q 424 -5 482 1 q 313 -11 367 -11 q 141 24 196 -11 q 70 133 86 60 q 54 353 54 206 q 69 572 54 499 q 138 683 85 646 q 303 719 190 719 q 462 684 414 719 q 522 578 510 649 q 533 354 533 508 l 533 303 m 300 590 q 238 578 257 590 q 212 531 218 565 q 204 414 206 496 l 390 414 l 390 415 q 383 532 390 496 q 358 579 376 568 q 300 590 340 590 z "},"é":{"ha":590,"x_min":54,"x_max":533,"o":"m 533 303 l 204 303 q 213 177 204 213 q 249 130 221 142 q 346 118 276 118 q 517 129 413 118 l 517 11 q 424 -5 482 1 q 313 -11 367 -11 q 141 24 196 -11 q 70 133 86 60 q 54 353 54 206 q 69 572 54 499 q 138 683 85 646 q 303 719 190 719 q 462 684 414 719 q 522 578 510 649 q 533 354 533 508 l 533 303 m 300 590 q 238 578 257 590 q 212 531 218 565 q 204 414 206 496 l 390 414 l 390 415 q 383 532 390 496 q 358 579 376 568 q 300 590 340 590 m 235 832 l 235 839 l 308 1032 l 461 1032 l 461 1025 l 354 832 l 235 832 z "},"ĕ":{"ha":590,"x_min":54,"x_max":533,"o":"m 533 303 l 204 303 q 213 177 204 213 q 249 130 221 142 q 346 118 276 118 q 517 129 413 118 l 517 11 q 424 -5 482 1 q 313 -11 367 -11 q 141 24 196 -11 q 70 133 86 60 q 54 353 54 206 q 69 572 54 499 q 138 683 85 646 q 303 719 190 719 q 462 684 414 719 q 522 578 510 649 q 533 354 533 508 l 533 303 m 300 590 q 238 578 257 590 q 212 531 218 565 q 204 414 206 496 l 390 414 l 390 415 q 383 532 390 496 q 358 579 376 568 q 300 590 340 590 m 467 1032 q 455 928 467 968 q 405 865 443 889 q 292 842 367 842 q 181 865 218 842 q 132 928 143 888 q 121 1032 121 968 l 217 1032 q 220 974 217 993 q 240 944 224 956 q 292 933 256 933 q 344 944 328 933 q 365 975 361 956 q 369 1032 369 994 l 467 1032 z "},"ě":{"ha":590,"x_min":54,"x_max":533,"o":"m 533 303 l 204 303 q 213 177 204 213 q 249 130 221 142 q 346 118 276 118 q 517 129 413 118 l 517 11 q 424 -5 482 1 q 313 -11 367 -11 q 141 24 196 -11 q 70 133 86 60 q 54 353 54 206 q 69 572 54 499 q 138 683 85 646 q 303 719 190 719 q 462 684 414 719 q 522 578 510 649 q 533 354 533 508 l 533 303 m 300 590 q 238 578 257 590 q 212 531 218 565 q 204 414 206 496 l 390 414 l 390 415 q 383 532 390 496 q 358 579 376 568 q 300 590 340 590 m 217 846 l 111 1022 l 111 1032 l 217 1032 l 294 922 l 372 1032 l 478 1032 l 478 1022 l 372 846 l 217 846 z "},"ê":{"ha":590,"x_min":54,"x_max":533,"o":"m 533 303 l 204 303 q 213 177 204 213 q 249 130 221 142 q 346 118 276 118 q 517 129 413 118 l 517 11 q 424 -5 482 1 q 313 -11 367 -11 q 141 24 196 -11 q 70 133 86 60 q 54 353 54 206 q 69 572 54 499 q 138 683 85 646 q 303 719 190 719 q 462 684 414 719 q 522 578 510 649 q 533 354 533 508 l 533 303 m 300 590 q 238 578 257 590 q 212 531 218 565 q 204 414 206 496 l 390 414 l 390 415 q 383 532 390 496 q 358 579 376 568 q 300 590 340 590 m 119 847 l 119 857 l 224 1032 l 381 1032 l 485 857 l 485 847 l 381 847 l 301 957 l 224 847 l 119 847 z "},"ế":{"ha":590,"x_min":54,"x_max":556,"o":"m 533 303 l 204 303 q 213 177 204 213 q 249 130 221 142 q 346 118 276 118 q 517 129 413 118 l 517 11 q 424 -5 482 1 q 313 -11 367 -11 q 141 24 196 -11 q 70 133 86 60 q 54 353 54 206 q 69 572 54 499 q 138 683 85 646 q 303 719 190 719 q 462 684 414 719 q 522 578 510 649 q 533 354 533 508 l 533 303 m 300 590 q 238 578 257 590 q 212 531 218 565 q 204 414 206 496 l 390 414 l 390 415 q 383 532 390 496 q 358 579 376 568 q 300 590 340 590 m 114 847 l 114 857 l 218 1032 l 375 1032 l 479 857 l 479 847 l 375 847 l 296 957 l 218 847 l 114 847 m 329 1071 l 329 1078 l 403 1271 l 556 1271 l 556 1264 l 449 1071 l 329 1071 z "},"ệ":{"ha":590,"x_min":54,"x_max":533,"o":"m 533 303 l 204 303 q 213 177 204 213 q 249 130 221 142 q 346 118 276 118 q 517 129 413 118 l 517 11 q 424 -5 482 1 q 313 -11 367 -11 q 141 24 196 -11 q 70 133 86 60 q 54 353 54 206 q 69 572 54 499 q 138 683 85 646 q 303 719 190 719 q 462 684 414 719 q 522 578 510 649 q 533 354 533 508 l 533 303 m 300 590 q 238 578 257 590 q 212 531 218 565 q 204 414 206 496 l 390 414 l 390 415 q 383 532 390 496 q 358 579 376 568 q 300 590 340 590 m 210 -251 l 210 -86 l 378 -86 l 378 -251 l 210 -251 m 111 847 l 111 857 l 215 1032 l 372 1032 l 476 857 l 476 847 l 372 847 l 293 957 l 215 847 l 111 847 z "},"ề":{"ha":590,"x_min":54,"x_max":533,"o":"m 533 303 l 204 303 q 213 177 204 213 q 249 130 221 142 q 346 118 276 118 q 517 129 413 118 l 517 11 q 424 -5 482 1 q 313 -11 367 -11 q 141 24 196 -11 q 70 133 86 60 q 54 353 54 206 q 69 572 54 499 q 138 683 85 646 q 303 719 190 719 q 462 684 414 719 q 522 578 510 649 q 533 354 533 508 l 533 303 m 300 590 q 238 578 257 590 q 212 531 218 565 q 204 414 206 496 l 390 414 l 390 415 q 383 532 390 496 q 358 579 376 568 q 300 590 340 590 m 104 847 l 104 857 l 208 1032 l 365 1032 l 469 857 l 469 847 l 365 847 l 286 957 l 208 847 l 104 847 m 361 1071 l 256 1264 l 256 1271 l 408 1271 l 482 1078 l 482 1071 l 361 1071 z "},"ể":{"ha":590,"x_min":54,"x_max":569,"o":"m 533 303 l 204 303 q 213 177 204 213 q 249 130 221 142 q 346 118 276 118 q 517 129 413 118 l 517 11 q 424 -5 482 1 q 313 -11 367 -11 q 141 24 196 -11 q 70 133 86 60 q 54 353 54 206 q 69 572 54 499 q 138 683 85 646 q 303 719 190 719 q 462 684 414 719 q 522 578 510 649 q 533 354 533 508 l 533 303 m 300 590 q 238 578 257 590 q 212 531 218 565 q 204 414 206 496 l 390 414 l 390 415 q 383 532 390 496 q 358 579 376 568 q 300 590 340 590 m 111 847 l 111 857 l 215 1032 l 372 1032 l 476 857 l 476 847 l 372 847 l 293 957 l 215 847 l 111 847 m 336 1083 q 349 1137 336 1122 q 394 1167 361 1151 l 414 1175 q 449 1197 439 1188 q 458 1218 458 1206 q 448 1238 458 1232 q 406 1243 438 1243 q 271 1235 339 1243 l 271 1335 q 406 1350 353 1350 q 528 1322 488 1350 q 569 1229 569 1293 q 557 1163 569 1188 q 507 1119 544 1138 l 481 1107 q 442 1084 449 1092 q 436 1058 436 1076 l 336 1058 l 336 1083 z "},"ễ":{"ha":590,"x_min":54,"x_max":533,"o":"m 533 303 l 204 303 q 213 177 204 213 q 249 130 221 142 q 346 118 276 118 q 517 129 413 118 l 517 11 q 424 -5 482 1 q 313 -11 367 -11 q 141 24 196 -11 q 70 133 86 60 q 54 353 54 206 q 69 572 54 499 q 138 683 85 646 q 303 719 190 719 q 462 684 414 719 q 522 578 510 649 q 533 354 533 508 l 533 303 m 300 590 q 238 578 257 590 q 212 531 218 565 q 204 414 206 496 l 390 414 l 390 415 q 383 532 390 496 q 358 579 376 568 q 300 590 340 590 m 108 847 l 108 857 l 213 1032 l 369 1032 l 474 857 l 474 847 l 369 847 l 290 957 l 213 847 l 108 847 m 503 1272 q 497 1172 503 1206 q 471 1119 492 1138 q 406 1100 450 1100 q 349 1107 378 1100 q 283 1126 321 1114 q 251 1137 279 1128 q 203 1146 222 1146 q 180 1133 185 1146 q 175 1085 175 1121 l 85 1085 q 90 1185 85 1151 q 117 1238 96 1219 q 183 1257 138 1257 q 238 1251 211 1257 q 306 1231 264 1244 q 386 1213 363 1213 q 408 1224 404 1213 q 413 1272 413 1235 l 503 1272 z "},"ȅ":{"ha":590,"x_min":54,"x_max":533,"o":"m 533 303 l 204 303 q 213 177 204 213 q 249 130 221 142 q 346 118 276 118 q 517 129 413 118 l 517 11 q 424 -5 482 1 q 313 -11 367 -11 q 141 24 196 -11 q 70 133 86 60 q 54 353 54 206 q 69 572 54 499 q 138 683 85 646 q 303 719 190 719 q 462 684 414 719 q 522 578 510 649 q 533 354 533 508 l 533 303 m 300 590 q 238 578 257 590 q 212 531 218 565 q 204 414 206 496 l 390 414 l 390 415 q 383 532 390 496 q 358 579 376 568 q 300 590 340 590 m 251 846 l 151 846 l 60 1013 l 60 1018 l 188 1018 l 251 851 l 251 846 m 450 846 l 350 846 l 258 1013 l 258 1018 l 385 1018 l 450 851 l 450 846 z "},"ë":{"ha":590,"x_min":54,"x_max":533,"o":"m 533 303 l 204 303 q 213 177 204 213 q 249 130 221 142 q 346 118 276 118 q 517 129 413 118 l 517 11 q 424 -5 482 1 q 313 -11 367 -11 q 141 24 196 -11 q 70 133 86 60 q 54 353 54 206 q 69 572 54 499 q 138 683 85 646 q 303 719 190 719 q 462 684 414 719 q 522 578 510 649 q 533 354 533 508 l 533 303 m 300 590 q 238 578 257 590 q 212 531 218 565 q 204 414 206 496 l 390 414 l 390 415 q 383 532 390 496 q 358 579 376 568 q 300 590 340 590 m 114 871 l 114 1003 l 249 1003 l 249 871 l 114 871 m 357 871 l 357 1003 l 490 1003 l 490 871 l 357 871 z "},"ė":{"ha":590,"x_min":54,"x_max":533,"o":"m 533 303 l 204 303 q 213 177 204 213 q 249 130 221 142 q 346 118 276 118 q 517 129 413 118 l 517 11 q 424 -5 482 1 q 313 -11 367 -11 q 141 24 196 -11 q 70 133 86 60 q 54 353 54 206 q 69 572 54 499 q 138 683 85 646 q 303 719 190 719 q 462 684 414 719 q 522 578 510 649 q 533 354 533 508 l 533 303 m 300 590 q 238 578 257 590 q 212 531 218 565 q 204 414 206 496 l 390 414 l 390 415 q 383 532 390 496 q 358 579 376 568 q 300 590 340 590 m 226 882 l 226 1014 l 360 1014 l 360 882 l 226 882 z "},"ẹ":{"ha":590,"x_min":54,"x_max":533,"o":"m 533 303 l 204 303 q 213 177 204 213 q 249 130 221 142 q 346 118 276 118 q 517 129 413 118 l 517 11 q 424 -5 482 1 q 313 -11 367 -11 q 141 24 196 -11 q 70 133 86 60 q 54 353 54 206 q 69 572 54 499 q 138 683 85 646 q 303 719 190 719 q 462 684 414 719 q 522 578 510 649 q 533 354 533 508 l 533 303 m 300 590 q 238 578 257 590 q 212 531 218 565 q 204 414 206 496 l 390 414 l 390 415 q 383 532 390 496 q 358 579 376 568 q 300 590 340 590 m 210 -251 l 210 -86 l 378 -86 l 378 -251 l 210 -251 z "},"è":{"ha":590,"x_min":54,"x_max":533,"o":"m 533 303 l 204 303 q 213 177 204 213 q 249 130 221 142 q 346 118 276 118 q 517 129 413 118 l 517 11 q 424 -5 482 1 q 313 -11 367 -11 q 141 24 196 -11 q 70 133 86 60 q 54 353 54 206 q 69 572 54 499 q 138 683 85 646 q 303 719 190 719 q 462 684 414 719 q 522 578 510 649 q 533 354 533 508 l 533 303 m 300 590 q 238 578 257 590 q 212 531 218 565 q 204 414 206 496 l 390 414 l 390 415 q 383 532 390 496 q 358 579 376 568 q 300 590 340 590 m 251 832 l 146 1025 l 146 1032 l 299 1032 l 372 839 l 372 832 l 251 832 z "},"ẻ":{"ha":590,"x_min":54,"x_max":533,"o":"m 533 303 l 204 303 q 213 177 204 213 q 249 130 221 142 q 346 118 276 118 q 517 129 413 118 l 517 11 q 424 -5 482 1 q 313 -11 367 -11 q 141 24 196 -11 q 70 133 86 60 q 54 353 54 206 q 69 572 54 499 q 138 683 85 646 q 303 719 190 719 q 462 684 414 719 q 522 578 510 649 q 533 354 533 508 l 533 303 m 300 590 q 238 578 257 590 q 212 531 218 565 q 204 414 206 496 l 390 414 l 390 415 q 383 532 390 496 q 358 579 376 568 q 300 590 340 590 m 210 872 q 222 926 210 911 q 268 956 235 940 l 288 964 q 322 985 313 976 q 332 1007 332 994 q 322 1026 332 1021 q 279 1032 311 1032 q 144 1024 213 1032 l 144 1124 q 279 1139 226 1139 q 402 1110 361 1139 q 443 1018 443 1082 q 431 951 443 976 q 381 908 418 926 l 354 896 q 316 873 322 881 q 310 847 310 865 l 210 847 l 210 872 z "},"ȇ":{"ha":590,"x_min":54,"x_max":533,"o":"m 533 303 l 204 303 q 213 177 204 213 q 249 130 221 142 q 346 118 276 118 q 517 129 413 118 l 517 11 q 424 -5 482 1 q 313 -11 367 -11 q 141 24 196 -11 q 70 133 86 60 q 54 353 54 206 q 69 572 54 499 q 138 683 85 646 q 303 719 190 719 q 462 684 414 719 q 522 578 510 649 q 533 354 533 508 l 533 303 m 300 590 q 238 578 257 590 q 212 531 218 565 q 204 414 206 496 l 390 414 l 390 415 q 383 532 390 496 q 358 579 376 568 q 300 590 340 590 m 121 850 q 133 953 121 914 q 183 1017 144 993 q 296 1040 221 1040 q 407 1017 369 1040 q 456 954 444 994 q 467 850 467 914 l 371 850 q 367 908 371 889 q 348 938 364 926 q 296 949 332 949 q 243 938 260 949 q 222 907 226 926 q 218 850 218 888 l 121 850 z "},"ē":{"ha":590,"x_min":54,"x_max":533,"o":"m 533 303 l 204 303 q 213 177 204 213 q 249 130 221 142 q 346 118 276 118 q 517 129 413 118 l 517 11 q 424 -5 482 1 q 313 -11 367 -11 q 141 24 196 -11 q 70 133 86 60 q 54 353 54 206 q 69 572 54 499 q 138 683 85 646 q 303 719 190 719 q 462 684 414 719 q 522 578 510 649 q 533 354 533 508 l 533 303 m 300 590 q 238 578 257 590 q 212 531 218 565 q 204 414 206 496 l 390 414 l 390 415 q 383 532 390 496 q 358 579 376 568 q 300 590 340 590 m 156 893 l 156 1032 l 432 1032 l 432 893 l 156 893 z "},"ę":{"ha":590,"x_min":54,"x_max":533,"o":"m 533 303 l 204 303 q 213 177 204 213 q 249 130 221 142 q 346 118 276 118 q 517 129 413 118 l 517 11 q 445 -56 476 -17 q 414 -131 414 -94 q 427 -167 414 -153 q 469 -182 440 -182 q 490 -181 483 -182 l 490 -268 q 428 -272 456 -272 q 325 -241 357 -272 q 293 -162 293 -210 q 378 -8 293 -83 q 313 -11 333 -11 q 141 24 196 -11 q 70 133 86 60 q 54 353 54 206 q 69 572 54 499 q 138 683 85 646 q 303 719 190 719 q 462 684 414 719 q 522 578 510 649 q 533 354 533 508 l 533 303 m 300 590 q 238 578 257 590 q 212 531 218 565 q 204 414 206 496 l 390 414 l 390 415 q 383 532 390 496 q 358 579 376 568 q 300 590 340 590 z "},"ẽ":{"ha":590,"x_min":54,"x_max":533,"o":"m 533 303 l 204 303 q 213 177 204 213 q 249 130 221 142 q 346 118 276 118 q 517 129 413 118 l 517 11 q 424 -5 482 1 q 313 -11 367 -11 q 141 24 196 -11 q 70 133 86 60 q 54 353 54 206 q 69 572 54 499 q 138 683 85 646 q 303 719 190 719 q 462 684 414 719 q 522 578 510 649 q 533 354 533 508 l 533 303 m 300 590 q 238 578 257 590 q 212 531 218 565 q 204 414 206 496 l 390 414 l 390 415 q 383 532 390 496 q 358 579 376 568 q 300 590 340 590 m 503 1032 q 497 931 503 965 q 471 878 492 897 q 406 860 450 860 q 349 867 378 860 q 283 886 321 874 q 251 897 279 888 q 203 906 222 906 q 180 893 185 906 q 175 844 175 881 l 85 844 q 90 945 85 911 q 117 998 96 979 q 183 1017 138 1017 q 238 1010 211 1017 q 306 990 264 1004 q 386 972 363 972 q 408 983 404 972 q 413 1032 413 994 l 503 1032 z "},"ə":{"ha":590,"x_min":57,"x_max":536,"o":"m 278 719 q 449 684 394 719 q 520 576 504 649 q 536 356 536 503 q 521 136 536 210 q 453 26 506 63 q 288 -11 400 -11 q 128 24 176 -11 q 69 130 81 60 q 57 354 57 200 l 57 406 l 386 406 q 378 531 386 496 q 342 578 369 567 q 244 590 314 590 q 74 579 178 590 l 74 697 q 166 713 108 707 q 278 719 224 719 m 290 118 q 353 131 333 118 q 378 178 372 143 q 386 294 385 213 l 200 294 l 200 293 q 207 176 200 213 q 232 129 214 140 q 290 118 250 118 z "},"f":{"ha":411,"x_min":24,"x_max":386,"o":"m 115 579 l 24 579 l 24 708 l 115 708 l 115 774 q 138 949 115 896 q 213 1017 160 1001 q 386 1032 267 1032 l 386 915 q 306 908 331 915 q 274 879 282 901 q 265 807 265 857 l 265 708 l 386 708 l 386 579 l 265 579 l 265 0 l 115 0 l 115 579 z "},"g":{"ha":617,"x_min":54,"x_max":543,"o":"m 283 -278 q 181 -273 235 -278 q 94 -261 128 -268 l 94 -143 l 250 -146 q 348 -133 319 -146 q 385 -82 376 -119 q 393 49 393 -44 l 393 86 l 385 86 q 331 19 368 39 q 238 -1 294 -1 q 125 31 164 -1 q 70 139 86 63 q 54 357 54 215 q 71 579 54 501 q 127 688 88 657 q 239 719 167 719 q 390 621 358 719 l 399 621 l 404 708 l 543 708 l 543 90 q 528 -129 543 -56 q 457 -240 513 -203 q 283 -278 401 -278 m 300 133 q 357 147 338 133 q 383 196 376 161 q 393 357 393 236 q 386 503 393 463 q 360 563 379 547 q 300 579 340 579 q 235 567 253 579 q 210 511 217 554 q 204 357 204 468 q 210 204 204 249 q 235 147 217 160 q 300 133 254 133 z "},"ǵ":{"ha":617,"x_min":54,"x_max":543,"o":"m 283 -278 q 181 -273 235 -278 q 94 -261 128 -268 l 94 -143 l 250 -146 q 348 -133 319 -146 q 385 -82 376 -119 q 393 49 393 -44 l 393 86 l 385 86 q 331 19 368 39 q 238 -1 294 -1 q 125 31 164 -1 q 70 139 86 63 q 54 357 54 215 q 71 579 54 501 q 127 688 88 657 q 239 719 167 719 q 390 621 358 719 l 399 621 l 404 708 l 543 708 l 543 90 q 528 -129 543 -56 q 457 -240 513 -203 q 283 -278 401 -278 m 300 133 q 357 147 338 133 q 383 196 376 161 q 393 357 393 236 q 386 503 393 463 q 360 563 379 547 q 300 579 340 579 q 235 567 253 579 q 210 511 217 554 q 204 357 204 468 q 210 204 204 249 q 235 147 217 160 q 300 133 254 133 m 238 832 l 238 839 l 311 1032 l 464 1032 l 464 1025 l 357 832 l 238 832 z "},"ğ":{"ha":617,"x_min":54,"x_max":543,"o":"m 283 -278 q 181 -273 235 -278 q 94 -261 128 -268 l 94 -143 l 250 -146 q 348 -133 319 -146 q 385 -82 376 -119 q 393 49 393 -44 l 393 86 l 385 86 q 331 19 368 39 q 238 -1 294 -1 q 125 31 164 -1 q 70 139 86 63 q 54 357 54 215 q 71 579 54 501 q 127 688 88 657 q 239 719 167 719 q 390 621 358 719 l 399 621 l 404 708 l 543 708 l 543 90 q 528 -129 543 -56 q 457 -240 513 -203 q 283 -278 401 -278 m 300 133 q 357 147 338 133 q 383 196 376 161 q 393 357 393 236 q 386 503 393 463 q 360 563 379 547 q 300 579 340 579 q 235 567 253 579 q 210 511 217 554 q 204 357 204 468 q 210 204 204 249 q 235 147 217 160 q 300 133 254 133 m 481 1032 q 469 928 481 968 q 419 865 457 889 q 306 842 381 842 q 194 865 232 842 q 146 928 157 888 q 135 1032 135 968 l 231 1032 q 234 974 231 993 q 253 944 238 956 q 306 933 269 933 q 358 944 342 933 q 379 975 375 956 q 383 1032 383 994 l 481 1032 z "},"ǧ":{"ha":617,"x_min":54,"x_max":543,"o":"m 283 -278 q 181 -273 235 -278 q 94 -261 128 -268 l 94 -143 l 250 -146 q 348 -133 319 -146 q 385 -82 376 -119 q 393 49 393 -44 l 393 86 l 385 86 q 331 19 368 39 q 238 -1 294 -1 q 125 31 164 -1 q 70 139 86 63 q 54 357 54 215 q 71 579 54 501 q 127 688 88 657 q 239 719 167 719 q 390 621 358 719 l 399 621 l 404 708 l 543 708 l 543 90 q 528 -129 543 -56 q 457 -240 513 -203 q 283 -278 401 -278 m 300 133 q 357 147 338 133 q 383 196 376 161 q 393 357 393 236 q 386 503 393 463 q 360 563 379 547 q 300 579 340 579 q 235 567 253 579 q 210 511 217 554 q 204 357 204 468 q 210 204 204 249 q 235 147 217 160 q 300 133 254 133 m 231 846 l 125 1022 l 125 1032 l 231 1032 l 308 922 l 386 1032 l 492 1032 l 492 1022 l 386 846 l 231 846 z "},"ĝ":{"ha":617,"x_min":54,"x_max":543,"o":"m 283 -278 q 181 -273 235 -278 q 94 -261 128 -268 l 94 -143 l 250 -146 q 348 -133 319 -146 q 385 -82 376 -119 q 393 49 393 -44 l 393 86 l 385 86 q 331 19 368 39 q 238 -1 294 -1 q 125 31 164 -1 q 70 139 86 63 q 54 357 54 215 q 71 579 54 501 q 127 688 88 657 q 239 719 167 719 q 390 621 358 719 l 399 621 l 404 708 l 543 708 l 543 90 q 528 -129 543 -56 q 457 -240 513 -203 q 283 -278 401 -278 m 300 133 q 357 147 338 133 q 383 196 376 161 q 393 357 393 236 q 386 503 393 463 q 360 563 379 547 q 300 579 340 579 q 235 567 253 579 q 210 511 217 554 q 204 357 204 468 q 210 204 204 249 q 235 147 217 160 q 300 133 254 133 m 125 847 l 125 857 l 229 1032 l 386 1032 l 490 857 l 490 847 l 386 847 l 307 957 l 229 847 l 125 847 z "},"ģ":{"ha":617,"x_min":54,"x_max":543,"o":"m 283 -278 q 181 -273 235 -278 q 94 -261 128 -268 l 94 -143 l 250 -146 q 348 -133 319 -146 q 385 -82 376 -119 q 393 49 393 -44 l 393 86 l 385 86 q 331 19 368 39 q 238 -1 294 -1 q 125 31 164 -1 q 70 139 86 63 q 54 357 54 215 q 71 579 54 501 q 127 688 88 657 q 239 719 167 719 q 390 621 358 719 l 399 621 l 404 708 l 543 708 l 543 90 q 528 -129 543 -56 q 457 -240 513 -203 q 283 -278 401 -278 m 300 133 q 357 147 338 133 q 383 196 376 161 q 393 357 393 236 q 386 503 393 463 q 360 563 379 547 q 300 579 340 579 q 235 567 253 579 q 210 511 217 554 q 204 357 204 468 q 210 204 204 249 q 235 147 217 160 q 300 133 254 133 m 399 1078 q 339 1064 353 1078 q 325 1007 325 1050 l 325 985 l 388 985 l 388 833 l 228 833 l 228 944 q 239 1072 228 1031 q 285 1129 250 1113 q 399 1146 321 1146 l 399 1078 z "},"ġ":{"ha":617,"x_min":54,"x_max":543,"o":"m 283 -278 q 181 -273 235 -278 q 94 -261 128 -268 l 94 -143 l 250 -146 q 348 -133 319 -146 q 385 -82 376 -119 q 393 49 393 -44 l 393 86 l 385 86 q 331 19 368 39 q 238 -1 294 -1 q 125 31 164 -1 q 70 139 86 63 q 54 357 54 215 q 71 579 54 501 q 127 688 88 657 q 239 719 167 719 q 390 621 358 719 l 399 621 l 404 708 l 543 708 l 543 90 q 528 -129 543 -56 q 457 -240 513 -203 q 283 -278 401 -278 m 300 133 q 357 147 338 133 q 383 196 376 161 q 393 357 393 236 q 386 503 393 463 q 360 563 379 547 q 300 579 340 579 q 235 567 253 579 q 210 511 217 554 q 204 357 204 468 q 210 204 204 249 q 235 147 217 160 q 300 133 254 133 m 240 882 l 240 1014 l 374 1014 l 374 882 l 240 882 z "},"h":{"ha":624,"x_min":74,"x_max":553,"o":"m 403 390 q 397 521 403 483 q 375 569 392 558 q 317 579 358 579 q 253 560 272 579 q 228 501 233 542 q 224 369 224 461 l 224 0 l 74 0 l 74 1032 l 224 1032 l 224 625 l 231 625 q 288 697 249 674 q 388 719 326 719 q 492 692 456 719 q 540 612 528 665 q 553 465 553 558 l 553 0 l 403 0 l 403 390 z "},"ħ":{"ha":624,"x_min":11,"x_max":553,"o":"m 388 719 q 492 692 456 719 q 540 612 528 665 q 553 465 553 558 l 553 0 l 403 0 l 403 390 q 397 521 403 483 q 375 569 392 558 q 317 579 358 579 q 253 560 272 579 q 228 501 233 542 q 224 369 224 461 l 224 0 l 74 0 l 74 826 l 11 826 l 11 956 l 74 956 l 74 1032 l 224 1032 l 224 956 l 357 956 l 357 826 l 224 826 l 224 625 l 231 625 q 288 697 249 674 q 388 719 326 719 z "},"ĥ":{"ha":624,"x_min":-35,"x_max":553,"o":"m 403 390 q 397 521 403 483 q 375 569 392 558 q 317 579 358 579 q 253 560 272 579 q 228 501 233 542 q 224 369 224 461 l 224 0 l 74 0 l 74 1032 l 224 1032 l 224 625 l 231 625 q 288 697 249 674 q 388 719 326 719 q 492 692 456 719 q 540 612 528 665 q 553 465 553 558 l 553 0 l 403 0 l 403 390 m -35 1094 l -35 1104 l 69 1279 l 226 1279 l 331 1104 l 331 1094 l 226 1094 l 147 1204 l 69 1094 l -35 1094 z "},"ḥ":{"ha":624,"x_min":74,"x_max":553,"o":"m 403 390 q 397 521 403 483 q 375 569 392 558 q 317 579 358 579 q 253 560 272 579 q 228 501 233 542 q 224 369 224 461 l 224 0 l 74 0 l 74 1032 l 224 1032 l 224 625 l 231 625 q 288 697 249 674 q 388 719 326 719 q 492 692 456 719 q 540 612 528 665 q 553 465 553 558 l 553 0 l 403 0 l 403 390 m 226 -251 l 226 -86 l 394 -86 l 394 -251 l 226 -251 z "},"i":{"ha":297,"x_min":72,"x_max":225,"o":"m 72 879 l 72 1032 l 225 1032 l 225 879 l 72 879 m 74 0 l 74 708 l 224 708 l 224 0 l 74 0 z "},"ı":{"ha":297,"x_min":74,"x_max":224,"o":"m 74 0 l 74 708 l 224 708 l 224 0 l 74 0 z "},"í":{"ha":297,"x_min":74,"x_max":301,"o":"m 74 0 l 74 708 l 224 708 l 224 0 l 74 0 m 75 832 l 75 839 l 149 1032 l 301 1032 l 301 1025 l 194 832 l 75 832 z "},"ĭ":{"ha":297,"x_min":-25,"x_max":321,"o":"m 74 0 l 74 708 l 224 708 l 224 0 l 74 0 m 321 1032 q 309 928 321 968 q 259 865 297 889 q 146 842 221 842 q 35 865 72 842 q -14 928 -3 888 q -25 1032 -25 968 l 71 1032 q 74 974 71 993 q 94 944 78 956 q 146 933 110 933 q 199 944 182 933 q 219 975 215 956 q 224 1032 224 994 l 321 1032 z "},"ǐ":{"ha":297,"x_min":-35,"x_max":332,"o":"m 74 0 l 74 708 l 224 708 l 224 0 l 74 0 m 71 846 l -35 1022 l -35 1032 l 71 1032 l 149 922 l 226 1032 l 332 1032 l 332 1022 l 226 846 l 71 846 z "},"î":{"ha":297,"x_min":-33,"x_max":332,"o":"m 74 0 l 74 708 l 224 708 l 224 0 l 74 0 m -33 847 l -33 857 l 71 1032 l 228 1032 l 332 857 l 332 847 l 228 847 l 149 957 l 71 847 l -33 847 z "},"ȉ":{"ha":297,"x_min":-86,"x_max":304,"o":"m 74 0 l 74 708 l 224 708 l 224 0 l 74 0 m 106 846 l 6 846 l -86 1013 l -86 1018 l 42 1018 l 106 851 l 106 846 m 304 846 l 204 846 l 113 1013 l 113 1018 l 239 1018 l 304 851 l 304 846 z "},"ï":{"ha":297,"x_min":-39,"x_max":338,"o":"m 74 0 l 74 708 l 224 708 l 224 0 l 74 0 m -39 871 l -39 1003 l 96 1003 l 96 871 l -39 871 m 204 871 l 204 1003 l 338 1003 l 338 871 l 204 871 z "},"ị":{"ha":297,"x_min":72,"x_max":240,"o":"m 72 879 l 72 1032 l 225 1032 l 225 879 l 72 879 m 74 0 l 74 708 l 224 708 l 224 0 l 74 0 m 72 -251 l 72 -86 l 240 -86 l 240 -251 l 72 -251 z "},"ì":{"ha":297,"x_min":-4,"x_max":224,"o":"m 74 0 l 74 708 l 224 708 l 224 0 l 74 0 m 101 832 l -4 1025 l -4 1032 l 149 1032 l 222 839 l 222 832 l 101 832 z "},"ỉ":{"ha":297,"x_min":-1,"x_max":297,"o":"m 74 0 l 74 708 l 224 708 l 224 0 l 74 0 m 64 872 q 76 926 64 911 q 122 956 89 940 l 142 964 q 176 985 167 976 q 186 1007 186 994 q 176 1026 186 1021 q 133 1032 165 1032 q -1 1024 67 1032 l -1 1124 q 133 1139 81 1139 q 256 1110 215 1139 q 297 1018 297 1082 q 285 951 297 976 q 235 908 272 926 l 208 896 q 170 873 176 881 q 164 847 164 865 l 64 847 l 64 872 z "},"ȋ":{"ha":297,"x_min":-25,"x_max":321,"o":"m 74 0 l 74 708 l 224 708 l 224 0 l 74 0 m -25 850 q -13 953 -25 914 q 37 1017 -1 993 q 150 1040 75 1040 q 261 1017 224 1040 q 310 954 299 994 q 321 850 321 914 l 225 850 q 222 908 225 889 q 202 938 218 926 q 150 949 186 949 q 97 938 114 949 q 76 907 81 926 q 72 850 72 888 l -25 850 z "},"ĳ":{"ha":594,"x_min":72,"x_max":522,"o":"m 72 879 l 72 1032 l 225 1032 l 225 879 l 72 879 m 74 0 l 74 708 l 224 708 l 224 0 l 74 0 m 369 879 l 369 1032 l 522 1032 l 522 879 l 369 879 m 283 -149 q 342 -142 324 -149 q 366 -120 361 -135 q 371 -76 371 -106 l 371 708 l 521 708 l 521 -18 q 501 -185 521 -133 q 433 -253 481 -237 q 283 -268 386 -268 l 283 -149 z "},"ī":{"ha":297,"x_min":10,"x_max":286,"o":"m 74 0 l 74 708 l 224 708 l 224 0 l 74 0 m 10 893 l 10 1032 l 286 1032 l 286 893 l 10 893 z "},"į":{"ha":297,"x_min":28,"x_max":225,"o":"m 215 1014 l 215 882 l 81 882 l 81 1014 l 215 1014 m 203 -182 q 225 -181 218 -182 l 225 -268 q 163 -272 188 -272 q 59 -241 90 -272 q 28 -161 28 -210 q 49 -76 28 -118 q 107 0 71 -35 l 74 0 l 74 708 l 224 708 l 224 0 q 172 -59 196 -22 q 149 -131 149 -96 q 162 -167 149 -153 q 203 -182 175 -182 z "},"ĩ":{"ha":297,"x_min":-61,"x_max":357,"o":"m 74 0 l 74 708 l 224 708 l 224 0 l 74 0 m 357 1032 q 351 931 357 965 q 325 878 346 897 q 260 860 304 860 q 203 867 232 860 q 138 886 175 874 q 105 897 133 888 q 57 906 76 906 q 34 893 39 906 q 29 844 29 881 l -61 844 q -56 945 -61 911 q -29 998 -50 979 q 38 1017 -8 1017 q 92 1010 65 1017 q 160 990 118 1004 q 240 972 217 972 q 263 983 258 972 q 267 1032 267 994 l 357 1032 z "},"j":{"ha":297,"x_min":-14,"x_max":225,"o":"m 72 879 l 72 1032 l 225 1032 l 225 879 l 72 879 m -14 -149 q 45 -142 26 -149 q 69 -120 64 -135 q 74 -76 74 -106 l 74 708 l 224 708 l 224 -18 q 203 -185 224 -133 q 136 -253 183 -237 q -14 -268 89 -268 l -14 -149 z "},"ȷ":{"ha":297,"x_min":-14,"x_max":224,"o":"m -14 -149 q 45 -142 26 -149 q 69 -120 64 -135 q 74 -76 74 -106 l 74 708 l 224 708 l 224 -18 q 203 -185 224 -133 q 136 -253 183 -237 q -14 -268 89 -268 l -14 -149 z "},"ĵ":{"ha":297,"x_min":-35,"x_max":331,"o":"m -14 -149 q 45 -142 26 -149 q 69 -120 64 -135 q 74 -76 74 -106 l 74 708 l 224 708 l 224 -18 q 203 -185 224 -133 q 136 -253 183 -237 q -14 -268 89 -268 l -14 -149 m -35 847 l -35 857 l 69 1032 l 226 1032 l 331 857 l 331 847 l 226 847 l 147 957 l 69 847 l -35 847 z "},"k":{"ha":583,"x_min":74,"x_max":564,"o":"m 404 0 l 274 289 l 224 289 l 224 0 l 74 0 l 74 1032 l 224 1032 l 224 419 l 274 419 l 407 708 l 561 708 l 397 368 l 564 0 l 404 0 z "},"ķ":{"ha":583,"x_min":74,"x_max":564,"o":"m 404 0 l 274 289 l 224 289 l 224 0 l 74 0 l 74 1032 l 224 1032 l 224 419 l 274 419 l 407 708 l 561 708 l 397 368 l 564 0 l 404 0 m 207 -331 q 266 -317 251 -331 q 281 -260 281 -303 l 281 -237 l 218 -237 l 218 -86 l 378 -86 l 378 -199 q 367 -325 378 -285 q 319 -383 356 -365 q 207 -400 283 -400 l 207 -331 z "},"ĸ":{"ha":583,"x_min":74,"x_max":564,"o":"m 404 0 l 274 289 l 224 289 l 224 0 l 74 0 l 74 708 l 224 708 l 224 419 l 274 419 l 407 708 l 561 708 l 397 368 l 564 0 l 404 0 z "},"l":{"ha":297,"x_min":74,"x_max":224,"o":"m 74 0 l 74 1032 l 224 1032 l 224 0 l 74 0 z "},"ĺ":{"ha":297,"x_min":74,"x_max":304,"o":"m 74 0 l 74 1032 l 224 1032 l 224 0 l 74 0 m 78 1079 l 78 1086 l 151 1279 l 304 1279 l 304 1272 l 197 1079 l 78 1079 z "},"ľ":{"ha":361,"x_min":74,"x_max":432,"o":"m 74 0 l 74 1032 l 224 1032 l 224 0 l 74 0 m 264 601 l 288 871 l 288 956 l 432 956 l 432 871 l 372 601 l 264 601 z "},"ļ":{"ha":297,"x_min":64,"x_max":235,"o":"m 74 0 l 74 1032 l 224 1032 l 224 0 l 74 0 m 64 -331 q 123 -317 108 -331 q 138 -260 138 -303 l 138 -237 l 75 -237 l 75 -86 l 235 -86 l 235 -199 q 224 -325 235 -285 q 176 -383 213 -365 q 64 -400 140 -400 l 64 -331 z "},"ŀ":{"ha":410,"x_min":74,"x_max":438,"o":"m 74 0 l 74 1032 l 224 1032 l 224 0 l 74 0 m 272 332 l 272 497 l 438 497 l 438 332 l 272 332 z "},"ǉ":{"ha":594,"x_min":74,"x_max":522,"o":"m 74 0 l 74 1032 l 224 1032 l 224 0 l 74 0 m 369 879 l 369 1032 l 522 1032 l 522 879 l 369 879 m 283 -149 q 342 -142 324 -149 q 366 -120 361 -135 q 371 -76 371 -106 l 371 708 l 521 708 l 521 -18 q 501 -185 521 -133 q 433 -253 481 -237 q 283 -268 386 -268 l 283 -149 z "},"ł":{"ha":306,"x_min":18,"x_max":288,"o":"m 75 0 l 75 408 l 18 390 l 18 522 l 75 542 l 75 1032 l 225 1032 l 225 596 l 288 618 l 288 485 l 225 463 l 225 0 l 75 0 z "},"m":{"ha":932,"x_min":74,"x_max":861,"o":"m 711 390 q 706 522 711 485 q 686 569 701 558 q 631 579 671 579 q 570 561 589 579 q 547 502 551 543 q 542 369 542 461 l 542 0 l 392 0 l 392 390 q 387 522 392 485 q 367 569 382 558 q 311 579 351 579 q 251 561 269 579 q 228 502 233 543 q 224 369 224 461 l 224 0 l 74 0 l 74 708 l 211 708 l 217 619 l 225 619 q 282 696 244 672 q 383 719 319 719 q 485 696 451 719 q 532 619 519 672 l 540 619 q 597 696 558 672 q 701 719 636 719 q 801 693 767 719 q 848 613 835 667 q 861 467 861 560 l 861 0 l 711 0 l 711 390 z "},"n":{"ha":624,"x_min":74,"x_max":553,"o":"m 403 390 q 397 521 403 483 q 375 569 392 558 q 317 579 358 579 q 253 560 272 579 q 228 501 233 542 q 224 369 224 461 l 224 0 l 74 0 l 74 708 l 211 708 l 217 619 l 225 619 q 283 696 243 672 q 388 719 324 719 q 492 692 457 719 q 540 610 528 665 q 553 460 553 556 l 553 0 l 403 0 l 403 390 z "},"ń":{"ha":624,"x_min":74,"x_max":553,"o":"m 403 390 q 397 521 403 483 q 375 569 392 558 q 317 579 358 579 q 253 560 272 579 q 228 501 233 542 q 224 369 224 461 l 224 0 l 74 0 l 74 708 l 211 708 l 217 619 l 225 619 q 283 696 243 672 q 388 719 324 719 q 492 692 457 719 q 540 610 528 665 q 553 460 553 556 l 553 0 l 403 0 l 403 390 m 240 832 l 240 839 l 314 1032 l 467 1032 l 467 1025 l 360 832 l 240 832 z "},"ŉ":{"ha":740,"x_min":17,"x_max":669,"o":"m 17 792 q 76 811 61 792 q 90 886 90 831 l 90 908 l 29 908 l 29 1032 l 188 1032 l 188 949 q 176 807 188 853 q 129 742 165 761 q 17 722 93 722 l 17 792 m 519 390 q 514 521 519 483 q 492 569 508 558 q 433 579 475 579 q 369 560 389 579 q 345 501 350 542 q 340 369 340 461 l 340 0 l 190 0 l 190 708 l 328 708 l 333 619 l 342 619 q 400 696 360 672 q 504 719 440 719 q 609 692 574 719 q 657 610 644 665 q 669 460 669 556 l 669 0 l 519 0 l 519 390 z "},"ň":{"ha":624,"x_min":74,"x_max":553,"o":"m 403 390 q 397 521 403 483 q 375 569 392 558 q 317 579 358 579 q 253 560 272 579 q 228 501 233 542 q 224 369 224 461 l 224 0 l 74 0 l 74 708 l 211 708 l 217 619 l 225 619 q 283 696 243 672 q 388 719 324 719 q 492 692 457 719 q 540 610 528 665 q 553 460 553 556 l 553 0 l 403 0 l 403 390 m 233 846 l 128 1022 l 128 1032 l 233 1032 l 311 922 l 389 1032 l 494 1032 l 494 1022 l 389 846 l 233 846 z "},"ņ":{"ha":624,"x_min":74,"x_max":553,"o":"m 403 390 q 397 521 403 483 q 375 569 392 558 q 317 579 358 579 q 253 560 272 579 q 228 501 233 542 q 224 369 224 461 l 224 0 l 74 0 l 74 708 l 211 708 l 217 619 l 225 619 q 283 696 243 672 q 388 719 324 719 q 492 692 457 719 q 540 610 528 665 q 553 460 553 556 l 553 0 l 403 0 l 403 390 m 226 -331 q 285 -317 271 -331 q 300 -260 300 -303 l 300 -237 l 238 -237 l 238 -86 l 397 -86 l 397 -199 q 386 -325 397 -285 q 339 -383 375 -365 q 226 -400 303 -400 l 226 -331 z "},"ṅ":{"ha":624,"x_min":74,"x_max":553,"o":"m 403 390 q 397 521 403 483 q 375 569 392 558 q 317 579 358 579 q 253 560 272 579 q 228 501 233 542 q 224 369 224 461 l 224 0 l 74 0 l 74 708 l 211 708 l 217 619 l 225 619 q 283 696 243 672 q 388 719 324 719 q 492 692 457 719 q 540 610 528 665 q 553 460 553 556 l 553 0 l 403 0 l 403 390 m 243 882 l 243 1014 l 376 1014 l 376 882 l 243 882 z "},"ŋ":{"ha":624,"x_min":74,"x_max":553,"o":"m 388 719 q 492 692 457 719 q 540 610 528 665 q 553 460 553 556 l 553 -18 q 533 -185 553 -133 q 465 -253 513 -237 q 315 -268 418 -268 l 315 -149 q 374 -142 356 -149 q 398 -120 393 -135 q 403 -76 403 -106 l 403 390 q 397 521 403 483 q 375 569 392 558 q 317 579 358 579 q 253 560 272 579 q 228 501 233 542 q 224 369 224 461 l 224 0 l 74 0 l 74 708 l 211 708 l 217 619 l 225 619 q 283 696 243 672 q 388 719 324 719 z "},"ɲ":{"ha":624,"x_min":-14,"x_max":553,"o":"m -14 -149 q 45 -142 26 -149 q 69 -120 64 -135 q 74 -76 74 -106 l 74 708 l 211 708 l 217 619 l 225 619 q 283 696 243 672 q 388 719 324 719 q 492 692 457 719 q 540 610 528 665 q 553 460 553 556 l 553 0 l 403 0 l 403 390 q 397 521 403 483 q 375 569 392 558 q 317 579 358 579 q 253 561 272 579 q 228 502 233 543 q 224 371 224 461 l 224 -18 q 203 -185 224 -133 q 136 -253 183 -237 q -14 -268 89 -268 l -14 -149 z "},"ǌ":{"ha":921,"x_min":74,"x_max":849,"o":"m 403 390 q 397 521 403 483 q 375 569 392 558 q 317 579 358 579 q 253 560 272 579 q 228 501 233 542 q 224 369 224 461 l 224 0 l 74 0 l 74 708 l 211 708 l 217 619 l 225 619 q 283 696 243 672 q 388 719 324 719 q 492 692 457 719 q 540 610 528 665 q 553 460 553 556 l 553 0 l 403 0 l 403 390 m 696 879 l 696 1032 l 849 1032 l 849 879 l 696 879 m 610 -149 q 669 -142 650 -149 q 692 -120 688 -135 q 697 -76 697 -106 l 697 708 l 847 708 l 847 -18 q 827 -185 847 -133 q 760 -253 807 -237 q 610 -268 713 -268 l 610 -149 z "},"ñ":{"ha":624,"x_min":74,"x_max":553,"o":"m 403 390 q 397 521 403 483 q 375 569 392 558 q 317 579 358 579 q 253 560 272 579 q 228 501 233 542 q 224 369 224 461 l 224 0 l 74 0 l 74 708 l 211 708 l 217 619 l 225 619 q 283 696 243 672 q 388 719 324 719 q 492 692 457 719 q 540 610 528 665 q 553 460 553 556 l 553 0 l 403 0 l 403 390 m 525 1032 q 519 931 525 965 q 493 878 514 897 q 428 860 472 860 q 372 867 400 860 q 306 886 343 874 q 273 897 301 888 q 225 906 244 906 q 202 893 207 906 q 197 844 197 881 l 107 844 q 113 945 107 911 q 139 998 118 979 q 206 1017 160 1017 q 260 1010 233 1017 q 328 990 286 1004 q 408 972 385 972 q 431 983 426 972 q 435 1032 435 994 l 525 1032 z "},"o":{"ha":604,"x_min":54,"x_max":549,"o":"m 301 -11 q 135 19 186 -11 q 69 122 83 50 q 54 354 54 194 q 69 588 54 515 q 135 690 83 660 q 301 719 186 719 q 468 690 417 719 q 534 588 519 660 q 549 354 549 515 q 534 122 549 194 q 468 19 519 50 q 301 -11 417 -11 m 301 118 q 370 133 351 118 q 394 192 389 147 q 399 354 399 236 q 394 517 399 474 q 370 576 389 561 q 301 590 351 590 q 233 576 251 590 q 209 517 214 561 q 204 354 204 474 q 209 192 204 236 q 233 133 214 147 q 301 118 251 118 z "},"ó":{"ha":604,"x_min":54,"x_max":549,"o":"m 301 -11 q 135 19 186 -11 q 69 122 83 50 q 54 354 54 194 q 69 588 54 515 q 135 690 83 660 q 301 719 186 719 q 468 690 417 719 q 534 588 519 660 q 549 354 549 515 q 534 122 549 194 q 468 19 519 50 q 301 -11 417 -11 m 301 118 q 370 133 351 118 q 394 192 389 147 q 399 354 399 236 q 394 517 399 474 q 370 576 389 561 q 301 590 351 590 q 233 576 251 590 q 209 517 214 561 q 204 354 204 474 q 209 192 204 236 q 233 133 214 147 q 301 118 251 118 m 235 832 l 235 839 l 308 1032 l 461 1032 l 461 1025 l 354 832 l 235 832 z "},"ŏ":{"ha":604,"x_min":54,"x_max":549,"o":"m 301 -11 q 135 19 186 -11 q 69 122 83 50 q 54 354 54 194 q 69 588 54 515 q 135 690 83 660 q 301 719 186 719 q 468 690 417 719 q 534 588 519 660 q 549 354 549 515 q 534 122 549 194 q 468 19 519 50 q 301 -11 417 -11 m 301 118 q 370 133 351 118 q 394 192 389 147 q 399 354 399 236 q 394 517 399 474 q 370 576 389 561 q 301 590 351 590 q 233 576 251 590 q 209 517 214 561 q 204 354 204 474 q 209 192 204 236 q 233 133 214 147 q 301 118 251 118 m 474 1032 q 462 928 474 968 q 412 865 450 889 q 299 842 374 842 q 188 865 225 842 q 139 928 150 888 q 128 1032 128 968 l 224 1032 q 227 974 224 993 q 247 944 231 956 q 299 933 263 933 q 351 944 335 933 q 372 975 368 956 q 376 1032 376 994 l 474 1032 z "},"ǒ":{"ha":604,"x_min":54,"x_max":549,"o":"m 301 -11 q 135 19 186 -11 q 69 122 83 50 q 54 354 54 194 q 69 588 54 515 q 135 690 83 660 q 301 719 186 719 q 468 690 417 719 q 534 588 519 660 q 549 354 549 515 q 534 122 549 194 q 468 19 519 50 q 301 -11 417 -11 m 301 118 q 370 133 351 118 q 394 192 389 147 q 399 354 399 236 q 394 517 399 474 q 370 576 389 561 q 301 590 351 590 q 233 576 251 590 q 209 517 214 561 q 204 354 204 474 q 209 192 204 236 q 233 133 214 147 q 301 118 251 118 m 224 846 l 118 1022 l 118 1032 l 224 1032 l 301 922 l 379 1032 l 485 1032 l 485 1022 l 379 846 l 224 846 z "},"ô":{"ha":604,"x_min":54,"x_max":549,"o":"m 301 -11 q 135 19 186 -11 q 69 122 83 50 q 54 354 54 194 q 69 588 54 515 q 135 690 83 660 q 301 719 186 719 q 468 690 417 719 q 534 588 519 660 q 549 354 549 515 q 534 122 549 194 q 468 19 519 50 q 301 -11 417 -11 m 301 118 q 370 133 351 118 q 394 192 389 147 q 399 354 399 236 q 394 517 399 474 q 370 576 389 561 q 301 590 351 590 q 233 576 251 590 q 209 517 214 561 q 204 354 204 474 q 209 192 204 236 q 233 133 214 147 q 301 118 251 118 m 119 847 l 119 857 l 224 1032 l 381 1032 l 485 857 l 485 847 l 381 847 l 301 957 l 224 847 l 119 847 z "},"ố":{"ha":604,"x_min":54,"x_max":563,"o":"m 301 -11 q 135 19 186 -11 q 69 122 83 50 q 54 354 54 194 q 69 588 54 515 q 135 690 83 660 q 301 719 186 719 q 468 690 417 719 q 534 588 519 660 q 549 354 549 515 q 534 122 549 194 q 468 19 519 50 q 301 -11 417 -11 m 301 118 q 370 133 351 118 q 394 192 389 147 q 399 354 399 236 q 394 517 399 474 q 370 576 389 561 q 301 590 351 590 q 233 576 251 590 q 209 517 214 561 q 204 354 204 474 q 209 192 204 236 q 233 133 214 147 q 301 118 251 118 m 121 847 l 121 857 l 225 1032 l 382 1032 l 486 857 l 486 847 l 382 847 l 303 957 l 225 847 l 121 847 m 336 1071 l 336 1078 l 410 1271 l 563 1271 l 563 1264 l 456 1071 l 336 1071 z "},"ộ":{"ha":604,"x_min":54,"x_max":549,"o":"m 301 -11 q 135 19 186 -11 q 69 122 83 50 q 54 354 54 194 q 69 588 54 515 q 135 690 83 660 q 301 719 186 719 q 468 690 417 719 q 534 588 519 660 q 549 354 549 515 q 534 122 549 194 q 468 19 519 50 q 301 -11 417 -11 m 301 118 q 370 133 351 118 q 394 192 389 147 q 399 354 399 236 q 394 517 399 474 q 370 576 389 561 q 301 590 351 590 q 233 576 251 590 q 209 517 214 561 q 204 354 204 474 q 209 192 204 236 q 233 133 214 147 q 301 118 251 118 m 217 -251 l 217 -86 l 385 -86 l 385 -251 l 217 -251 m 118 847 l 118 857 l 222 1032 l 379 1032 l 483 857 l 483 847 l 379 847 l 300 957 l 222 847 l 118 847 z "},"ồ":{"ha":604,"x_min":54,"x_max":549,"o":"m 301 -11 q 135 19 186 -11 q 69 122 83 50 q 54 354 54 194 q 69 588 54 515 q 135 690 83 660 q 301 719 186 719 q 468 690 417 719 q 534 588 519 660 q 549 354 549 515 q 534 122 549 194 q 468 19 519 50 q 301 -11 417 -11 m 301 118 q 370 133 351 118 q 394 192 389 147 q 399 354 399 236 q 394 517 399 474 q 370 576 389 561 q 301 590 351 590 q 233 576 251 590 q 209 517 214 561 q 204 354 204 474 q 209 192 204 236 q 233 133 214 147 q 301 118 251 118 m 111 847 l 111 857 l 215 1032 l 372 1032 l 476 857 l 476 847 l 372 847 l 293 957 l 215 847 l 111 847 m 368 1071 l 263 1264 l 263 1271 l 415 1271 l 489 1078 l 489 1071 l 368 1071 z "},"ổ":{"ha":604,"x_min":54,"x_max":576,"o":"m 301 -11 q 135 19 186 -11 q 69 122 83 50 q 54 354 54 194 q 69 588 54 515 q 135 690 83 660 q 301 719 186 719 q 468 690 417 719 q 534 588 519 660 q 549 354 549 515 q 534 122 549 194 q 468 19 519 50 q 301 -11 417 -11 m 301 118 q 370 133 351 118 q 394 192 389 147 q 399 354 399 236 q 394 517 399 474 q 370 576 389 561 q 301 590 351 590 q 233 576 251 590 q 209 517 214 561 q 204 354 204 474 q 209 192 204 236 q 233 133 214 147 q 301 118 251 118 m 118 847 l 118 857 l 222 1032 l 379 1032 l 483 857 l 483 847 l 379 847 l 300 957 l 222 847 l 118 847 m 343 1083 q 356 1137 343 1122 q 401 1167 368 1151 l 421 1175 q 456 1197 446 1188 q 465 1218 465 1206 q 455 1238 465 1232 q 413 1243 444 1243 q 278 1235 346 1243 l 278 1335 q 413 1350 360 1350 q 535 1322 494 1350 q 576 1229 576 1293 q 564 1163 576 1188 q 514 1119 551 1138 l 488 1107 q 449 1084 456 1092 q 443 1058 443 1076 l 343 1058 l 343 1083 z "},"ỗ":{"ha":604,"x_min":54,"x_max":549,"o":"m 301 -11 q 135 19 186 -11 q 69 122 83 50 q 54 354 54 194 q 69 588 54 515 q 135 690 83 660 q 301 719 186 719 q 468 690 417 719 q 534 588 519 660 q 549 354 549 515 q 534 122 549 194 q 468 19 519 50 q 301 -11 417 -11 m 301 118 q 370 133 351 118 q 394 192 389 147 q 399 354 399 236 q 394 517 399 474 q 370 576 389 561 q 301 590 351 590 q 233 576 251 590 q 209 517 214 561 q 204 354 204 474 q 209 192 204 236 q 233 133 214 147 q 301 118 251 118 m 115 847 l 115 857 l 219 1032 l 376 1032 l 481 857 l 481 847 l 376 847 l 297 957 l 219 847 l 115 847 m 510 1272 q 504 1172 510 1206 q 478 1119 499 1138 q 413 1100 457 1100 q 356 1107 385 1100 q 290 1126 328 1114 q 258 1137 286 1128 q 210 1146 229 1146 q 187 1133 192 1146 q 182 1085 182 1121 l 92 1085 q 97 1185 92 1151 q 124 1238 103 1219 q 190 1257 144 1257 q 244 1251 218 1257 q 313 1231 271 1244 q 393 1213 369 1213 q 415 1224 411 1213 q 419 1272 419 1235 l 510 1272 z "},"ȍ":{"ha":604,"x_min":54,"x_max":549,"o":"m 301 -11 q 135 19 186 -11 q 69 122 83 50 q 54 354 54 194 q 69 588 54 515 q 135 690 83 660 q 301 719 186 719 q 468 690 417 719 q 534 588 519 660 q 549 354 549 515 q 534 122 549 194 q 468 19 519 50 q 301 -11 417 -11 m 301 118 q 370 133 351 118 q 394 192 389 147 q 399 354 399 236 q 394 517 399 474 q 370 576 389 561 q 301 590 351 590 q 233 576 251 590 q 209 517 214 561 q 204 354 204 474 q 209 192 204 236 q 233 133 214 147 q 301 118 251 118 m 258 846 l 158 846 l 67 1013 l 67 1018 l 194 1018 l 258 851 l 258 846 m 457 846 l 357 846 l 265 1013 l 265 1018 l 392 1018 l 457 851 l 457 846 z "},"ö":{"ha":604,"x_min":54,"x_max":549,"o":"m 301 -11 q 135 19 186 -11 q 69 122 83 50 q 54 354 54 194 q 69 588 54 515 q 135 690 83 660 q 301 719 186 719 q 468 690 417 719 q 534 588 519 660 q 549 354 549 515 q 534 122 549 194 q 468 19 519 50 q 301 -11 417 -11 m 301 118 q 370 133 351 118 q 394 192 389 147 q 399 354 399 236 q 394 517 399 474 q 370 576 389 561 q 301 590 351 590 q 233 576 251 590 q 209 517 214 561 q 204 354 204 474 q 209 192 204 236 q 233 133 214 147 q 301 118 251 118 m 114 871 l 114 1003 l 249 1003 l 249 871 l 114 871 m 357 871 l 357 1003 l 490 1003 l 490 871 l 357 871 z "},"ọ":{"ha":604,"x_min":54,"x_max":549,"o":"m 301 -11 q 135 19 186 -11 q 69 122 83 50 q 54 354 54 194 q 69 588 54 515 q 135 690 83 660 q 301 719 186 719 q 468 690 417 719 q 534 588 519 660 q 549 354 549 515 q 534 122 549 194 q 468 19 519 50 q 301 -11 417 -11 m 301 118 q 370 133 351 118 q 394 192 389 147 q 399 354 399 236 q 394 517 399 474 q 370 576 389 561 q 301 590 351 590 q 233 576 251 590 q 209 517 214 561 q 204 354 204 474 q 209 192 204 236 q 233 133 214 147 q 301 118 251 118 m 217 -251 l 217 -86 l 385 -86 l 385 -251 l 217 -251 z "},"ò":{"ha":604,"x_min":54,"x_max":549,"o":"m 301 -11 q 135 19 186 -11 q 69 122 83 50 q 54 354 54 194 q 69 588 54 515 q 135 690 83 660 q 301 719 186 719 q 468 690 417 719 q 534 588 519 660 q 549 354 549 515 q 534 122 549 194 q 468 19 519 50 q 301 -11 417 -11 m 301 118 q 370 133 351 118 q 394 192 389 147 q 399 354 399 236 q 394 517 399 474 q 370 576 389 561 q 301 590 351 590 q 233 576 251 590 q 209 517 214 561 q 204 354 204 474 q 209 192 204 236 q 233 133 214 147 q 301 118 251 118 m 249 832 l 143 1025 l 143 1032 l 296 1032 l 369 839 l 369 832 l 249 832 z "},"ỏ":{"ha":604,"x_min":54,"x_max":549,"o":"m 301 -11 q 135 19 186 -11 q 69 122 83 50 q 54 354 54 194 q 69 588 54 515 q 135 690 83 660 q 301 719 186 719 q 468 690 417 719 q 534 588 519 660 q 549 354 549 515 q 534 122 549 194 q 468 19 519 50 q 301 -11 417 -11 m 301 118 q 370 133 351 118 q 394 192 389 147 q 399 354 399 236 q 394 517 399 474 q 370 576 389 561 q 301 590 351 590 q 233 576 251 590 q 209 517 214 561 q 204 354 204 474 q 209 192 204 236 q 233 133 214 147 q 301 118 251 118 m 217 872 q 229 926 217 911 q 275 956 242 940 l 294 964 q 329 985 319 976 q 339 1007 339 994 q 328 1026 339 1021 q 286 1032 318 1032 q 151 1024 219 1032 l 151 1124 q 286 1139 233 1139 q 409 1110 368 1139 q 450 1018 450 1082 q 438 951 450 976 q 388 908 425 926 l 361 896 q 323 873 329 881 q 317 847 317 865 l 217 847 l 217 872 z "},"ơ":{"ha":604,"x_min":54,"x_max":644,"o":"m 644 843 l 644 790 q 635 706 644 735 q 599 660 626 676 q 514 640 571 644 q 542 538 535 603 q 549 354 549 472 q 534 122 549 194 q 468 19 519 50 q 301 -11 417 -11 q 135 19 186 -11 q 69 122 83 50 q 54 354 54 194 q 69 588 54 515 q 135 690 83 660 q 301 719 186 719 q 419 708 379 719 l 449 708 q 527 718 508 708 q 546 758 546 728 l 546 843 l 644 843 m 301 118 q 370 133 351 118 q 394 192 389 147 q 399 354 399 236 q 394 517 399 474 q 370 576 389 561 q 301 590 351 590 q 233 576 251 590 q 209 517 214 561 q 204 354 204 474 q 209 192 204 236 q 233 133 214 147 q 301 118 251 118 z "},"ớ":{"ha":604,"x_min":54,"x_max":644,"o":"m 644 843 l 644 790 q 635 706 644 735 q 599 660 626 676 q 514 640 571 644 q 542 538 535 603 q 549 354 549 472 q 534 122 549 194 q 468 19 519 50 q 301 -11 417 -11 q 135 19 186 -11 q 69 122 83 50 q 54 354 54 194 q 69 588 54 515 q 135 690 83 660 q 301 719 186 719 q 419 708 379 719 l 449 708 q 527 718 508 708 q 546 758 546 728 l 546 843 l 644 843 m 301 118 q 370 133 351 118 q 394 192 389 147 q 399 354 399 236 q 394 517 399 474 q 370 576 389 561 q 301 590 351 590 q 233 576 251 590 q 209 517 214 561 q 204 354 204 474 q 209 192 204 236 q 233 133 214 147 q 301 118 251 118 m 231 832 l 231 839 l 304 1032 l 457 1032 l 457 1025 l 350 832 l 231 832 z "},"ợ":{"ha":604,"x_min":54,"x_max":644,"o":"m 644 843 l 644 790 q 635 706 644 735 q 599 660 626 676 q 514 640 571 644 q 542 538 535 603 q 549 354 549 472 q 534 122 549 194 q 468 19 519 50 q 301 -11 417 -11 q 135 19 186 -11 q 69 122 83 50 q 54 354 54 194 q 69 588 54 515 q 135 690 83 660 q 301 719 186 719 q 419 708 379 719 l 449 708 q 527 718 508 708 q 546 758 546 728 l 546 843 l 644 843 m 301 118 q 370 133 351 118 q 394 192 389 147 q 399 354 399 236 q 394 517 399 474 q 370 576 389 561 q 301 590 351 590 q 233 576 251 590 q 209 517 214 561 q 204 354 204 474 q 209 192 204 236 q 233 133 214 147 q 301 118 251 118 m 217 -251 l 217 -86 l 385 -86 l 385 -251 l 217 -251 z "},"ờ":{"ha":604,"x_min":54,"x_max":644,"o":"m 644 843 l 644 790 q 635 706 644 735 q 599 660 626 676 q 514 640 571 644 q 542 538 535 603 q 549 354 549 472 q 534 122 549 194 q 468 19 519 50 q 301 -11 417 -11 q 135 19 186 -11 q 69 122 83 50 q 54 354 54 194 q 69 588 54 515 q 135 690 83 660 q 301 719 186 719 q 419 708 379 719 l 449 708 q 527 718 508 708 q 546 758 546 728 l 546 843 l 644 843 m 301 118 q 370 133 351 118 q 394 192 389 147 q 399 354 399 236 q 394 517 399 474 q 370 576 389 561 q 301 590 351 590 q 233 576 251 590 q 209 517 214 561 q 204 354 204 474 q 209 192 204 236 q 233 133 214 147 q 301 118 251 118 m 239 832 l 133 1025 l 133 1032 l 286 1032 l 360 839 l 360 832 l 239 832 z "},"ở":{"ha":604,"x_min":54,"x_max":644,"o":"m 644 843 l 644 790 q 635 706 644 735 q 599 660 626 676 q 514 640 571 644 q 542 538 535 603 q 549 354 549 472 q 534 122 549 194 q 468 19 519 50 q 301 -11 417 -11 q 135 19 186 -11 q 69 122 83 50 q 54 354 54 194 q 69 588 54 515 q 135 690 83 660 q 301 719 186 719 q 419 708 379 719 l 449 708 q 527 718 508 708 q 546 758 546 728 l 546 843 l 644 843 m 301 118 q 370 133 351 118 q 394 192 389 147 q 399 354 399 236 q 394 517 399 474 q 370 576 389 561 q 301 590 351 590 q 233 576 251 590 q 209 517 214 561 q 204 354 204 474 q 209 192 204 236 q 233 133 214 147 q 301 118 251 118 m 217 872 q 229 926 217 911 q 275 956 242 940 l 294 964 q 329 985 319 976 q 339 1007 339 994 q 328 1026 339 1021 q 286 1032 318 1032 q 151 1024 219 1032 l 151 1124 q 286 1139 233 1139 q 409 1110 368 1139 q 450 1018 450 1082 q 438 951 450 976 q 388 908 425 926 l 361 896 q 323 873 329 881 q 317 847 317 865 l 217 847 l 217 872 z "},"ỡ":{"ha":604,"x_min":54,"x_max":644,"o":"m 644 843 l 644 790 q 635 706 644 735 q 599 660 626 676 q 514 640 571 644 q 542 538 535 603 q 549 354 549 472 q 534 122 549 194 q 468 19 519 50 q 301 -11 417 -11 q 135 19 186 -11 q 69 122 83 50 q 54 354 54 194 q 69 588 54 515 q 135 690 83 660 q 301 719 186 719 q 419 708 379 719 l 449 708 q 527 718 508 708 q 546 758 546 728 l 546 843 l 644 843 m 301 118 q 370 133 351 118 q 394 192 389 147 q 399 354 399 236 q 394 517 399 474 q 370 576 389 561 q 301 590 351 590 q 233 576 251 590 q 209 517 214 561 q 204 354 204 474 q 209 192 204 236 q 233 133 214 147 q 301 118 251 118 m 510 1032 q 504 931 510 965 q 478 878 499 897 q 413 860 457 860 q 356 867 385 860 q 290 886 328 874 q 258 897 286 888 q 210 906 229 906 q 187 893 192 906 q 182 844 182 881 l 92 844 q 97 945 92 911 q 124 998 103 979 q 190 1017 144 1017 q 244 1010 218 1017 q 313 990 271 1004 q 393 972 369 972 q 415 983 411 972 q 419 1032 419 994 l 510 1032 z "},"ő":{"ha":604,"x_min":54,"x_max":549,"o":"m 301 -11 q 135 19 186 -11 q 69 122 83 50 q 54 354 54 194 q 69 588 54 515 q 135 690 83 660 q 301 719 186 719 q 468 690 417 719 q 534 588 519 660 q 549 354 549 515 q 534 122 549 194 q 468 19 519 50 q 301 -11 417 -11 m 301 118 q 370 133 351 118 q 394 192 389 147 q 399 354 399 236 q 394 517 399 474 q 370 576 389 561 q 301 590 351 590 q 233 576 251 590 q 209 517 214 561 q 204 354 204 474 q 209 192 204 236 q 233 133 214 147 q 301 118 251 118 m 158 846 l 158 851 l 224 1018 l 350 1018 l 350 1013 l 258 846 l 158 846 m 357 846 l 357 851 l 421 1018 l 549 1018 l 549 1013 l 457 846 l 357 846 z "},"ȏ":{"ha":604,"x_min":54,"x_max":549,"o":"m 301 -11 q 135 19 186 -11 q 69 122 83 50 q 54 354 54 194 q 69 588 54 515 q 135 690 83 660 q 301 719 186 719 q 468 690 417 719 q 534 588 519 660 q 549 354 549 515 q 534 122 549 194 q 468 19 519 50 q 301 -11 417 -11 m 301 118 q 370 133 351 118 q 394 192 389 147 q 399 354 399 236 q 394 517 399 474 q 370 576 389 561 q 301 590 351 590 q 233 576 251 590 q 209 517 214 561 q 204 354 204 474 q 209 192 204 236 q 233 133 214 147 q 301 118 251 118 m 128 850 q 140 953 128 914 q 190 1017 151 993 q 303 1040 228 1040 q 414 1017 376 1040 q 463 954 451 994 q 474 850 474 914 l 378 850 q 374 908 378 889 q 355 938 371 926 q 303 949 339 949 q 250 938 267 949 q 229 907 233 926 q 225 850 225 888 l 128 850 z "},"ō":{"ha":604,"x_min":54,"x_max":549,"o":"m 301 -11 q 135 19 186 -11 q 69 122 83 50 q 54 354 54 194 q 69 588 54 515 q 135 690 83 660 q 301 719 186 719 q 468 690 417 719 q 534 588 519 660 q 549 354 549 515 q 534 122 549 194 q 468 19 519 50 q 301 -11 417 -11 m 301 118 q 370 133 351 118 q 394 192 389 147 q 399 354 399 236 q 394 517 399 474 q 370 576 389 561 q 301 590 351 590 q 233 576 251 590 q 209 517 214 561 q 204 354 204 474 q 209 192 204 236 q 233 133 214 147 q 301 118 251 118 m 163 893 l 163 1032 l 439 1032 l 439 893 l 163 893 z "},"ǫ":{"ha":604,"x_min":54,"x_max":549,"o":"m 301 719 q 468 690 417 719 q 534 588 519 660 q 549 354 549 515 q 536 131 549 201 q 479 26 524 60 q 417 -44 442 -1 q 392 -129 392 -86 q 446 -182 392 -182 q 468 -181 461 -182 l 468 -268 q 406 -272 431 -272 q 302 -241 333 -272 q 271 -160 271 -210 q 329 -11 271 -87 l 301 -11 q 135 19 186 -11 q 69 122 83 50 q 54 354 54 194 q 69 588 54 515 q 135 690 83 660 q 301 719 186 719 m 301 118 q 370 133 351 118 q 394 192 389 147 q 399 354 399 236 q 394 517 399 474 q 370 576 389 561 q 301 590 351 590 q 233 576 251 590 q 209 517 214 561 q 204 354 204 474 q 209 192 204 236 q 233 133 214 147 q 301 118 251 118 z "},"ø":{"ha":604,"x_min":54,"x_max":549,"o":"m 106 44 q 64 150 74 82 q 54 354 54 218 q 69 588 54 515 q 135 690 83 660 q 301 719 186 719 q 385 714 353 719 l 415 786 l 549 786 l 497 664 q 539 559 529 628 q 549 354 549 490 q 534 122 549 194 q 468 19 519 50 q 301 -11 417 -11 q 218 -6 250 -11 l 189 -76 l 54 -76 l 106 44 m 301 118 q 370 133 351 118 q 394 192 389 147 q 399 354 399 236 q 394 517 399 474 q 370 576 389 561 q 301 590 351 590 q 233 576 251 590 q 209 517 214 561 q 204 354 204 474 q 209 192 204 236 q 233 133 214 147 q 301 118 251 118 z "},"ǿ":{"ha":604,"x_min":54,"x_max":549,"o":"m 106 44 q 64 150 74 82 q 54 354 54 218 q 69 588 54 515 q 135 690 83 660 q 301 719 186 719 q 385 714 353 719 l 415 786 l 549 786 l 497 664 q 539 559 529 628 q 549 354 549 490 q 534 122 549 194 q 468 19 519 50 q 301 -11 417 -11 q 218 -6 250 -11 l 189 -76 l 54 -76 l 106 44 m 301 118 q 370 133 351 118 q 394 192 389 147 q 399 354 399 236 q 394 517 399 474 q 370 576 389 561 q 301 590 351 590 q 233 576 251 590 q 209 517 214 561 q 204 354 204 474 q 209 192 204 236 q 233 133 214 147 q 301 118 251 118 m 231 832 l 231 839 l 304 1032 l 457 1032 l 457 1025 l 350 832 l 231 832 z "},"õ":{"ha":604,"x_min":54,"x_max":549,"o":"m 301 -11 q 135 19 186 -11 q 69 122 83 50 q 54 354 54 194 q 69 588 54 515 q 135 690 83 660 q 301 719 186 719 q 468 690 417 719 q 534 588 519 660 q 549 354 549 515 q 534 122 549 194 q 468 19 519 50 q 301 -11 417 -11 m 301 118 q 370 133 351 118 q 394 192 389 147 q 399 354 399 236 q 394 517 399 474 q 370 576 389 561 q 301 590 351 590 q 233 576 251 590 q 209 517 214 561 q 204 354 204 474 q 209 192 204 236 q 233 133 214 147 q 301 118 251 118 m 513 1032 q 507 931 513 965 q 481 878 501 897 q 415 860 460 860 q 359 867 388 860 q 293 886 331 874 q 260 897 289 888 q 213 906 232 906 q 190 893 194 906 q 185 844 185 881 l 94 844 q 100 945 94 911 q 126 998 106 979 q 193 1017 147 1017 q 247 1010 221 1017 q 315 990 274 1004 q 396 972 372 972 q 418 983 414 972 q 422 1032 422 994 l 513 1032 z "},"œ":{"ha":935,"x_min":54,"x_max":879,"o":"m 879 303 l 549 303 q 557 177 549 213 q 592 130 565 142 q 690 118 619 118 q 861 129 758 118 l 861 10 q 767 -6 824 0 q 657 -11 710 -11 q 478 39 532 -11 q 409 0 451 11 q 301 -11 367 -11 q 135 19 186 -11 q 69 121 83 49 q 54 354 54 193 q 69 588 54 515 q 135 690 83 660 q 301 719 186 719 q 408 708 365 719 q 476 669 450 696 q 647 719 531 719 q 807 684 758 719 q 867 578 856 649 q 879 353 879 507 l 879 303 m 646 590 q 582 578 601 590 q 556 530 563 565 q 549 414 550 494 l 735 414 l 735 415 q 728 531 735 496 q 703 578 721 567 q 646 590 685 590 m 301 118 q 370 133 351 118 q 394 191 389 147 q 399 354 399 235 q 394 517 399 474 q 370 575 389 561 q 301 589 351 589 q 233 575 251 589 q 209 517 214 561 q 204 354 204 474 q 209 191 204 235 q 233 133 214 147 q 301 118 251 118 z "},"p":{"ha":618,"x_min":74,"x_max":563,"o":"m 74 708 l 211 708 l 217 621 l 226 621 q 379 719 256 719 q 490 688 451 719 q 546 579 529 657 q 563 357 563 501 q 547 135 563 214 q 492 23 531 57 q 382 -11 454 -11 q 232 79 265 -11 l 224 79 l 224 -268 l 74 -268 l 74 708 m 315 128 q 381 141 363 128 q 406 198 400 154 q 413 354 413 242 q 406 510 413 467 q 381 567 400 554 q 315 581 363 581 q 259 566 278 581 q 232 515 240 551 q 224 354 224 475 q 229 211 224 254 q 255 145 236 163 q 315 128 274 128 z "},"þ":{"ha":618,"x_min":74,"x_max":563,"o":"m 74 1032 l 224 1032 l 224 622 l 231 622 q 379 719 261 719 q 490 688 451 719 q 546 579 529 657 q 563 356 563 501 q 547 134 563 213 q 492 22 531 56 q 382 -11 454 -11 q 231 78 265 -11 l 224 78 l 224 -267 l 74 -267 l 74 1032 m 315 128 q 381 141 363 128 q 406 198 400 154 q 413 354 413 242 q 406 510 413 467 q 381 567 400 554 q 315 581 363 581 q 256 564 275 581 q 231 503 236 547 q 224 354 224 461 q 228 225 224 274 q 253 148 233 168 q 315 128 272 128 z "},"q":{"ha":618,"x_min":54,"x_max":544,"o":"m 394 79 l 386 79 q 236 -11 351 -11 q 125 22 164 -11 q 70 134 86 56 q 54 356 54 213 q 71 579 54 501 q 127 688 88 657 q 239 719 167 719 q 390 621 361 719 l 400 621 l 406 708 l 544 708 l 544 -268 l 394 -268 l 394 79 m 301 128 q 359 142 340 128 q 386 196 378 157 q 394 354 394 236 q 392 463 394 424 q 382 525 390 501 q 356 568 375 556 q 301 581 338 581 q 235 567 254 581 q 210 510 217 554 q 204 354 204 465 q 210 199 204 243 q 235 141 217 154 q 301 128 254 128 z "},"r":{"ha":419,"x_min":74,"x_max":396,"o":"m 74 708 l 211 708 l 217 588 l 226 588 q 288 691 247 663 q 396 719 329 719 l 396 560 q 294 538 332 560 q 240 465 257 515 q 224 326 224 415 l 224 0 l 74 0 l 74 708 z "},"ŕ":{"ha":419,"x_min":74,"x_max":396,"o":"m 74 708 l 211 708 l 217 588 l 226 588 q 288 691 247 663 q 396 719 329 719 l 396 560 q 294 538 332 560 q 240 465 257 515 q 224 326 224 415 l 224 0 l 74 0 l 74 708 m 139 832 l 139 839 l 213 1032 l 365 1032 l 365 1025 l 258 832 l 139 832 z "},"ř":{"ha":419,"x_min":26,"x_max":396,"o":"m 74 708 l 211 708 l 217 588 l 226 588 q 288 691 247 663 q 396 719 329 719 l 396 560 q 294 538 332 560 q 240 465 257 515 q 224 326 224 415 l 224 0 l 74 0 l 74 708 m 132 846 l 26 1022 l 26 1032 l 132 1032 l 210 922 l 288 1032 l 393 1032 l 393 1022 l 288 846 l 132 846 z "},"ŗ":{"ha":419,"x_min":64,"x_max":396,"o":"m 74 708 l 211 708 l 217 588 l 226 588 q 288 691 247 663 q 396 719 329 719 l 396 560 q 294 538 332 560 q 240 465 257 515 q 224 326 224 415 l 224 0 l 74 0 l 74 708 m 64 -331 q 123 -317 108 -331 q 138 -260 138 -303 l 138 -237 l 75 -237 l 75 -86 l 235 -86 l 235 -199 q 224 -325 235 -285 q 176 -383 213 -365 q 64 -400 140 -400 l 64 -331 z "},"ȑ":{"ha":419,"x_min":-25,"x_max":396,"o":"m 74 708 l 211 708 l 217 588 l 226 588 q 288 691 247 663 q 396 719 329 719 l 396 560 q 294 538 332 560 q 240 465 257 515 q 224 326 224 415 l 224 0 l 74 0 l 74 708 m 167 846 l 67 846 l -25 1013 l -25 1018 l 103 1018 l 167 851 l 167 846 m 365 846 l 265 846 l 174 1013 l 174 1018 l 300 1018 l 365 851 l 365 846 z "},"ṛ":{"ha":419,"x_min":64,"x_max":396,"o":"m 74 708 l 211 708 l 217 588 l 226 588 q 288 691 247 663 q 396 719 329 719 l 396 560 q 294 538 332 560 q 240 465 257 515 q 224 326 224 415 l 224 0 l 74 0 l 74 708 m 64 -251 l 64 -86 l 232 -86 l 232 -251 l 64 -251 z "},"ȓ":{"ha":419,"x_min":36,"x_max":396,"o":"m 74 708 l 211 708 l 217 588 l 226 588 q 288 691 247 663 q 396 719 329 719 l 396 560 q 294 538 332 560 q 240 465 257 515 q 224 326 224 415 l 224 0 l 74 0 l 74 708 m 36 850 q 48 953 36 914 q 98 1017 60 993 q 211 1040 136 1040 q 322 1017 285 1040 q 371 954 360 994 q 382 850 382 914 l 286 850 q 283 908 286 889 q 263 938 279 926 q 211 949 247 949 q 158 938 175 949 q 138 907 142 926 q 133 850 133 888 l 36 850 z "},"s":{"ha":518,"x_min":43,"x_max":475,"o":"m 260 -11 q 158 -6 214 -11 q 60 8 101 0 l 60 129 q 228 118 160 118 q 292 126 271 118 q 319 150 313 133 q 326 200 326 167 q 322 255 326 239 q 307 277 318 271 q 268 288 296 283 l 144 306 q 65 358 88 314 q 43 507 43 403 q 100 673 43 626 q 268 719 157 719 q 363 713 314 719 q 443 697 413 707 l 443 578 q 288 590 365 590 q 213 574 233 590 q 193 510 193 558 q 197 460 193 475 q 210 438 200 444 q 246 429 221 432 l 351 415 q 418 393 392 410 q 460 333 444 376 q 475 211 475 290 q 423 37 475 85 q 260 -11 371 -11 z "},"ś":{"ha":518,"x_min":43,"x_max":475,"o":"m 260 -11 q 158 -6 214 -11 q 60 8 101 0 l 60 129 q 228 118 160 118 q 292 126 271 118 q 319 150 313 133 q 326 200 326 167 q 322 255 326 239 q 307 277 318 271 q 268 288 296 283 l 144 306 q 65 358 88 314 q 43 507 43 403 q 100 673 43 626 q 268 719 157 719 q 363 713 314 719 q 443 697 413 707 l 443 578 q 288 590 365 590 q 213 574 233 590 q 193 510 193 558 q 197 460 193 475 q 210 438 200 444 q 246 429 221 432 l 351 415 q 418 393 392 410 q 460 333 444 376 q 475 211 475 290 q 423 37 475 85 q 260 -11 371 -11 m 189 832 l 189 839 l 263 1032 l 415 1032 l 415 1025 l 308 832 l 189 832 z "},"ꞌ":{"ha":210,"x_min":33,"x_max":176,"o":"m 33 379 l 33 1032 l 176 1032 l 176 722 l 140 379 l 33 379 z "},"š":{"ha":518,"x_min":43,"x_max":475,"o":"m 260 -11 q 158 -6 214 -11 q 60 8 101 0 l 60 129 q 228 118 160 118 q 292 126 271 118 q 319 150 313 133 q 326 200 326 167 q 322 255 326 239 q 307 277 318 271 q 268 288 296 283 l 144 306 q 65 358 88 314 q 43 507 43 403 q 100 673 43 626 q 268 719 157 719 q 363 713 314 719 q 443 697 413 707 l 443 578 q 288 590 365 590 q 213 574 233 590 q 193 510 193 558 q 197 460 193 475 q 210 438 200 444 q 246 429 221 432 l 351 415 q 418 393 392 410 q 460 333 444 376 q 475 211 475 290 q 423 37 475 85 q 260 -11 371 -11 m 188 846 l 82 1022 l 82 1032 l 188 1032 l 265 922 l 343 1032 l 449 1032 l 449 1022 l 343 846 l 188 846 z "},"ş":{"ha":518,"x_min":43,"x_max":475,"o":"m 475 211 q 435 50 475 100 q 311 -8 394 0 l 263 -264 l 126 -264 l 126 -257 l 207 -10 q 60 8 126 -6 l 60 129 q 228 118 160 118 q 292 126 271 118 q 319 150 313 133 q 326 200 326 167 q 322 255 326 239 q 307 277 318 271 q 268 288 296 283 l 144 306 q 65 358 88 314 q 43 507 43 403 q 100 673 43 626 q 268 719 157 719 q 363 713 314 719 q 443 697 413 707 l 443 578 q 288 590 365 590 q 213 574 233 590 q 193 510 193 558 q 197 460 193 475 q 210 438 200 444 q 246 429 221 432 l 351 415 q 418 393 392 410 q 460 333 444 376 q 475 211 475 290 z "},"ŝ":{"ha":518,"x_min":43,"x_max":475,"o":"m 260 -11 q 158 -6 214 -11 q 60 8 101 0 l 60 129 q 228 118 160 118 q 292 126 271 118 q 319 150 313 133 q 326 200 326 167 q 322 255 326 239 q 307 277 318 271 q 268 288 296 283 l 144 306 q 65 358 88 314 q 43 507 43 403 q 100 673 43 626 q 268 719 157 719 q 363 713 314 719 q 443 697 413 707 l 443 578 q 288 590 365 590 q 213 574 233 590 q 193 510 193 558 q 197 460 193 475 q 210 438 200 444 q 246 429 221 432 l 351 415 q 418 393 392 410 q 460 333 444 376 q 475 211 475 290 q 423 37 475 85 q 260 -11 371 -11 m 76 847 l 76 857 l 181 1032 l 338 1032 l 442 857 l 442 847 l 338 847 l 258 957 l 181 847 l 76 847 z "},"ș":{"ha":518,"x_min":43,"x_max":475,"o":"m 260 -11 q 158 -6 214 -11 q 60 8 101 0 l 60 129 q 228 118 160 118 q 292 126 271 118 q 319 150 313 133 q 326 200 326 167 q 322 255 326 239 q 307 277 318 271 q 268 288 296 283 l 144 306 q 65 358 88 314 q 43 507 43 403 q 100 673 43 626 q 268 719 157 719 q 363 713 314 719 q 443 697 413 707 l 443 578 q 288 590 365 590 q 213 574 233 590 q 193 510 193 558 q 197 460 193 475 q 210 438 200 444 q 246 429 221 432 l 351 415 q 418 393 392 410 q 460 333 444 376 q 475 211 475 290 q 423 37 475 85 q 260 -11 371 -11 m 175 -331 q 234 -317 219 -331 q 249 -260 249 -303 l 249 -237 l 186 -237 l 186 -86 l 346 -86 l 346 -199 q 335 -325 346 -285 q 288 -383 324 -365 q 175 -400 251 -400 l 175 -331 z "},"ṣ":{"ha":518,"x_min":43,"x_max":475,"o":"m 260 -11 q 158 -6 214 -11 q 60 8 101 0 l 60 129 q 228 118 160 118 q 292 126 271 118 q 319 150 313 133 q 326 200 326 167 q 322 255 326 239 q 307 277 318 271 q 268 288 296 283 l 144 306 q 65 358 88 314 q 43 507 43 403 q 100 673 43 626 q 268 719 157 719 q 363 713 314 719 q 443 697 413 707 l 443 578 q 288 590 365 590 q 213 574 233 590 q 193 510 193 558 q 197 460 193 475 q 210 438 200 444 q 246 429 221 432 l 351 415 q 418 393 392 410 q 460 333 444 376 q 475 211 475 290 q 423 37 475 85 q 260 -11 371 -11 m 175 -251 l 175 -86 l 343 -86 l 343 -251 l 175 -251 z "},"ß":{"ha":636,"x_min":74,"x_max":579,"o":"m 299 0 l 299 129 l 326 129 q 397 140 378 129 q 423 192 417 151 q 429 339 429 232 q 421 466 429 426 q 393 518 413 506 q 331 531 374 531 l 311 531 l 311 663 l 331 663 q 392 674 372 663 q 417 712 411 686 q 422 789 422 738 q 411 867 422 840 q 378 903 400 894 q 319 913 357 913 q 262 901 282 913 q 233 857 242 890 q 224 757 224 824 l 224 0 l 74 0 l 74 760 q 97 922 74 861 q 174 1013 119 983 q 322 1042 228 1042 q 517 985 461 1042 q 572 808 572 928 q 542 667 572 715 q 444 606 511 619 l 444 600 q 548 524 517 583 q 579 332 579 464 q 562 138 579 207 q 494 34 544 68 q 342 0 443 0 l 299 0 z "},"ſ":{"ha":397,"x_min":24,"x_max":386,"o":"m 115 579 l 24 579 l 24 708 l 115 708 l 115 774 q 138 949 115 896 q 213 1017 160 1001 q 386 1032 267 1032 l 386 915 q 306 908 331 915 q 274 879 282 901 q 265 807 265 857 l 265 0 l 115 0 l 115 579 z "},"t":{"ha":404,"x_min":22,"x_max":379,"o":"m 115 0 l 115 579 l 22 579 l 22 708 l 115 708 l 115 914 l 265 914 l 265 708 l 379 708 l 379 579 l 265 579 l 265 0 l 115 0 z "},"ŧ":{"ha":404,"x_min":22,"x_max":379,"o":"m 379 579 l 265 579 l 265 417 l 378 417 l 378 288 l 265 288 l 265 0 l 115 0 l 115 288 l 26 288 l 26 417 l 115 417 l 115 579 l 22 579 l 22 708 l 115 708 l 115 914 l 265 914 l 265 708 l 379 708 l 379 579 z "},"ť":{"ha":507,"x_min":22,"x_max":588,"o":"m 115 0 l 115 579 l 22 579 l 22 708 l 115 708 l 115 914 l 265 914 l 265 708 l 379 708 l 379 579 l 265 579 l 265 0 l 115 0 m 419 601 l 443 871 l 443 956 l 588 956 l 588 871 l 528 601 l 419 601 z "},"ţ":{"ha":404,"x_min":22,"x_max":379,"o":"m 265 708 l 379 708 l 379 579 l 265 579 l 265 0 l 243 0 l 193 -264 l 57 -264 l 57 -257 l 140 0 l 115 0 l 115 579 l 22 579 l 22 708 l 115 708 l 115 914 l 265 914 l 265 708 z "},"ț":{"ha":404,"x_min":22,"x_max":379,"o":"m 115 0 l 115 579 l 22 579 l 22 708 l 115 708 l 115 914 l 265 914 l 265 708 l 379 708 l 379 579 l 265 579 l 265 0 l 115 0 m 106 -331 q 165 -317 150 -331 q 179 -260 179 -303 l 179 -237 l 117 -237 l 117 -86 l 276 -86 l 276 -199 q 265 -325 276 -285 q 218 -383 254 -365 q 106 -400 182 -400 l 106 -331 z "},"ṭ":{"ha":404,"x_min":22,"x_max":379,"o":"m 115 0 l 115 579 l 22 579 l 22 708 l 115 708 l 115 914 l 265 914 l 265 708 l 379 708 l 379 579 l 265 579 l 265 0 l 115 0 m 106 -251 l 106 -86 l 274 -86 l 274 -251 l 106 -251 z "},"u":{"ha":624,"x_min":71,"x_max":550,"o":"m 406 89 l 397 89 q 339 13 379 36 q 236 -11 299 -11 q 131 16 167 -11 q 83 98 94 43 q 71 249 71 153 l 71 708 l 221 708 l 221 318 q 226 187 221 224 q 247 140 231 150 q 306 129 264 129 q 369 147 350 129 q 394 207 389 165 q 400 339 400 249 l 400 708 l 550 708 l 550 0 l 411 0 l 406 89 z "},"ú":{"ha":624,"x_min":71,"x_max":550,"o":"m 406 89 l 397 89 q 339 13 379 36 q 236 -11 299 -11 q 131 16 167 -11 q 83 98 94 43 q 71 249 71 153 l 71 708 l 221 708 l 221 318 q 226 187 221 224 q 247 140 231 150 q 306 129 264 129 q 369 147 350 129 q 394 207 389 165 q 400 339 400 249 l 400 708 l 550 708 l 550 0 l 411 0 l 406 89 m 246 832 l 246 839 l 319 1032 l 472 1032 l 472 1025 l 365 832 l 246 832 z "},"ŭ":{"ha":624,"x_min":71,"x_max":550,"o":"m 406 89 l 397 89 q 339 13 379 36 q 236 -11 299 -11 q 131 16 167 -11 q 83 98 94 43 q 71 249 71 153 l 71 708 l 221 708 l 221 318 q 226 187 221 224 q 247 140 231 150 q 306 129 264 129 q 369 147 350 129 q 394 207 389 165 q 400 339 400 249 l 400 708 l 550 708 l 550 0 l 411 0 l 406 89 m 483 1032 q 472 928 483 968 q 422 865 460 889 q 308 842 383 842 q 197 865 235 842 q 149 928 160 888 q 138 1032 138 968 l 233 1032 q 237 974 233 993 q 256 944 240 956 q 308 933 272 933 q 361 944 344 933 q 382 975 378 956 q 386 1032 386 994 l 483 1032 z "},"ǔ":{"ha":624,"x_min":71,"x_max":550,"o":"m 406 89 l 397 89 q 339 13 379 36 q 236 -11 299 -11 q 131 16 167 -11 q 83 98 94 43 q 71 249 71 153 l 71 708 l 221 708 l 221 318 q 226 187 221 224 q 247 140 231 150 q 306 129 264 129 q 369 147 350 129 q 394 207 389 165 q 400 339 400 249 l 400 708 l 550 708 l 550 0 l 411 0 l 406 89 m 233 846 l 128 1022 l 128 1032 l 233 1032 l 311 922 l 389 1032 l 494 1032 l 494 1022 l 389 846 l 233 846 z "},"û":{"ha":624,"x_min":71,"x_max":550,"o":"m 406 89 l 397 89 q 339 13 379 36 q 236 -11 299 -11 q 131 16 167 -11 q 83 98 94 43 q 71 249 71 153 l 71 708 l 221 708 l 221 318 q 226 187 221 224 q 247 140 231 150 q 306 129 264 129 q 369 147 350 129 q 394 207 389 165 q 400 339 400 249 l 400 708 l 550 708 l 550 0 l 411 0 l 406 89 m 128 847 l 128 857 l 232 1032 l 389 1032 l 493 857 l 493 847 l 389 847 l 310 957 l 232 847 l 128 847 z "},"ȕ":{"ha":624,"x_min":71,"x_max":550,"o":"m 406 89 l 397 89 q 339 13 379 36 q 236 -11 299 -11 q 131 16 167 -11 q 83 98 94 43 q 71 249 71 153 l 71 708 l 221 708 l 221 318 q 226 187 221 224 q 247 140 231 150 q 306 129 264 129 q 369 147 350 129 q 394 207 389 165 q 400 339 400 249 l 400 708 l 550 708 l 550 0 l 411 0 l 406 89 m 268 846 l 168 846 l 76 1013 l 76 1018 l 204 1018 l 268 851 l 268 846 m 467 846 l 367 846 l 275 1013 l 275 1018 l 401 1018 l 467 851 l 467 846 z "},"ü":{"ha":624,"x_min":71,"x_max":550,"o":"m 406 89 l 397 89 q 339 13 379 36 q 236 -11 299 -11 q 131 16 167 -11 q 83 98 94 43 q 71 249 71 153 l 71 708 l 221 708 l 221 318 q 226 187 221 224 q 247 140 231 150 q 306 129 264 129 q 369 147 350 129 q 394 207 389 165 q 400 339 400 249 l 400 708 l 550 708 l 550 0 l 411 0 l 406 89 m 121 871 l 121 1003 l 256 1003 l 256 871 l 121 871 m 364 871 l 364 1003 l 497 1003 l 497 871 l 364 871 z "},"ǘ":{"ha":624,"x_min":71,"x_max":550,"o":"m 406 89 l 397 89 q 339 13 379 36 q 236 -11 299 -11 q 131 16 167 -11 q 83 98 94 43 q 71 249 71 153 l 71 708 l 221 708 l 221 318 q 226 187 221 224 q 247 140 231 150 q 306 129 264 129 q 369 147 350 129 q 394 207 389 165 q 400 339 400 249 l 400 708 l 550 708 l 550 0 l 411 0 l 406 89 m 122 882 l 122 1014 l 257 1014 l 257 882 l 122 882 m 365 882 l 365 1014 l 499 1014 l 499 882 l 365 882 m 243 1054 l 243 1061 l 317 1254 l 469 1254 l 469 1247 l 363 1054 l 243 1054 z "},"ǚ":{"ha":624,"x_min":71,"x_max":550,"o":"m 406 89 l 397 89 q 339 13 379 36 q 236 -11 299 -11 q 131 16 167 -11 q 83 98 94 43 q 71 249 71 153 l 71 708 l 221 708 l 221 318 q 226 187 221 224 q 247 140 231 150 q 306 129 264 129 q 369 147 350 129 q 394 207 389 165 q 400 339 400 249 l 400 708 l 550 708 l 550 0 l 411 0 l 406 89 m 122 882 l 122 1014 l 257 1014 l 257 882 l 122 882 m 365 882 l 365 1014 l 499 1014 l 499 882 l 365 882 m 236 1068 l 131 1244 l 131 1254 l 236 1254 l 314 1144 l 392 1254 l 497 1254 l 497 1244 l 392 1068 l 236 1068 z "},"ǜ":{"ha":624,"x_min":71,"x_max":550,"o":"m 406 89 l 397 89 q 339 13 379 36 q 236 -11 299 -11 q 131 16 167 -11 q 83 98 94 43 q 71 249 71 153 l 71 708 l 221 708 l 221 318 q 226 187 221 224 q 247 140 231 150 q 306 129 264 129 q 369 147 350 129 q 394 207 389 165 q 400 339 400 249 l 400 708 l 550 708 l 550 0 l 411 0 l 406 89 m 122 882 l 122 1014 l 257 1014 l 257 882 l 122 882 m 365 882 l 365 1014 l 499 1014 l 499 882 l 365 882 m 251 1054 l 146 1247 l 146 1254 l 299 1254 l 372 1061 l 372 1054 l 251 1054 z "},"ǖ":{"ha":624,"x_min":71,"x_max":550,"o":"m 406 89 l 397 89 q 339 13 379 36 q 236 -11 299 -11 q 131 16 167 -11 q 83 98 94 43 q 71 249 71 153 l 71 708 l 221 708 l 221 318 q 226 187 221 224 q 247 140 231 150 q 306 129 264 129 q 369 147 350 129 q 394 207 389 165 q 400 339 400 249 l 400 708 l 550 708 l 550 0 l 411 0 l 406 89 m 122 882 l 122 1014 l 257 1014 l 257 882 l 122 882 m 365 882 l 365 1014 l 499 1014 l 499 882 l 365 882 m 175 1115 l 175 1254 l 451 1254 l 451 1115 l 175 1115 z "},"ụ":{"ha":624,"x_min":71,"x_max":550,"o":"m 406 89 l 397 89 q 339 13 379 36 q 236 -11 299 -11 q 131 16 167 -11 q 83 98 94 43 q 71 249 71 153 l 71 708 l 221 708 l 221 318 q 226 187 221 224 q 247 140 231 150 q 306 129 264 129 q 369 147 350 129 q 394 207 389 165 q 400 339 400 249 l 400 708 l 550 708 l 550 0 l 411 0 l 406 89 m 215 -251 l 215 -86 l 383 -86 l 383 -251 l 215 -251 z "},"ù":{"ha":624,"x_min":71,"x_max":550,"o":"m 406 89 l 397 89 q 339 13 379 36 q 236 -11 299 -11 q 131 16 167 -11 q 83 98 94 43 q 71 249 71 153 l 71 708 l 221 708 l 221 318 q 226 187 221 224 q 247 140 231 150 q 306 129 264 129 q 369 147 350 129 q 394 207 389 165 q 400 339 400 249 l 400 708 l 550 708 l 550 0 l 411 0 l 406 89 m 256 832 l 150 1025 l 150 1032 l 303 1032 l 376 839 l 376 832 l 256 832 z "},"ủ":{"ha":624,"x_min":71,"x_max":550,"o":"m 406 89 l 397 89 q 339 13 379 36 q 236 -11 299 -11 q 131 16 167 -11 q 83 98 94 43 q 71 249 71 153 l 71 708 l 221 708 l 221 318 q 226 187 221 224 q 247 140 231 150 q 306 129 264 129 q 369 147 350 129 q 394 207 389 165 q 400 339 400 249 l 400 708 l 550 708 l 550 0 l 411 0 l 406 89 m 226 872 q 239 926 226 911 q 285 956 251 940 l 304 964 q 339 985 329 976 q 349 1007 349 994 q 338 1026 349 1021 q 296 1032 328 1032 q 161 1024 229 1032 l 161 1124 q 296 1139 243 1139 q 419 1110 378 1139 q 460 1018 460 1082 q 447 951 460 976 q 397 908 435 926 l 371 896 q 333 873 339 881 q 326 847 326 865 l 226 847 l 226 872 z "},"ư":{"ha":624,"x_min":71,"x_max":665,"o":"m 665 843 l 665 790 q 657 708 665 738 q 624 663 649 679 q 550 642 600 647 l 550 0 l 411 0 l 406 89 l 397 89 q 339 13 379 36 q 236 -11 299 -11 q 131 16 167 -11 q 83 98 94 43 q 71 249 71 153 l 71 708 l 221 708 l 221 318 q 226 187 221 224 q 247 140 231 150 q 306 129 264 129 q 369 147 350 129 q 394 207 389 165 q 400 339 400 249 l 400 708 l 469 708 q 548 718 529 708 q 567 758 567 728 l 567 843 l 665 843 z "},"ứ":{"ha":624,"x_min":71,"x_max":665,"o":"m 665 843 l 665 790 q 657 708 665 738 q 624 663 649 679 q 550 642 600 647 l 550 0 l 411 0 l 406 89 l 397 89 q 339 13 379 36 q 236 -11 299 -11 q 131 16 167 -11 q 83 98 94 43 q 71 249 71 153 l 71 708 l 221 708 l 221 318 q 226 187 221 224 q 247 140 231 150 q 306 129 264 129 q 369 147 350 129 q 394 207 389 165 q 400 339 400 249 l 400 708 l 469 708 q 548 718 529 708 q 567 758 567 728 l 567 843 l 665 843 m 240 832 l 240 839 l 314 1032 l 467 1032 l 467 1025 l 360 832 l 240 832 z "},"ự":{"ha":624,"x_min":71,"x_max":665,"o":"m 665 843 l 665 790 q 657 708 665 738 q 624 663 649 679 q 550 642 600 647 l 550 0 l 411 0 l 406 89 l 397 89 q 339 13 379 36 q 236 -11 299 -11 q 131 16 167 -11 q 83 98 94 43 q 71 249 71 153 l 71 708 l 221 708 l 221 318 q 226 187 221 224 q 247 140 231 150 q 306 129 264 129 q 369 147 350 129 q 394 207 389 165 q 400 339 400 249 l 400 708 l 469 708 q 548 718 529 708 q 567 758 567 728 l 567 843 l 665 843 m 215 -251 l 215 -86 l 383 -86 l 383 -251 l 215 -251 z "},"ừ":{"ha":624,"x_min":71,"x_max":665,"o":"m 665 843 l 665 790 q 657 708 665 738 q 624 663 649 679 q 550 642 600 647 l 550 0 l 411 0 l 406 89 l 397 89 q 339 13 379 36 q 236 -11 299 -11 q 131 16 167 -11 q 83 98 94 43 q 71 249 71 153 l 71 708 l 221 708 l 221 318 q 226 187 221 224 q 247 140 231 150 q 306 129 264 129 q 369 147 350 129 q 394 207 389 165 q 400 339 400 249 l 400 708 l 469 708 q 548 718 529 708 q 567 758 567 728 l 567 843 l 665 843 m 249 832 l 143 1025 l 143 1032 l 296 1032 l 369 839 l 369 832 l 249 832 z "},"ử":{"ha":624,"x_min":71,"x_max":665,"o":"m 665 843 l 665 790 q 657 708 665 738 q 624 663 649 679 q 550 642 600 647 l 550 0 l 411 0 l 406 89 l 397 89 q 339 13 379 36 q 236 -11 299 -11 q 131 16 167 -11 q 83 98 94 43 q 71 249 71 153 l 71 708 l 221 708 l 221 318 q 226 187 221 224 q 247 140 231 150 q 306 129 264 129 q 369 147 350 129 q 394 207 389 165 q 400 339 400 249 l 400 708 l 469 708 q 548 718 529 708 q 567 758 567 728 l 567 843 l 665 843 m 226 872 q 239 926 226 911 q 285 956 251 940 l 304 964 q 339 985 329 976 q 349 1007 349 994 q 338 1026 349 1021 q 296 1032 328 1032 q 161 1024 229 1032 l 161 1124 q 296 1139 243 1139 q 419 1110 378 1139 q 460 1018 460 1082 q 447 951 460 976 q 397 908 435 926 l 371 896 q 333 873 339 881 q 326 847 326 865 l 226 847 l 226 872 z "}}}
